  0
SECTION
  2
HEADER
  9
$ACADVER
  1
AC1009
  9
$FILLMODE
 70
0
  9
$EXTMIN
 10
76.7475
 20
70.2713
 30
0.0000
  9
$EXTMAX
 10
97.0588
 20
83.5287
 30
0.0000
  0
ENDSEC
  0
SECTION
  2
TABLES
  0
TABLE
  2
LTYPE
 70
1
  0
LTYPE
  2
CONTINUOUS
 70
64
  3
Solid line
 72
65
 73
0
 40
0
  0
ENDTAB
  0
TABLE
  2
LAYER
 70
255
  0
LAYER
  2
20
 70
64
 62
31
  6
CONTINUOUS
  0
ENDTAB
  0
ENDSEC
  0
SECTION
  2
BLOCKS
  0
BLOCK
  8
0
  2
RECT
 70
64
 10
0.0000
 20
0.0000
 30
0.0000
  3
RECT
  0
SOLID
  8
0
 10
-0.5000
 20
-0.5000
 30
0.0000
 11
0.5000
 21
-0.5000
 31
0.0000
 12
-0.5000
 22
0.5000
 32
0.0000
 13
0.5000
 23
0.5000
 33
0.0000
  0
ENDBLK
  8
0
  0
BLOCK
  8
0
  2
PIE
 70
64
 10
0.0000
 20
0.0000
 30
0.0000
  3
PIE
  0
CIRCLE
  8
0
 10
0.0000
 20
0.0000
 30
0.0000
 40
0.5000
  0
ENDBLK
  8
0
  0
BLOCK
  8
0
  2
OCTAGONP
 70
64
 10
0.0000
 20
0.0000
 30
0.0000
  3
OCTAGONP
  0
POLYLINE
  8
0
 66
1
 10
0.0000
 20
0.0000
 30
0.0000
 40
0.0000
 41
0.0000
 70
1
  0
VERTEX
  8
0
 10
-0.5000
 20
-0.2071
 30
0.0000
  0
VERTEX
  8
0
 10
-0.5000
 20
0.2071
 30
0.0000
  0
VERTEX
  8
0
 10
-0.2071
 20
0.5000
 30
0.0000
  0
VERTEX
  8
0
 10
0.2071
 20
0.5000
 30
0.0000
  0
VERTEX
  8
0
 10
0.5000
 20
0.2071
 30
0.0000
  0
VERTEX
  8
0
 10
0.5000
 20
-0.2071
 30
0.0000
  0
VERTEX
  8
0
 10
0.2071
 20
-0.5000
 30
0.0000
  0
VERTEX
  8
0
 10
-0.2071
 20
-0.5000
 30
0.0000
  0
SEQEND
  8
0
  0
ENDBLK
  8
0
  0
BLOCK
  8
0
  2
SQUAREP
 70
64
 10
0.0000
 20
0.0000
 30
0.0000
  3
SQUAREP
  0
SOLID
  8
0
 10
-0.5000
 20
-0.5000
 30
0.0000
 11
0.5000
 21
-0.5000
 31
0.0000
 12
-0.5000
 22
0.5000
 32
0.0000
 13
0.5000
 23
0.5000
 33
0.0000
  0
ENDBLK
  8
0
  0
BLOCK
  8
0
  2
ROUNDP
 70
64
 10
0.0000
 20
0.0000
 30
0.0000
  3
ROUNDP
  0
CIRCLE
  8
0
 10
0.0000
 20
0.0000
 30
0.0000
 40
0.5000
  0
ENDBLK
  8
0
  0
BLOCK
  8
0
  2
ANNULUSP
 70
64
 10
0.0000
 20
0.0000
 30
0.0000
  3
ANNULUSP
  0
CIRCLE
  8
0
 10
0.0000
 20
0.0000
 30
0.0000
 40
0.5000
  0
ENDBLK
  8
0
  0
BLOCK
  8
0
  2
THERMALP
 70
64
 10
0.0000
 20
0.0000
 30
0.0000
  3
THERMALP
  0
LINE
  8
0
 10
-0.2379
 20
0.4500
 30
0.0000
 11
0.2379
 21
0.4500
 31
0.0000
  0
LINE
  8
0
 10
0.4500
 20
0.2379
 30
0.0000
 11
0.4500
 21
-0.2379
 31
0.0000
  0
LINE
  8
0
 10
0.2379
 20
-0.4500
 30
0.0000
 11
-0.2379
 21
-0.4500
 31
0.0000
  0
LINE
  8
0
 10
-0.4500
 20
-0.2379
 30
0.0000
 11
-0.4500
 21
0.2379
 31
0.0000
  0
ENDBLK
  8
0
  0
BLOCK
  8
0
  2
OCTAGONV
 70
64
 10
0.0000
 20
0.0000
 30
0.0000
  3
OCTAGONV
  0
POLYLINE
  8
0
 66
1
 10
0.0000
 20
0.0000
 30
0.0000
 40
0.0000
 41
0.0000
 70
1
  0
VERTEX
  8
0
 10
-0.5000
 20
-0.2071
 30
0.0000
  0
VERTEX
  8
0
 10
-0.5000
 20
0.2071
 30
0.0000
  0
VERTEX
  8
0
 10
-0.2071
 20
0.5000
 30
0.0000
  0
VERTEX
  8
0
 10
0.2071
 20
0.5000
 30
0.0000
  0
VERTEX
  8
0
 10
0.5000
 20
0.2071
 30
0.0000
  0
VERTEX
  8
0
 10
0.5000
 20
-0.2071
 30
0.0000
  0
VERTEX
  8
0
 10
0.2071
 20
-0.5000
 30
0.0000
  0
VERTEX
  8
0
 10
-0.2071
 20
-0.5000
 30
0.0000
  0
SEQEND
  8
0
  0
ENDBLK
  8
0
  0
BLOCK
  8
0
  2
SQUAREV
 70
64
 10
0.0000
 20
0.0000
 30
0.0000
  3
SQUAREV
  0
SOLID
  8
0
 10
-0.5000
 20
-0.5000
 30
0.0000
 11
0.5000
 21
-0.5000
 31
0.0000
 12
-0.5000
 22
0.5000
 32
0.0000
 13
0.5000
 23
0.5000
 33
0.0000
  0
ENDBLK
  8
0
  0
BLOCK
  8
0
  2
ROUNDV
 70
64
 10
0.0000
 20
0.0000
 30
0.0000
  3
ROUNDV
  0
CIRCLE
  8
0
 10
0.0000
 20
0.0000
 30
0.0000
 40
0.5000
  0
ENDBLK
  8
0
  0
BLOCK
  8
0
  2
ANNULUSV
 70
64
 10
0.0000
 20
0.0000
 30
0.0000
  3
ANNULUSV
  0
CIRCLE
  8
0
 10
0.0000
 20
0.0000
 30
0.0000
 40
0.5000
  0
ENDBLK
  8
0
  0
BLOCK
  8
0
  2
THERMALV
 70
64
 10
0.0000
 20
0.0000
 30
0.0000
  3
THERMALV
  0
LINE
  8
0
 10
-0.2379
 20
0.4500
 30
0.0000
 11
0.2379
 21
0.4500
 31
0.0000
  0
LINE
  8
0
 10
0.4500
 20
0.2379
 30
0.0000
 11
0.4500
 21
-0.2379
 31
0.0000
  0
LINE
  8
0
 10
0.2379
 20
-0.4500
 30
0.0000
 11
-0.2379
 21
-0.4500
 31
0.0000
  0
LINE
  8
0
 10
-0.4500
 20
-0.2379
 30
0.0000
 11
-0.4500
 21
0.2379
 31
0.0000
  0
ENDBLK
  8
0
  0
ENDSEC
  0
SECTION
  2
ENTITIES
  0
LINE
  8
20
 10
96.7521
 20
70.5000
 30
0.0000
 11
96.7521
 21
83.5000
 31
0.0000
  0
LINE
  8
20
 10
81.7521
 20
70.5000
 30
0.0000
 11
96.7521
 21
70.5000
 31
0.0000
  0
LINE
  8
20
 10
96.7521
 20
83.5000
 30
0.0000
 11
81.7521
 21
83.5000
 31
0.0000
  0
LINE
  8
20
 10
81.7521
 20
83.5000
 30
0.0000
 11
81.6735
 21
83.4551
 31
0.0000
  0
LINE
  8
20
 10
81.6735
 20
83.4551
 30
0.0000
 11
81.5956
 21
83.4102
 31
0.0000
  0
LINE
  8
20
 10
81.5956
 20
83.4102
 30
0.0000
 11
81.5184
 21
83.3655
 31
0.0000
  0
LINE
  8
20
 10
81.5184
 20
83.3655
 30
0.0000
 11
81.4419
 21
83.3208
 31
0.0000
  0
LINE
  8
20
 10
81.4419
 20
83.3208
 30
0.0000
 11
81.3661
 21
83.2762
 31
0.0000
  0
LINE
  8
20
 10
81.3661
 20
83.2762
 30
0.0000
 11
81.2909
 21
83.2318
 31
0.0000
  0
LINE
  8
20
 10
81.2909
 20
83.2318
 30
0.0000
 11
81.2165
 21
83.1874
 31
0.0000
  0
LINE
  8
20
 10
81.2165
 20
83.1874
 30
0.0000
 11
81.1427
 21
83.1431
 31
0.0000
  0
LINE
  8
20
 10
81.1427
 20
83.1431
 30
0.0000
 11
81.0662
 21
83.0968
 31
0.0000
  0
LINE
  8
20
 10
81.0662
 20
83.0968
 30
0.0000
 11
80.9904
 21
83.0506
 31
0.0000
  0
LINE
  8
20
 10
80.9904
 20
83.0506
 30
0.0000
 11
80.9154
 21
83.0045
 31
0.0000
  0
LINE
  8
20
 10
80.9154
 20
83.0045
 30
0.0000
 11
80.8412
 21
82.9585
 31
0.0000
  0
LINE
  8
20
 10
80.8412
 20
82.9585
 30
0.0000
 11
80.7677
 21
82.9126
 31
0.0000
  0
LINE
  8
20
 10
80.7677
 20
82.9126
 30
0.0000
 11
80.6950
 21
82.8669
 31
0.0000
  0
LINE
  8
20
 10
80.6950
 20
82.8669
 30
0.0000
 11
80.6230
 21
82.8212
 31
0.0000
  0
LINE
  8
20
 10
80.6230
 20
82.8212
 30
0.0000
 11
80.5517
 21
82.7756
 31
0.0000
  0
LINE
  8
20
 10
80.5517
 20
82.7756
 30
0.0000
 11
80.4813
 21
82.7301
 31
0.0000
  0
LINE
  8
20
 10
80.4813
 20
82.7301
 30
0.0000
 11
80.4116
 21
82.6848
 31
0.0000
  0
LINE
  8
20
 10
80.4116
 20
82.6848
 30
0.0000
 11
80.3426
 21
82.6395
 31
0.0000
  0
LINE
  8
20
 10
80.3426
 20
82.6395
 30
0.0000
 11
80.2744
 21
82.5943
 31
0.0000
  0
LINE
  8
20
 10
80.2744
 20
82.5943
 30
0.0000
 11
80.2108
 21
82.5519
 31
0.0000
  0
LINE
  8
20
 10
80.2108
 20
82.5519
 30
0.0000
 11
80.1479
 21
82.5095
 31
0.0000
  0
LINE
  8
20
 10
80.1479
 20
82.5095
 30
0.0000
 11
80.0857
 21
82.4672
 31
0.0000
  0
LINE
  8
20
 10
80.0857
 20
82.4672
 30
0.0000
 11
80.0241
 21
82.4250
 31
0.0000
  0
LINE
  8
20
 10
80.0241
 20
82.4250
 30
0.0000
 11
79.9632
 21
82.3828
 31
0.0000
  0
LINE
  8
20
 10
79.9632
 20
82.3828
 30
0.0000
 11
79.8993
 21
82.3383
 31
0.0000
  0
LINE
  8
20
 10
79.8993
 20
82.3383
 30
0.0000
 11
79.8362
 21
82.2938
 31
0.0000
  0
LINE
  8
20
 10
79.8362
 20
82.2938
 30
0.0000
 11
79.7739
 21
82.2494
 31
0.0000
  0
LINE
  8
20
 10
79.7739
 20
82.2494
 30
0.0000
 11
79.7123
 21
82.2052
 31
0.0000
  0
LINE
  8
20
 10
79.7123
 20
82.2052
 30
0.0000
 11
79.6514
 21
82.1610
 31
0.0000
  0
LINE
  8
20
 10
79.6514
 20
82.1610
 30
0.0000
 11
79.5914
 21
82.1169
 31
0.0000
  0
LINE
  8
20
 10
79.5914
 20
82.1169
 30
0.0000
 11
79.5354
 21
82.0755
 31
0.0000
  0
LINE
  8
20
 10
79.5354
 20
82.0755
 30
0.0000
 11
79.4801
 21
82.0341
 31
0.0000
  0
LINE
  8
20
 10
79.4801
 20
82.0341
 30
0.0000
 11
79.4255
 21
81.9929
 31
0.0000
  0
LINE
  8
20
 10
79.4255
 20
81.9929
 30
0.0000
 11
79.3716
 21
81.9517
 31
0.0000
  0
LINE
  8
20
 10
79.3716
 20
81.9517
 30
0.0000
 11
79.3183
 21
81.9106
 31
0.0000
  0
LINE
  8
20
 10
79.3183
 20
81.9106
 30
0.0000
 11
79.2657
 21
81.8696
 31
0.0000
  0
LINE
  8
20
 10
79.2657
 20
81.8696
 30
0.0000
 11
79.2138
 21
81.8287
 31
0.0000
  0
LINE
  8
20
 10
79.2138
 20
81.8287
 30
0.0000
 11
79.1626
 21
81.7879
 31
0.0000
  0
LINE
  8
20
 10
79.1626
 20
81.7879
 30
0.0000
 11
79.1120
 21
81.7472
 31
0.0000
  0
LINE
  8
20
 10
79.1120
 20
81.7472
 30
0.0000
 11
79.0622
 21
81.7066
 31
0.0000
  0
LINE
  8
20
 10
79.0622
 20
81.7066
 30
0.0000
 11
79.0138
 21
81.6668
 31
0.0000
  0
LINE
  8
20
 10
79.0138
 20
81.6668
 30
0.0000
 11
78.9661
 21
81.6271
 31
0.0000
  0
LINE
  8
20
 10
78.9661
 20
81.6271
 30
0.0000
 11
78.9191
 21
81.5874
 31
0.0000
  0
LINE
  8
20
 10
78.9191
 20
81.5874
 30
0.0000
 11
78.8727
 21
81.5479
 31
0.0000
  0
LINE
  8
20
 10
78.8727
 20
81.5479
 30
0.0000
 11
78.8233
 21
81.5053
 31
0.0000
  0
LINE
  8
20
 10
78.8233
 20
81.5053
 30
0.0000
 11
78.7747
 21
81.4628
 31
0.0000
  0
LINE
  8
20
 10
78.7747
 20
81.4628
 30
0.0000
 11
78.7268
 21
81.4204
 31
0.0000
  0
LINE
  8
20
 10
78.7268
 20
81.4204
 30
0.0000
 11
78.6797
 21
81.3781
 31
0.0000
  0
LINE
  8
20
 10
78.6797
 20
81.3781
 30
0.0000
 11
78.6334
 21
81.3359
 31
0.0000
  0
LINE
  8
20
 10
78.6334
 20
81.3359
 30
0.0000
 11
78.5878
 21
81.2938
 31
0.0000
  0
LINE
  8
20
 10
78.5878
 20
81.2938
 30
0.0000
 11
78.5455
 21
81.2542
 31
0.0000
  0
LINE
  8
20
 10
78.5455
 20
81.2542
 30
0.0000
 11
78.5039
 21
81.2148
 31
0.0000
  0
LINE
  8
20
 10
78.5039
 20
81.2148
 30
0.0000
 11
78.4630
 21
81.1753
 31
0.0000
  0
LINE
  8
20
 10
78.4630
 20
81.1753
 30
0.0000
 11
78.4227
 21
81.1360
 31
0.0000
  0
LINE
  8
20
 10
78.4227
 20
81.1360
 30
0.0000
 11
78.3831
 21
81.0968
 31
0.0000
  0
LINE
  8
20
 10
78.3831
 20
81.0968
 30
0.0000
 11
78.3442
 21
81.0577
 31
0.0000
  0
LINE
  8
20
 10
78.3442
 20
81.0577
 30
0.0000
 11
78.3059
 21
81.0186
 31
0.0000
  0
LINE
  8
20
 10
78.3059
 20
81.0186
 30
0.0000
 11
78.2684
 21
80.9797
 31
0.0000
  0
LINE
  8
20
 10
78.2684
 20
80.9797
 30
0.0000
 11
78.2315
 21
80.9408
 31
0.0000
  0
LINE
  8
20
 10
78.2315
 20
80.9408
 30
0.0000
 11
78.1952
 21
80.9021
 31
0.0000
  0
LINE
  8
20
 10
78.1952
 20
80.9021
 30
0.0000
 11
78.1603
 21
80.8641
 31
0.0000
  0
LINE
  8
20
 10
78.1603
 20
80.8641
 30
0.0000
 11
78.1260
 21
80.8262
 31
0.0000
  0
LINE
  8
20
 10
78.1260
 20
80.8262
 30
0.0000
 11
78.0924
 21
80.7884
 31
0.0000
  0
LINE
  8
20
 10
78.0924
 20
80.7884
 30
0.0000
 11
78.0594
 21
80.7507
 31
0.0000
  0
LINE
  8
20
 10
78.0594
 20
80.7507
 30
0.0000
 11
78.0265
 21
80.7124
 31
0.0000
  0
LINE
  8
20
 10
78.0265
 20
80.7124
 30
0.0000
 11
77.9943
 21
80.6741
 31
0.0000
  0
LINE
  8
20
 10
77.9943
 20
80.6741
 30
0.0000
 11
77.9627
 21
80.6360
 31
0.0000
  0
LINE
  8
20
 10
77.9627
 20
80.6360
 30
0.0000
 11
77.9318
 21
80.5980
 31
0.0000
  0
LINE
  8
20
 10
77.9318
 20
80.5980
 30
0.0000
 11
77.9016
 21
80.5600
 31
0.0000
  0
LINE
  8
20
 10
77.9016
 20
80.5600
 30
0.0000
 11
77.8726
 21
80.5229
 31
0.0000
  0
LINE
  8
20
 10
77.8726
 20
80.5229
 30
0.0000
 11
77.8442
 21
80.4858
 31
0.0000
  0
LINE
  8
20
 10
77.8442
 20
80.4858
 30
0.0000
 11
77.8165
 21
80.4488
 31
0.0000
  0
LINE
  8
20
 10
77.8165
 20
80.4488
 30
0.0000
 11
77.7895
 21
80.4119
 31
0.0000
  0
LINE
  8
20
 10
77.7895
 20
80.4119
 30
0.0000
 11
77.7625
 21
80.3743
 31
0.0000
  0
LINE
  8
20
 10
77.7625
 20
80.3743
 30
0.0000
 11
77.7362
 21
80.3368
 31
0.0000
  0
LINE
  8
20
 10
77.7362
 20
80.3368
 30
0.0000
 11
77.7106
 21
80.2994
 31
0.0000
  0
LINE
  8
20
 10
77.7106
 20
80.2994
 30
0.0000
 11
77.6857
 21
80.2621
 31
0.0000
  0
LINE
  8
20
 10
77.6857
 20
80.2621
 30
0.0000
 11
77.6614
 21
80.2249
 31
0.0000
  0
LINE
  8
20
 10
77.6614
 20
80.2249
 30
0.0000
 11
77.6379
 21
80.1878
 31
0.0000
  0
LINE
  8
20
 10
77.6379
 20
80.1878
 30
0.0000
 11
77.6150
 21
80.1508
 31
0.0000
  0
LINE
  8
20
 10
77.6150
 20
80.1508
 30
0.0000
 11
77.5789
 21
80.0909
 31
0.0000
  0
LINE
  8
20
 10
77.5789
 20
80.0909
 30
0.0000
 11
77.5436
 21
80.0310
 31
0.0000
  0
LINE
  8
20
 10
77.5436
 20
80.0310
 30
0.0000
 11
77.5090
 21
79.9711
 31
0.0000
  0
LINE
  8
20
 10
77.5090
 20
79.9711
 30
0.0000
 11
77.4753
 21
79.9110
 31
0.0000
  0
LINE
  8
20
 10
77.4753
 20
79.9110
 30
0.0000
 11
77.4423
 21
79.8508
 31
0.0000
  0
LINE
  8
20
 10
77.4423
 20
79.8508
 30
0.0000
 11
77.4106
 21
79.7917
 31
0.0000
  0
LINE
  8
20
 10
77.4106
 20
79.7917
 30
0.0000
 11
77.3796
 21
79.7324
 31
0.0000
  0
LINE
  8
20
 10
77.3796
 20
79.7324
 30
0.0000
 11
77.3494
 21
79.6731
 31
0.0000
  0
LINE
  8
20
 10
77.3494
 20
79.6731
 30
0.0000
 11
77.3200
 21
79.6137
 31
0.0000
  0
LINE
  8
20
 10
77.3200
 20
79.6137
 30
0.0000
 11
77.2907
 21
79.5529
 31
0.0000
  0
LINE
  8
20
 10
77.2907
 20
79.5529
 30
0.0000
 11
77.2622
 21
79.4921
 31
0.0000
  0
LINE
  8
20
 10
77.2622
 20
79.4921
 30
0.0000
 11
77.2344
 21
79.4312
 31
0.0000
  0
LINE
  8
20
 10
77.2344
 20
79.4312
 30
0.0000
 11
77.2074
 21
79.3702
 31
0.0000
  0
LINE
  8
20
 10
77.2074
 20
79.3702
 30
0.0000
 11
77.1812
 21
79.3092
 31
0.0000
  0
LINE
  8
20
 10
77.1812
 20
79.3092
 30
0.0000
 11
77.1558
 21
79.2480
 31
0.0000
  0
LINE
  8
20
 10
77.1558
 20
79.2480
 30
0.0000
 11
77.1311
 21
79.1868
 31
0.0000
  0
LINE
  8
20
 10
77.1311
 20
79.1868
 30
0.0000
 11
77.1072
 21
79.1255
 31
0.0000
  0
LINE
  8
20
 10
77.1072
 20
79.1255
 30
0.0000
 11
77.0840
 21
79.0641
 31
0.0000
  0
LINE
  8
20
 10
77.0840
 20
79.0641
 30
0.0000
 11
77.0617
 21
79.0025
 31
0.0000
  0
LINE
  8
20
 10
77.0617
 20
79.0025
 30
0.0000
 11
77.0401
 21
78.9410
 31
0.0000
  0
LINE
  8
20
 10
77.0401
 20
78.9410
 30
0.0000
 11
77.0192
 21
78.8793
 31
0.0000
  0
LINE
  8
20
 10
77.0192
 20
78.8793
 30
0.0000
 11
76.9992
 21
78.8175
 31
0.0000
  0
LINE
  8
20
 10
76.9992
 20
78.8175
 30
0.0000
 11
76.9799
 21
78.7557
 31
0.0000
  0
LINE
  8
20
 10
76.9799
 20
78.7557
 30
0.0000
 11
76.9629
 21
78.6989
 31
0.0000
  0
LINE
  8
20
 10
76.9629
 20
78.6989
 30
0.0000
 11
76.9466
 21
78.6420
 31
0.0000
  0
LINE
  8
20
 10
76.9466
 20
78.6420
 30
0.0000
 11
76.9308
 21
78.5851
 31
0.0000
  0
LINE
  8
20
 10
76.9308
 20
78.5851
 30
0.0000
 11
76.9158
 21
78.5281
 31
0.0000
  0
LINE
  8
20
 10
76.9158
 20
78.5281
 30
0.0000
 11
76.9014
 21
78.4711
 31
0.0000
  0
LINE
  8
20
 10
76.9014
 20
78.4711
 30
0.0000
 11
76.8876
 21
78.4139
 31
0.0000
  0
LINE
  8
20
 10
76.8876
 20
78.4139
 30
0.0000
 11
76.8733
 21
78.3515
 31
0.0000
  0
LINE
  8
20
 10
76.8733
 20
78.3515
 30
0.0000
 11
76.8598
 21
78.2890
 31
0.0000
  0
LINE
  8
20
 10
76.8598
 20
78.2890
 30
0.0000
 11
76.8471
 21
78.2264
 31
0.0000
  0
LINE
  8
20
 10
76.8471
 20
78.2264
 30
0.0000
 11
76.8351
 21
78.1638
 31
0.0000
  0
LINE
  8
20
 10
76.8351
 20
78.1638
 30
0.0000
 11
76.8239
 21
78.1010
 31
0.0000
  0
LINE
  8
20
 10
76.8239
 20
78.1010
 30
0.0000
 11
76.8135
 21
78.0381
 31
0.0000
  0
LINE
  8
20
 10
76.8135
 20
78.0381
 30
0.0000
 11
76.8038
 21
77.9752
 31
0.0000
  0
LINE
  8
20
 10
76.8038
 20
77.9752
 30
0.0000
 11
76.7956
 21
77.9174
 31
0.0000
  0
LINE
  8
20
 10
76.7956
 20
77.9174
 30
0.0000
 11
76.7881
 21
77.8596
 31
0.0000
  0
LINE
  8
20
 10
76.7881
 20
77.8596
 30
0.0000
 11
76.7812
 21
77.8017
 31
0.0000
  0
LINE
  8
20
 10
76.7812
 20
77.8017
 30
0.0000
 11
76.7750
 21
77.7437
 31
0.0000
  0
LINE
  8
20
 10
76.7750
 20
77.7437
 30
0.0000
 11
76.7694
 21
77.6856
 31
0.0000
  0
LINE
  8
20
 10
76.7694
 20
77.6856
 30
0.0000
 11
76.7644
 21
77.6275
 31
0.0000
  0
LINE
  8
20
 10
76.7644
 20
77.6275
 30
0.0000
 11
76.7601
 21
77.5693
 31
0.0000
  0
LINE
  8
20
 10
76.7601
 20
77.5693
 30
0.0000
 11
76.7565
 21
77.5110
 31
0.0000
  0
LINE
  8
20
 10
76.7565
 20
77.5110
 30
0.0000
 11
76.7535
 21
77.4526
 31
0.0000
  0
LINE
  8
20
 10
76.7535
 20
77.4526
 30
0.0000
 11
76.7511
 21
77.3942
 31
0.0000
  0
LINE
  8
20
 10
76.7511
 20
77.3942
 30
0.0000
 11
76.7494
 21
77.3357
 31
0.0000
  0
LINE
  8
20
 10
76.7494
 20
77.3357
 30
0.0000
 11
76.7484
 21
77.2771
 31
0.0000
  0
LINE
  8
20
 10
76.7484
 20
77.2771
 30
0.0000
 11
76.7480
 21
77.2218
 31
0.0000
  0
LINE
  8
20
 10
76.7480
 20
77.2218
 30
0.0000
 11
76.7481
 21
77.1665
 31
0.0000
  0
LINE
  8
20
 10
76.7481
 20
77.1665
 30
0.0000
 11
76.7489
 21
77.1111
 31
0.0000
  0
LINE
  8
20
 10
76.7489
 20
77.1111
 30
0.0000
 11
76.7502
 21
77.0556
 31
0.0000
  0
LINE
  8
20
 10
76.7502
 20
77.0556
 30
0.0000
 11
76.7521
 21
77.0000
 31
0.0000
  0
LINE
  8
20
 10
76.7521
 20
77.0000
 30
0.0000
 11
76.7550
 21
76.9358
 31
0.0000
  0
LINE
  8
20
 10
76.7550
 20
76.9358
 30
0.0000
 11
76.7586
 21
76.8715
 31
0.0000
  0
LINE
  8
20
 10
76.7586
 20
76.8715
 30
0.0000
 11
76.7631
 21
76.8071
 31
0.0000
  0
LINE
  8
20
 10
76.7631
 20
76.8071
 30
0.0000
 11
76.7683
 21
76.7426
 31
0.0000
  0
LINE
  8
20
 10
76.7683
 20
76.7426
 30
0.0000
 11
76.7742
 21
76.6780
 31
0.0000
  0
LINE
  8
20
 10
76.7742
 20
76.6780
 30
0.0000
 11
76.7808
 21
76.6145
 31
0.0000
  0
LINE
  8
20
 10
76.7808
 20
76.6145
 30
0.0000
 11
76.7882
 21
76.5510
 31
0.0000
  0
LINE
  8
20
 10
76.7882
 20
76.5510
 30
0.0000
 11
76.7963
 21
76.4873
 31
0.0000
  0
LINE
  8
20
 10
76.7963
 20
76.4873
 30
0.0000
 11
76.8051
 21
76.4235
 31
0.0000
  0
LINE
  8
20
 10
76.8051
 20
76.4235
 30
0.0000
 11
76.8149
 21
76.3584
 31
0.0000
  0
LINE
  8
20
 10
76.8149
 20
76.3584
 30
0.0000
 11
76.8254
 21
76.2932
 31
0.0000
  0
LINE
  8
20
 10
76.8254
 20
76.2932
 30
0.0000
 11
76.8367
 21
76.2279
 31
0.0000
  0
LINE
  8
20
 10
76.8367
 20
76.2279
 30
0.0000
 11
76.8488
 21
76.1625
 31
0.0000
  0
LINE
  8
20
 10
76.8488
 20
76.1625
 30
0.0000
 11
76.8616
 21
76.0970
 31
0.0000
  0
LINE
  8
20
 10
76.8616
 20
76.0970
 30
0.0000
 11
76.8752
 21
76.0314
 31
0.0000
  0
LINE
  8
20
 10
76.8752
 20
76.0314
 30
0.0000
 11
76.8896
 21
75.9658
 31
0.0000
  0
LINE
  8
20
 10
76.8896
 20
75.9658
 30
0.0000
 11
76.9048
 21
75.9000
 31
0.0000
  0
LINE
  8
20
 10
76.9048
 20
75.9000
 30
0.0000
 11
76.9207
 21
75.8342
 31
0.0000
  0
LINE
  8
20
 10
76.9207
 20
75.8342
 30
0.0000
 11
76.9374
 21
75.7683
 31
0.0000
  0
LINE
  8
20
 10
76.9374
 20
75.7683
 30
0.0000
 11
76.9549
 21
75.7023
 31
0.0000
  0
LINE
  8
20
 10
76.9549
 20
75.7023
 30
0.0000
 11
76.9731
 21
75.6362
 31
0.0000
  0
LINE
  8
20
 10
76.9731
 20
75.6362
 30
0.0000
 11
76.9921
 21
75.5700
 31
0.0000
  0
LINE
  8
20
 10
76.9921
 20
75.5700
 30
0.0000
 11
77.0119
 21
75.5037
 31
0.0000
  0
LINE
  8
20
 10
77.0119
 20
75.5037
 30
0.0000
 11
77.0307
 21
75.4429
 31
0.0000
  0
LINE
  8
20
 10
77.0307
 20
75.4429
 30
0.0000
 11
77.0502
 21
75.3820
 31
0.0000
  0
LINE
  8
20
 10
77.0502
 20
75.3820
 30
0.0000
 11
77.0703
 21
75.3210
 31
0.0000
  0
LINE
  8
20
 10
77.0703
 20
75.3210
 30
0.0000
 11
77.0910
 21
75.2600
 31
0.0000
  0
LINE
  8
20
 10
77.0910
 20
75.2600
 30
0.0000
 11
77.1124
 21
75.1989
 31
0.0000
  0
LINE
  8
20
 10
77.1124
 20
75.1989
 30
0.0000
 11
77.1344
 21
75.1377
 31
0.0000
  0
LINE
  8
20
 10
77.1344
 20
75.1377
 30
0.0000
 11
77.1592
 21
75.0709
 31
0.0000
  0
LINE
  8
20
 10
77.1592
 20
75.0709
 30
0.0000
 11
77.1848
 21
75.0039
 31
0.0000
  0
LINE
  8
20
 10
77.1848
 20
75.0039
 30
0.0000
 11
77.2111
 21
74.9369
 31
0.0000
  0
LINE
  8
20
 10
77.2111
 20
74.9369
 30
0.0000
 11
77.2382
 21
74.8698
 31
0.0000
  0
LINE
  8
20
 10
77.2382
 20
74.8698
 30
0.0000
 11
77.2660
 21
74.8027
 31
0.0000
  0
LINE
  8
20
 10
77.2660
 20
74.8027
 30
0.0000
 11
77.2947
 21
74.7354
 31
0.0000
  0
LINE
  8
20
 10
77.2947
 20
74.7354
 30
0.0000
 11
77.3241
 21
74.6680
 31
0.0000
  0
LINE
  8
20
 10
77.3241
 20
74.6680
 30
0.0000
 11
77.3517
 21
74.6062
 31
0.0000
  0
LINE
  8
20
 10
77.3517
 20
74.6062
 30
0.0000
 11
77.3800
 21
74.5443
 31
0.0000
  0
LINE
  8
20
 10
77.3800
 20
74.5443
 30
0.0000
 11
77.4089
 21
74.4823
 31
0.0000
  0
LINE
  8
20
 10
77.4089
 20
74.4823
 30
0.0000
 11
77.4385
 21
74.4203
 31
0.0000
  0
LINE
  8
20
 10
77.4385
 20
74.4203
 30
0.0000
 11
77.4687
 21
74.3582
 31
0.0000
  0
LINE
  8
20
 10
77.4687
 20
74.3582
 30
0.0000
 11
77.4995
 21
74.2960
 31
0.0000
  0
LINE
  8
20
 10
77.4995
 20
74.2960
 30
0.0000
 11
77.5311
 21
74.2338
 31
0.0000
  0
LINE
  8
20
 10
77.5311
 20
74.2338
 30
0.0000
 11
77.5632
 21
74.1714
 31
0.0000
  0
LINE
  8
20
 10
77.5632
 20
74.1714
 30
0.0000
 11
77.5960
 21
74.1090
 31
0.0000
  0
LINE
  8
20
 10
77.5960
 20
74.1090
 30
0.0000
 11
77.6295
 21
74.0465
 31
0.0000
  0
LINE
  8
20
 10
77.6295
 20
74.0465
 30
0.0000
 11
77.6636
 21
73.9840
 31
0.0000
  0
LINE
  8
20
 10
77.6636
 20
73.9840
 30
0.0000
 11
77.6983
 21
73.9214
 31
0.0000
  0
LINE
  8
20
 10
77.6983
 20
73.9214
 30
0.0000
 11
77.7317
 21
73.8623
 31
0.0000
  0
LINE
  8
20
 10
77.7317
 20
73.8623
 30
0.0000
 11
77.7656
 21
73.8031
 31
0.0000
  0
LINE
  8
20
 10
77.7656
 20
73.8031
 30
0.0000
 11
77.8001
 21
73.7438
 31
0.0000
  0
LINE
  8
20
 10
77.8001
 20
73.7438
 30
0.0000
 11
77.8352
 21
73.6845
 31
0.0000
  0
LINE
  8
20
 10
77.8352
 20
73.6845
 30
0.0000
 11
77.8708
 21
73.6252
 31
0.0000
  0
LINE
  8
20
 10
77.8708
 20
73.6252
 30
0.0000
 11
77.9008
 21
73.5762
 31
0.0000
  0
LINE
  8
20
 10
77.9008
 20
73.5762
 30
0.0000
 11
77.9315
 21
73.5275
 31
0.0000
  0
LINE
  8
20
 10
77.9315
 20
73.5275
 30
0.0000
 11
77.9629
 21
73.4788
 31
0.0000
  0
LINE
  8
20
 10
77.9629
 20
73.4788
 30
0.0000
 11
77.9950
 21
73.4303
 31
0.0000
  0
LINE
  8
20
 10
77.9950
 20
73.4303
 30
0.0000
 11
78.0277
 21
73.3820
 31
0.0000
  0
LINE
  8
20
 10
78.0277
 20
73.3820
 30
0.0000
 11
78.0612
 21
73.3338
 31
0.0000
  0
LINE
  8
20
 10
78.0612
 20
73.3338
 30
0.0000
 11
78.0954
 21
73.2857
 31
0.0000
  0
LINE
  8
20
 10
78.0954
 20
73.2857
 30
0.0000
 11
78.1274
 21
73.2418
 31
0.0000
  0
LINE
  8
20
 10
78.1274
 20
73.2418
 30
0.0000
 11
78.1599
 21
73.1980
 31
0.0000
  0
LINE
  8
20
 10
78.1599
 20
73.1980
 30
0.0000
 11
78.1930
 21
73.1543
 31
0.0000
  0
LINE
  8
20
 10
78.1930
 20
73.1543
 30
0.0000
 11
78.2268
 21
73.1107
 31
0.0000
  0
LINE
  8
20
 10
78.2268
 20
73.1107
 30
0.0000
 11
78.2610
 21
73.0673
 31
0.0000
  0
LINE
  8
20
 10
78.2610
 20
73.0673
 30
0.0000
 11
78.2959
 21
73.0239
 31
0.0000
  0
LINE
  8
20
 10
78.2959
 20
73.0239
 30
0.0000
 11
78.3314
 21
72.9807
 31
0.0000
  0
LINE
  8
20
 10
78.3314
 20
72.9807
 30
0.0000
 11
78.3675
 21
72.9377
 31
0.0000
  0
LINE
  8
20
 10
78.3675
 20
72.9377
 30
0.0000
 11
78.4041
 21
72.8947
 31
0.0000
  0
LINE
  8
20
 10
78.4041
 20
72.8947
 30
0.0000
 11
78.4414
 21
72.8518
 31
0.0000
  0
LINE
  8
20
 10
78.4414
 20
72.8518
 30
0.0000
 11
78.4792
 21
72.8091
 31
0.0000
  0
LINE
  8
20
 10
78.4792
 20
72.8091
 30
0.0000
 11
78.5176
 21
72.7665
 31
0.0000
  0
LINE
  8
20
 10
78.5176
 20
72.7665
 30
0.0000
 11
78.5544
 21
72.7264
 31
0.0000
  0
LINE
  8
20
 10
78.5544
 20
72.7264
 30
0.0000
 11
78.5916
 21
72.6865
 31
0.0000
  0
LINE
  8
20
 10
78.5916
 20
72.6865
 30
0.0000
 11
78.6295
 21
72.6466
 31
0.0000
  0
LINE
  8
20
 10
78.6295
 20
72.6466
 30
0.0000
 11
78.6678
 21
72.6069
 31
0.0000
  0
LINE
  8
20
 10
78.6678
 20
72.6069
 30
0.0000
 11
78.7066
 21
72.5672
 31
0.0000
  0
LINE
  8
20
 10
78.7066
 20
72.5672
 30
0.0000
 11
78.7484
 21
72.5253
 31
0.0000
  0
LINE
  8
20
 10
78.7484
 20
72.5253
 30
0.0000
 11
78.7908
 21
72.4835
 31
0.0000
  0
LINE
  8
20
 10
78.7908
 20
72.4835
 30
0.0000
 11
78.8337
 21
72.4418
 31
0.0000
  0
LINE
  8
20
 10
78.8337
 20
72.4418
 30
0.0000
 11
78.8772
 21
72.4003
 31
0.0000
  0
LINE
  8
20
 10
78.8772
 20
72.4003
 30
0.0000
 11
78.9214
 21
72.3588
 31
0.0000
  0
LINE
  8
20
 10
78.9214
 20
72.3588
 30
0.0000
 11
78.9661
 21
72.3175
 31
0.0000
  0
LINE
  8
20
 10
78.9661
 20
72.3175
 30
0.0000
 11
79.0088
 21
72.2786
 31
0.0000
  0
LINE
  8
20
 10
79.0088
 20
72.2786
 30
0.0000
 11
79.0520
 21
72.2399
 31
0.0000
  0
LINE
  8
20
 10
79.0520
 20
72.2399
 30
0.0000
 11
79.0957
 21
72.2013
 31
0.0000
  0
LINE
  8
20
 10
79.0957
 20
72.2013
 30
0.0000
 11
79.1400
 21
72.1627
 31
0.0000
  0
LINE
  8
20
 10
79.1400
 20
72.1627
 30
0.0000
 11
79.1848
 21
72.1243
 31
0.0000
  0
LINE
  8
20
 10
79.1848
 20
72.1243
 30
0.0000
 11
79.2354
 21
72.0815
 31
0.0000
  0
LINE
  8
20
 10
79.2354
 20
72.0815
 30
0.0000
 11
79.2866
 21
72.0389
 31
0.0000
  0
LINE
  8
20
 10
79.2866
 20
72.0389
 30
0.0000
 11
79.3385
 21
71.9964
 31
0.0000
  0
LINE
  8
20
 10
79.3385
 20
71.9964
 30
0.0000
 11
79.3911
 21
71.9541
 31
0.0000
  0
LINE
  8
20
 10
79.3911
 20
71.9541
 30
0.0000
 11
79.4443
 21
71.9118
 31
0.0000
  0
LINE
  8
20
 10
79.4443
 20
71.9118
 30
0.0000
 11
79.4981
 21
71.8697
 31
0.0000
  0
LINE
  8
20
 10
79.4981
 20
71.8697
 30
0.0000
 11
79.5526
 21
71.8278
 31
0.0000
  0
LINE
  8
20
 10
79.5526
 20
71.8278
 30
0.0000
 11
79.6078
 21
71.7859
 31
0.0000
  0
LINE
  8
20
 10
79.6078
 20
71.7859
 30
0.0000
 11
79.6608
 21
71.7463
 31
0.0000
  0
LINE
  8
20
 10
79.6608
 20
71.7463
 30
0.0000
 11
79.7144
 21
71.7068
 31
0.0000
  0
LINE
  8
20
 10
79.7144
 20
71.7068
 30
0.0000
 11
79.7686
 21
71.6674
 31
0.0000
  0
LINE
  8
20
 10
79.7686
 20
71.6674
 30
0.0000
 11
79.8234
 21
71.6281
 31
0.0000
  0
LINE
  8
20
 10
79.8234
 20
71.6281
 30
0.0000
 11
79.8787
 21
71.5890
 31
0.0000
  0
LINE
  8
20
 10
79.8787
 20
71.5890
 30
0.0000
 11
79.9347
 21
71.5500
 31
0.0000
  0
LINE
  8
20
 10
79.9347
 20
71.5500
 30
0.0000
 11
79.9880
 21
71.5133
 31
0.0000
  0
LINE
  8
20
 10
79.9880
 20
71.5133
 30
0.0000
 11
80.0418
 21
71.4767
 31
0.0000
  0
LINE
  8
20
 10
80.0418
 20
71.4767
 30
0.0000
 11
80.0962
 21
71.4402
 31
0.0000
  0
LINE
  8
20
 10
80.0962
 20
71.4402
 30
0.0000
 11
80.1510
 21
71.4039
 31
0.0000
  0
LINE
  8
20
 10
80.1510
 20
71.4039
 30
0.0000
 11
80.2064
 21
71.3676
 31
0.0000
  0
LINE
  8
20
 10
80.2064
 20
71.3676
 30
0.0000
 11
80.2688
 21
71.3272
 31
0.0000
  0
LINE
  8
20
 10
80.2688
 20
71.3272
 30
0.0000
 11
80.3319
 21
71.2870
 31
0.0000
  0
LINE
  8
20
 10
80.3319
 20
71.2870
 30
0.0000
 11
80.3956
 21
71.2469
 31
0.0000
  0
LINE
  8
20
 10
80.3956
 20
71.2469
 30
0.0000
 11
80.4600
 21
71.2070
 31
0.0000
  0
LINE
  8
20
 10
80.4600
 20
71.2070
 30
0.0000
 11
80.5251
 21
71.1672
 31
0.0000
  0
LINE
  8
20
 10
80.5251
 20
71.1672
 30
0.0000
 11
80.5907
 21
71.1275
 31
0.0000
  0
LINE
  8
20
 10
80.5907
 20
71.1275
 30
0.0000
 11
80.6571
 21
71.0880
 31
0.0000
  0
LINE
  8
20
 10
80.6571
 20
71.0880
 30
0.0000
 11
80.7241
 21
71.0486
 31
0.0000
  0
LINE
  8
20
 10
80.7241
 20
71.0486
 30
0.0000
 11
80.7917
 21
71.0093
 31
0.0000
  0
LINE
  8
20
 10
80.7917
 20
71.0093
 30
0.0000
 11
80.8600
 21
70.9701
 31
0.0000
  0
LINE
  8
20
 10
80.8600
 20
70.9701
 30
0.0000
 11
80.9289
 21
70.9311
 31
0.0000
  0
LINE
  8
20
 10
80.9289
 20
70.9311
 30
0.0000
 11
80.9985
 21
70.8922
 31
0.0000
  0
LINE
  8
20
 10
80.9985
 20
70.8922
 30
0.0000
 11
81.0688
 21
70.8535
 31
0.0000
  0
LINE
  8
20
 10
81.0688
 20
70.8535
 30
0.0000
 11
81.1397
 21
70.8149
 31
0.0000
  0
LINE
  8
20
 10
81.1397
 20
70.8149
 30
0.0000
 11
81.2112
 21
70.7764
 31
0.0000
  0
LINE
  8
20
 10
81.2112
 20
70.7764
 30
0.0000
 11
81.2834
 21
70.7380
 31
0.0000
  0
LINE
  8
20
 10
81.2834
 20
70.7380
 30
0.0000
 11
81.3597
 21
70.6980
 31
0.0000
  0
LINE
  8
20
 10
81.3597
 20
70.6980
 30
0.0000
 11
81.4368
 21
70.6581
 31
0.0000
  0
LINE
  8
20
 10
81.4368
 20
70.6581
 30
0.0000
 11
81.5145
 21
70.6184
 31
0.0000
  0
LINE
  8
20
 10
81.5145
 20
70.6184
 30
0.0000
 11
81.5930
 21
70.5788
 31
0.0000
  0
LINE
  8
20
 10
81.5930
 20
70.5788
 30
0.0000
 11
81.6722
 21
70.5393
 31
0.0000
  0
LINE
  8
20
 10
81.6722
 20
70.5393
 30
0.0000
 11
81.7521
 21
70.5000
 31
0.0000
  0
ENDSEC
  0
EOF
