  0
SECTION
  2
HEADER
  9
$ACADVER
  1
AC1009
  9
$FILLMODE
 70
1
  9
$EXTMIN
 10
-3.0991
 20
4.9009
 30
0.0000
  9
$EXTMAX
 10
40.0991
 20
25.0991
 30
0.0000
  0
ENDSEC
  0
SECTION
  2
TABLES
  0
TABLE
  2
LTYPE
 70
1
  0
LTYPE
  2
CONTINUOUS
 70
64
  3
Solid line
 72
65
 73
0
 40
0
  0
ENDTAB
  0
TABLE
  2
LAYER
 70
255
  0
LAYER
  2
1
 70
64
 62
12
  6
CONTINUOUS
  0
LAYER
  2
16
 70
64
 62
132
  6
CONTINUOUS
  0
LAYER
  2
17
 70
64
 62
110
  6
CONTINUOUS
  0
LAYER
  2
18
 70
64
 62
110
  6
CONTINUOUS
  0
LAYER
  2
19
 70
64
 62
53
  6
CONTINUOUS
  0
LAYER
  2
20
 70
64
 62
31
  6
CONTINUOUS
  0
LAYER
  2
21
 70
64
 62
253
  6
CONTINUOUS
  0
LAYER
  2
22
 70
64
 62
253
  6
CONTINUOUS
  0
LAYER
  2
23
 70
64
 62
53
  6
CONTINUOUS
  0
LAYER
  2
24
 70
64
 62
53
  6
CONTINUOUS
  0
LAYER
  2
25
 70
64
 62
253
  6
CONTINUOUS
  0
LAYER
  2
26
 70
64
 62
253
  6
CONTINUOUS
  0
LAYER
  2
27
 70
64
 62
253
  6
CONTINUOUS
  0
LAYER
  2
28
 70
64
 62
253
  6
CONTINUOUS
  0
LAYER
  2
29
 70
64
 62
253
  6
CONTINUOUS
  0
LAYER
  2
30
 70
64
 62
253
  6
CONTINUOUS
  0
LAYER
  2
31
 70
64
 62
253
  6
CONTINUOUS
  0
LAYER
  2
32
 70
64
 62
253
  6
CONTINUOUS
  0
LAYER
  2
33
 70
64
 62
53
  6
CONTINUOUS
  0
LAYER
  2
34
 70
64
 62
53
  6
CONTINUOUS
  0
LAYER
  2
35
 70
64
 62
253
  6
CONTINUOUS
  0
LAYER
  2
36
 70
64
 62
253
  6
CONTINUOUS
  0
LAYER
  2
37
 70
64
 62
253
  6
CONTINUOUS
  0
LAYER
  2
38
 70
64
 62
253
  6
CONTINUOUS
  0
LAYER
  2
39
 70
64
 62
12
  6
CONTINUOUS
  0
LAYER
  2
40
 70
64
 62
132
  6
CONTINUOUS
  0
LAYER
  2
41
 70
64
 62
12
  6
CONTINUOUS
  0
LAYER
  2
42
 70
64
 62
132
  6
CONTINUOUS
  0
LAYER
  2
43
 70
64
 62
110
  6
CONTINUOUS
  0
LAYER
  2
44
 70
64
 62
253
  6
CONTINUOUS
  0
LAYER
  2
45
 70
64
 62
253
  6
CONTINUOUS
  0
LAYER
  2
46
 70
64
 62
140
  6
CONTINUOUS
  0
LAYER
  2
47
 70
64
 62
253
  6
CONTINUOUS
  0
LAYER
  2
48
 70
64
 62
253
  6
CONTINUOUS
  0
LAYER
  2
49
 70
64
 62
253
  6
CONTINUOUS
  0
LAYER
  2
51
 70
64
 62
253
  6
CONTINUOUS
  0
LAYER
  2
52
 70
64
 62
253
  6
CONTINUOUS
  0
LAYER
  2
101
 70
64
 62
1
  6
CONTINUOUS
  0
LAYER
  2
102
 70
64
 62
253
  6
CONTINUOUS
  0
LAYER
  2
103
 70
64
 62
253
  6
CONTINUOUS
  0
LAYER
  2
104
 70
64
 62
41
  6
CONTINUOUS
  0
LAYER
  2
105
 70
64
 62
253
  6
CONTINUOUS
  0
LAYER
  2
106
 70
64
 62
253
  6
CONTINUOUS
  0
LAYER
  2
107
 70
64
 62
253
  6
CONTINUOUS
  0
LAYER
  2
108
 70
64
 62
3
  6
CONTINUOUS
  0
LAYER
  2
109
 70
64
 62
4
  6
CONTINUOUS
  0
LAYER
  2
110
 70
64
 62
253
  6
CONTINUOUS
  0
LAYER
  2
111
 70
64
 62
253
  6
CONTINUOUS
  0
LAYER
  2
112
 70
64
 62
253
  6
CONTINUOUS
  0
LAYER
  2
113
 70
64
 62
12
  6
CONTINUOUS
  0
LAYER
  2
114
 70
64
 62
253
  6
CONTINUOUS
  0
LAYER
  2
115
 70
64
 62
253
  6
CONTINUOUS
  0
LAYER
  2
116
 70
64
 62
5
  6
CONTINUOUS
  0
LAYER
  2
118
 70
64
 62
253
  6
CONTINUOUS
  0
LAYER
  2
121
 70
64
 62
253
  6
CONTINUOUS
  0
LAYER
  2
122
 70
64
 62
253
  6
CONTINUOUS
  0
LAYER
  2
123
 70
64
 62
253
  6
CONTINUOUS
  0
LAYER
  2
124
 70
64
 62
253
  6
CONTINUOUS
  0
LAYER
  2
125
 70
64
 62
253
  6
CONTINUOUS
  0
LAYER
  2
126
 70
64
 62
253
  6
CONTINUOUS
  0
LAYER
  2
127
 70
64
 62
253
  6
CONTINUOUS
  0
LAYER
  2
128
 70
64
 62
253
  6
CONTINUOUS
  0
LAYER
  2
129
 70
64
 62
253
  6
CONTINUOUS
  0
LAYER
  2
130
 70
64
 62
253
  6
CONTINUOUS
  0
LAYER
  2
131
 70
64
 62
253
  6
CONTINUOUS
  0
LAYER
  2
132
 70
64
 62
253
  6
CONTINUOUS
  0
LAYER
  2
133
 70
64
 62
253
  6
CONTINUOUS
  0
LAYER
  2
134
 70
64
 62
253
  6
CONTINUOUS
  0
LAYER
  2
135
 70
64
 62
253
  6
CONTINUOUS
  0
LAYER
  2
136
 70
64
 62
253
  6
CONTINUOUS
  0
LAYER
  2
137
 70
64
 62
253
  6
CONTINUOUS
  0
LAYER
  2
144
 70
64
 62
253
  6
CONTINUOUS
  0
LAYER
  2
145
 70
64
 62
253
  6
CONTINUOUS
  0
LAYER
  2
146
 70
64
 62
253
  6
CONTINUOUS
  0
LAYER
  2
150
 70
64
 62
253
  6
CONTINUOUS
  0
LAYER
  2
151
 70
64
 62
253
  6
CONTINUOUS
  0
LAYER
  2
152
 70
64
 62
253
  6
CONTINUOUS
  0
LAYER
  2
153
 70
64
 62
253
  6
CONTINUOUS
  0
LAYER
  2
154
 70
64
 62
253
  6
CONTINUOUS
  0
LAYER
  2
155
 70
64
 62
253
  6
CONTINUOUS
  0
LAYER
  2
199
 70
64
 62
253
  6
CONTINUOUS
  0
LAYER
  2
200
 70
64
 62
132
  6
CONTINUOUS
  0
LAYER
  2
201
 70
64
 62
110
  6
CONTINUOUS
  0
LAYER
  2
202
 70
64
 62
140
  6
CONTINUOUS
  0
LAYER
  2
203
 70
64
 62
12
  6
CONTINUOUS
  0
LAYER
  2
204
 70
64
 62
40
  6
CONTINUOUS
  0
LAYER
  2
205
 70
64
 62
53
  6
CONTINUOUS
  0
LAYER
  2
206
 70
64
 62
253
  6
CONTINUOUS
  0
LAYER
  2
207
 70
64
 62
59
  6
CONTINUOUS
  0
LAYER
  2
208
 70
64
 62
5
  6
CONTINUOUS
  0
LAYER
  2
209
 70
64
 62
253
  6
CONTINUOUS
  0
LAYER
  2
210
 70
64
 62
253
  6
CONTINUOUS
  0
LAYER
  2
211
 70
64
 62
253
  6
CONTINUOUS
  0
LAYER
  2
212
 70
64
 62
253
  6
CONTINUOUS
  0
LAYER
  2
213
 70
64
 62
253
  6
CONTINUOUS
  0
LAYER
  2
214
 70
64
 62
253
  6
CONTINUOUS
  0
LAYER
  2
215
 70
64
 62
253
  6
CONTINUOUS
  0
LAYER
  2
216
 70
64
 62
253
  6
CONTINUOUS
  0
LAYER
  2
225
 70
64
 62
253
  6
CONTINUOUS
  0
LAYER
  2
226
 70
64
 62
253
  6
CONTINUOUS
  0
LAYER
  2
227
 70
64
 62
253
  6
CONTINUOUS
  0
LAYER
  2
228
 70
64
 62
253
  6
CONTINUOUS
  0
LAYER
  2
229
 70
64
 62
253
  6
CONTINUOUS
  0
LAYER
  2
230
 70
64
 62
253
  6
CONTINUOUS
  0
LAYER
  2
231
 70
64
 62
253
  6
CONTINUOUS
  0
LAYER
  2
232
 70
64
 62
253
  6
CONTINUOUS
  0
LAYER
  2
233
 70
64
 62
253
  6
CONTINUOUS
  0
LAYER
  2
248
 70
64
 62
253
  6
CONTINUOUS
  0
LAYER
  2
249
 70
64
 62
253
  6
CONTINUOUS
  0
LAYER
  2
254
 70
64
 62
253
  6
CONTINUOUS
  0
LAYER
  2
255
 70
64
 62
253
  6
CONTINUOUS
  0
ENDTAB
  0
ENDSEC
  0
SECTION
  2
BLOCKS
  0
BLOCK
  8
0
  2
RECT
 70
64
 10
0.0000
 20
0.0000
 30
0.0000
  3
RECT
  0
SOLID
  8
0
 10
-0.5000
 20
-0.5000
 30
0.0000
 11
0.5000
 21
-0.5000
 31
0.0000
 12
-0.5000
 22
0.5000
 32
0.0000
 13
0.5000
 23
0.5000
 33
0.0000
  0
ENDBLK
  8
0
  0
BLOCK
  8
0
  2
PIE
 70
64
 10
0.0000
 20
0.0000
 30
0.0000
  3
PIE
  0
POLYLINE
  8
0
 66
1
 10
0.0000
 20
0.0000
 30
0.0000
 40
0.5000
 41
0.5000
 70
0
  0
VERTEX
  8
0
 10
0.0000
 20
-0.2500
 30
0.0000
 42
1.0000
  0
VERTEX
  8
0
 10
0.0000
 20
0.2500
 30
0.0000
 42
1.0000
  0
VERTEX
  8
0
 10
0.0000
 20
-0.2500
 30
0.0000
  0
SEQEND
  8
0
  0
ENDBLK
  8
0
  0
BLOCK
  8
0
  2
OCTAGONP
 70
64
 10
0.0000
 20
0.0000
 30
0.0000
  3
OCTAGONP
  0
POLYLINE
  8
0
 66
1
 10
0.0000
 20
0.0000
 30
0.0000
 40
0.5000
 41
0.5000
 70
0
  0
VERTEX
  8
0
 10
-0.2500
 20
-0.1036
 30
0.0000
  0
VERTEX
  8
0
 10
-0.2500
 20
0.1036
 30
0.0000
  0
VERTEX
  8
0
 10
-0.1036
 20
0.2500
 30
0.0000
  0
VERTEX
  8
0
 10
0.1036
 20
0.2500
 30
0.0000
  0
VERTEX
  8
0
 10
0.2500
 20
0.1036
 30
0.0000
  0
VERTEX
  8
0
 10
0.2500
 20
-0.1036
 30
0.0000
  0
VERTEX
  8
0
 10
0.1036
 20
-0.2500
 30
0.0000
  0
VERTEX
  8
0
 10
-0.1036
 20
-0.2500
 30
0.0000
  0
VERTEX
  8
0
 10
-0.2500
 20
-0.1036
 30
0.0000
  0
VERTEX
  8
0
 10
-0.2500
 20
0.1036
 30
0.0000
  0
SEQEND
  8
0
  0
ENDBLK
  8
0
  0
BLOCK
  8
0
  2
SQUAREP
 70
64
 10
0.0000
 20
0.0000
 30
0.0000
  3
SQUAREP
  0
SOLID
  8
0
 10
-0.5000
 20
-0.5000
 30
0.0000
 11
0.5000
 21
-0.5000
 31
0.0000
 12
-0.5000
 22
0.5000
 32
0.0000
 13
0.5000
 23
0.5000
 33
0.0000
  0
ENDBLK
  8
0
  0
BLOCK
  8
0
  2
ROUNDP
 70
64
 10
0.0000
 20
0.0000
 30
0.0000
  3
ROUNDP
  0
POLYLINE
  8
0
 66
1
 10
0.0000
 20
0.0000
 30
0.0000
 40
0.5000
 41
0.5000
 70
0
  0
VERTEX
  8
0
 10
0.0000
 20
-0.2500
 30
0.0000
 42
1.0000
  0
VERTEX
  8
0
 10
0.0000
 20
0.2500
 30
0.0000
 42
1.0000
  0
VERTEX
  8
0
 10
0.0000
 20
-0.2500
 30
0.0000
  0
SEQEND
  8
0
  0
ENDBLK
  8
0
  0
BLOCK
  8
0
  2
ANNULUSP
 70
64
 10
0.0000
 20
0.0000
 30
0.0000
  3
ANNULUSP
  0
POLYLINE
  8
0
 66
1
 10
0.0000
 20
0.0000
 30
0.0000
 40
0.5000
 41
0.5000
 70
0
  0
VERTEX
  8
0
 10
0.0000
 20
-0.2500
 30
0.0000
 42
1.0000
  0
VERTEX
  8
0
 10
0.0000
 20
0.2500
 30
0.0000
 42
1.0000
  0
VERTEX
  8
0
 10
0.0000
 20
-0.2500
 30
0.0000
  0
SEQEND
  8
0
  0
ENDBLK
  8
0
  0
BLOCK
  8
0
  2
THERMALP
 70
64
 10
0.0000
 20
0.0000
 30
0.0000
  3
THERMALP
  0
POLYLINE
  8
0
 66
1
 10
0.0000
 20
0.0000
 30
0.0000
 40
0.1000
 41
0.1000
 70
0
  0
VERTEX
  8
0
 10
-0.2379
 20
0.4500
 30
0.0000
  0
VERTEX
  8
0
 10
0.2379
 20
0.4500
 30
0.0000
  0
SEQEND
  8
0
  0
POLYLINE
  8
0
 66
1
 10
0.0000
 20
0.0000
 30
0.0000
 40
0.0500
 41
0.0500
 70
0
  0
VERTEX
  8
0
 10
0.2379
 20
0.4250
 30
0.0000
 42
1.0000
  0
VERTEX
  8
0
 10
0.2379
 20
0.4750
 30
0.0000
  0
SEQEND
  8
0
  0
POLYLINE
  8
0
 66
1
 10
0.0000
 20
0.0000
 30
0.0000
 40
0.0500
 41
0.0500
 70
0
  0
VERTEX
  8
0
 10
-0.2379
 20
0.4750
 30
0.0000
 42
1.0000
  0
VERTEX
  8
0
 10
-0.2379
 20
0.4250
 30
0.0000
  0
SEQEND
  8
0
  0
POLYLINE
  8
0
 66
1
 10
0.0000
 20
0.0000
 30
0.0000
 40
0.1000
 41
0.1000
 70
0
  0
VERTEX
  8
0
 10
0.4500
 20
0.2379
 30
0.0000
  0
VERTEX
  8
0
 10
0.4500
 20
-0.2379
 30
0.0000
  0
SEQEND
  8
0
  0
POLYLINE
  8
0
 66
1
 10
0.0000
 20
0.0000
 30
0.0000
 40
0.0500
 41
0.0500
 70
0
  0
VERTEX
  8
0
 10
0.4250
 20
-0.2379
 30
0.0000
 42
1.0000
  0
VERTEX
  8
0
 10
0.4750
 20
-0.2379
 30
0.0000
  0
SEQEND
  8
0
  0
POLYLINE
  8
0
 66
1
 10
0.0000
 20
0.0000
 30
0.0000
 40
0.0500
 41
0.0500
 70
0
  0
VERTEX
  8
0
 10
0.4750
 20
0.2379
 30
0.0000
 42
1.0000
  0
VERTEX
  8
0
 10
0.4250
 20
0.2379
 30
0.0000
  0
SEQEND
  8
0
  0
POLYLINE
  8
0
 66
1
 10
0.0000
 20
0.0000
 30
0.0000
 40
0.1000
 41
0.1000
 70
0
  0
VERTEX
  8
0
 10
0.2379
 20
-0.4500
 30
0.0000
  0
VERTEX
  8
0
 10
-0.2379
 20
-0.4500
 30
0.0000
  0
SEQEND
  8
0
  0
POLYLINE
  8
0
 66
1
 10
0.0000
 20
0.0000
 30
0.0000
 40
0.0500
 41
0.0500
 70
0
  0
VERTEX
  8
0
 10
-0.2379
 20
-0.4250
 30
0.0000
 42
1.0000
  0
VERTEX
  8
0
 10
-0.2379
 20
-0.4750
 30
0.0000
  0
SEQEND
  8
0
  0
POLYLINE
  8
0
 66
1
 10
0.0000
 20
0.0000
 30
0.0000
 40
0.0500
 41
0.0500
 70
0
  0
VERTEX
  8
0
 10
0.2379
 20
-0.4750
 30
0.0000
 42
1.0000
  0
VERTEX
  8
0
 10
0.2379
 20
-0.4250
 30
0.0000
  0
SEQEND
  8
0
  0
POLYLINE
  8
0
 66
1
 10
0.0000
 20
0.0000
 30
0.0000
 40
0.1000
 41
0.1000
 70
0
  0
VERTEX
  8
0
 10
-0.4500
 20
-0.2379
 30
0.0000
  0
VERTEX
  8
0
 10
-0.4500
 20
0.2379
 30
0.0000
  0
SEQEND
  8
0
  0
POLYLINE
  8
0
 66
1
 10
0.0000
 20
0.0000
 30
0.0000
 40
0.0500
 41
0.0500
 70
0
  0
VERTEX
  8
0
 10
-0.4250
 20
0.2379
 30
0.0000
 42
1.0000
  0
VERTEX
  8
0
 10
-0.4750
 20
0.2379
 30
0.0000
  0
SEQEND
  8
0
  0
POLYLINE
  8
0
 66
1
 10
0.0000
 20
0.0000
 30
0.0000
 40
0.0500
 41
0.0500
 70
0
  0
VERTEX
  8
0
 10
-0.4750
 20
-0.2379
 30
0.0000
 42
1.0000
  0
VERTEX
  8
0
 10
-0.4250
 20
-0.2379
 30
0.0000
  0
SEQEND
  8
0
  0
ENDBLK
  8
0
  0
BLOCK
  8
0
  2
OCTAGONV
 70
64
 10
0.0000
 20
0.0000
 30
0.0000
  3
OCTAGONV
  0
POLYLINE
  8
0
 66
1
 10
0.0000
 20
0.0000
 30
0.0000
 40
0.5000
 41
0.5000
 70
0
  0
VERTEX
  8
0
 10
-0.2500
 20
-0.1036
 30
0.0000
  0
VERTEX
  8
0
 10
-0.2500
 20
0.1036
 30
0.0000
  0
VERTEX
  8
0
 10
-0.1036
 20
0.2500
 30
0.0000
  0
VERTEX
  8
0
 10
0.1036
 20
0.2500
 30
0.0000
  0
VERTEX
  8
0
 10
0.2500
 20
0.1036
 30
0.0000
  0
VERTEX
  8
0
 10
0.2500
 20
-0.1036
 30
0.0000
  0
VERTEX
  8
0
 10
0.1036
 20
-0.2500
 30
0.0000
  0
VERTEX
  8
0
 10
-0.1036
 20
-0.2500
 30
0.0000
  0
VERTEX
  8
0
 10
-0.2500
 20
-0.1036
 30
0.0000
  0
VERTEX
  8
0
 10
-0.2500
 20
0.1036
 30
0.0000
  0
SEQEND
  8
0
  0
ENDBLK
  8
0
  0
BLOCK
  8
0
  2
SQUAREV
 70
64
 10
0.0000
 20
0.0000
 30
0.0000
  3
SQUAREV
  0
SOLID
  8
0
 10
-0.5000
 20
-0.5000
 30
0.0000
 11
0.5000
 21
-0.5000
 31
0.0000
 12
-0.5000
 22
0.5000
 32
0.0000
 13
0.5000
 23
0.5000
 33
0.0000
  0
ENDBLK
  8
0
  0
BLOCK
  8
0
  2
ROUNDV
 70
64
 10
0.0000
 20
0.0000
 30
0.0000
  3
ROUNDV
  0
POLYLINE
  8
0
 66
1
 10
0.0000
 20
0.0000
 30
0.0000
 40
0.5000
 41
0.5000
 70
0
  0
VERTEX
  8
0
 10
0.0000
 20
-0.2500
 30
0.0000
 42
1.0000
  0
VERTEX
  8
0
 10
0.0000
 20
0.2500
 30
0.0000
 42
1.0000
  0
VERTEX
  8
0
 10
0.0000
 20
-0.2500
 30
0.0000
  0
SEQEND
  8
0
  0
ENDBLK
  8
0
  0
BLOCK
  8
0
  2
ANNULUSV
 70
64
 10
0.0000
 20
0.0000
 30
0.0000
  3
ANNULUSV
  0
POLYLINE
  8
0
 66
1
 10
0.0000
 20
0.0000
 30
0.0000
 40
0.5000
 41
0.5000
 70
0
  0
VERTEX
  8
0
 10
0.0000
 20
-0.2500
 30
0.0000
 42
1.0000
  0
VERTEX
  8
0
 10
0.0000
 20
0.2500
 30
0.0000
 42
1.0000
  0
VERTEX
  8
0
 10
0.0000
 20
-0.2500
 30
0.0000
  0
SEQEND
  8
0
  0
ENDBLK
  8
0
  0
BLOCK
  8
0
  2
THERMALV
 70
64
 10
0.0000
 20
0.0000
 30
0.0000
  3
THERMALV
  0
POLYLINE
  8
0
 66
1
 10
0.0000
 20
0.0000
 30
0.0000
 40
0.1000
 41
0.1000
 70
0
  0
VERTEX
  8
0
 10
-0.2379
 20
0.4500
 30
0.0000
  0
VERTEX
  8
0
 10
0.2379
 20
0.4500
 30
0.0000
  0
SEQEND
  8
0
  0
POLYLINE
  8
0
 66
1
 10
0.0000
 20
0.0000
 30
0.0000
 40
0.0500
 41
0.0500
 70
0
  0
VERTEX
  8
0
 10
0.2379
 20
0.4250
 30
0.0000
 42
1.0000
  0
VERTEX
  8
0
 10
0.2379
 20
0.4750
 30
0.0000
  0
SEQEND
  8
0
  0
POLYLINE
  8
0
 66
1
 10
0.0000
 20
0.0000
 30
0.0000
 40
0.0500
 41
0.0500
 70
0
  0
VERTEX
  8
0
 10
-0.2379
 20
0.4750
 30
0.0000
 42
1.0000
  0
VERTEX
  8
0
 10
-0.2379
 20
0.4250
 30
0.0000
  0
SEQEND
  8
0
  0
POLYLINE
  8
0
 66
1
 10
0.0000
 20
0.0000
 30
0.0000
 40
0.1000
 41
0.1000
 70
0
  0
VERTEX
  8
0
 10
0.4500
 20
0.2379
 30
0.0000
  0
VERTEX
  8
0
 10
0.4500
 20
-0.2379
 30
0.0000
  0
SEQEND
  8
0
  0
POLYLINE
  8
0
 66
1
 10
0.0000
 20
0.0000
 30
0.0000
 40
0.0500
 41
0.0500
 70
0
  0
VERTEX
  8
0
 10
0.4250
 20
-0.2379
 30
0.0000
 42
1.0000
  0
VERTEX
  8
0
 10
0.4750
 20
-0.2379
 30
0.0000
  0
SEQEND
  8
0
  0
POLYLINE
  8
0
 66
1
 10
0.0000
 20
0.0000
 30
0.0000
 40
0.0500
 41
0.0500
 70
0
  0
VERTEX
  8
0
 10
0.4750
 20
0.2379
 30
0.0000
 42
1.0000
  0
VERTEX
  8
0
 10
0.4250
 20
0.2379
 30
0.0000
  0
SEQEND
  8
0
  0
POLYLINE
  8
0
 66
1
 10
0.0000
 20
0.0000
 30
0.0000
 40
0.1000
 41
0.1000
 70
0
  0
VERTEX
  8
0
 10
0.2379
 20
-0.4500
 30
0.0000
  0
VERTEX
  8
0
 10
-0.2379
 20
-0.4500
 30
0.0000
  0
SEQEND
  8
0
  0
POLYLINE
  8
0
 66
1
 10
0.0000
 20
0.0000
 30
0.0000
 40
0.0500
 41
0.0500
 70
0
  0
VERTEX
  8
0
 10
-0.2379
 20
-0.4250
 30
0.0000
 42
1.0000
  0
VERTEX
  8
0
 10
-0.2379
 20
-0.4750
 30
0.0000
  0
SEQEND
  8
0
  0
POLYLINE
  8
0
 66
1
 10
0.0000
 20
0.0000
 30
0.0000
 40
0.0500
 41
0.0500
 70
0
  0
VERTEX
  8
0
 10
0.2379
 20
-0.4750
 30
0.0000
 42
1.0000
  0
VERTEX
  8
0
 10
0.2379
 20
-0.4250
 30
0.0000
  0
SEQEND
  8
0
  0
POLYLINE
  8
0
 66
1
 10
0.0000
 20
0.0000
 30
0.0000
 40
0.1000
 41
0.1000
 70
0
  0
VERTEX
  8
0
 10
-0.4500
 20
-0.2379
 30
0.0000
  0
VERTEX
  8
0
 10
-0.4500
 20
0.2379
 30
0.0000
  0
SEQEND
  8
0
  0
POLYLINE
  8
0
 66
1
 10
0.0000
 20
0.0000
 30
0.0000
 40
0.0500
 41
0.0500
 70
0
  0
VERTEX
  8
0
 10
-0.4250
 20
0.2379
 30
0.0000
 42
1.0000
  0
VERTEX
  8
0
 10
-0.4750
 20
0.2379
 30
0.0000
  0
SEQEND
  8
0
  0
POLYLINE
  8
0
 66
1
 10
0.0000
 20
0.0000
 30
0.0000
 40
0.0500
 41
0.0500
 70
0
  0
VERTEX
  8
0
 10
-0.4750
 20
-0.2379
 30
0.0000
 42
1.0000
  0
VERTEX
  8
0
 10
-0.4250
 20
-0.2379
 30
0.0000
  0
SEQEND
  8
0
  0
ENDBLK
  8
0
  0
ENDSEC
  0
SECTION
  2
ENTITIES
  0
POLYLINE
  8
20
 66
1
 10
0.0000
 20
0.0000
 30
0.0000
 40
0.1524
 41
0.1524
 70
0
  0
VERTEX
  8
20
 10
-3.0000
 20
25.0000
 30
0.0000
  0
VERTEX
  8
20
 10
40.0000
 20
25.0000
 30
0.0000
  0
SEQEND
  8
0
  0
POLYLINE
  8
20
 66
1
 10
0.0000
 20
0.0000
 30
0.0000
 40
0.0762
 41
0.0762
 70
0
  0
VERTEX
  8
20
 10
40.0000
 20
24.9619
 30
0.0000
 42
1.0000
  0
VERTEX
  8
20
 10
40.0000
 20
25.0381
 30
0.0000
  0
SEQEND
  8
0
  0
POLYLINE
  8
20
 66
1
 10
0.0000
 20
0.0000
 30
0.0000
 40
0.0762
 41
0.0762
 70
0
  0
VERTEX
  8
20
 10
-3.0000
 20
25.0381
 30
0.0000
 42
1.0000
  0
VERTEX
  8
20
 10
-3.0000
 20
24.9619
 30
0.0000
  0
SEQEND
  8
0
  0
POLYLINE
  8
20
 66
1
 10
0.0000
 20
0.0000
 30
0.0000
 40
0.1524
 41
0.1524
 70
0
  0
VERTEX
  8
20
 10
40.0000
 20
25.0000
 30
0.0000
  0
VERTEX
  8
20
 10
40.0000
 20
5.0000
 30
0.0000
  0
SEQEND
  8
0
  0
POLYLINE
  8
20
 66
1
 10
0.0000
 20
0.0000
 30
0.0000
 40
0.0762
 41
0.0762
 70
0
  0
VERTEX
  8
20
 10
39.9619
 20
5.0000
 30
0.0000
 42
1.0000
  0
VERTEX
  8
20
 10
40.0381
 20
5.0000
 30
0.0000
  0
SEQEND
  8
0
  0
POLYLINE
  8
20
 66
1
 10
0.0000
 20
0.0000
 30
0.0000
 40
0.0762
 41
0.0762
 70
0
  0
VERTEX
  8
20
 10
40.0381
 20
25.0000
 30
0.0000
 42
1.0000
  0
VERTEX
  8
20
 10
39.9619
 20
25.0000
 30
0.0000
  0
SEQEND
  8
0
  0
POLYLINE
  8
20
 66
1
 10
0.0000
 20
0.0000
 30
0.0000
 40
0.1524
 41
0.1524
 70
0
  0
VERTEX
  8
20
 10
40.0000
 20
5.0000
 30
0.0000
  0
VERTEX
  8
20
 10
-3.0000
 20
5.0000
 30
0.0000
  0
SEQEND
  8
0
  0
POLYLINE
  8
20
 66
1
 10
0.0000
 20
0.0000
 30
0.0000
 40
0.0762
 41
0.0762
 70
0
  0
VERTEX
  8
20
 10
-3.0000
 20
5.0381
 30
0.0000
 42
1.0000
  0
VERTEX
  8
20
 10
-3.0000
 20
4.9619
 30
0.0000
  0
SEQEND
  8
0
  0
POLYLINE
  8
20
 66
1
 10
0.0000
 20
0.0000
 30
0.0000
 40
0.0762
 41
0.0762
 70
0
  0
VERTEX
  8
20
 10
40.0000
 20
4.9619
 30
0.0000
 42
1.0000
  0
VERTEX
  8
20
 10
40.0000
 20
5.0381
 30
0.0000
  0
SEQEND
  8
0
  0
POLYLINE
  8
20
 66
1
 10
0.0000
 20
0.0000
 30
0.0000
 40
0.1524
 41
0.1524
 70
0
  0
VERTEX
  8
20
 10
-3.0000
 20
5.0000
 30
0.0000
  0
VERTEX
  8
20
 10
-3.0000
 20
25.0000
 30
0.0000
  0
SEQEND
  8
0
  0
POLYLINE
  8
20
 66
1
 10
0.0000
 20
0.0000
 30
0.0000
 40
0.0762
 41
0.0762
 70
0
  0
VERTEX
  8
20
 10
-2.9619
 20
25.0000
 30
0.0000
 42
1.0000
  0
VERTEX
  8
20
 10
-3.0381
 20
25.0000
 30
0.0000
  0
SEQEND
  8
0
  0
POLYLINE
  8
20
 66
1
 10
0.0000
 20
0.0000
 30
0.0000
 40
0.0762
 41
0.0762
 70
0
  0
VERTEX
  8
20
 10
-3.0381
 20
5.0000
 30
0.0000
 42
1.0000
  0
VERTEX
  8
20
 10
-2.9619
 20
5.0000
 30
0.0000
  0
SEQEND
  8
0
  0
POLYLINE
  8
48
 66
1
 10
0.0000
 20
0.0000
 30
0.0000
 40
0.0010
 41
0.0010
 70
0
  0
VERTEX
  8
48
 10
14.7000
 20
5.0000
 30
0.0000
  0
VERTEX
  8
48
 10
14.7381
 20
5.0000
 30
0.0000
  0
SEQEND
  8
0
  0
POLYLINE
  8
48
 66
1
 10
0.0000
 20
0.0000
 30
0.0000
 40
0.0005
 41
0.0005
 70
0
  0
VERTEX
  8
48
 10
14.7381
 20
4.9997
 30
0.0000
 42
1.0000
  0
VERTEX
  8
48
 10
14.7381
 20
5.0003
 30
0.0000
  0
SEQEND
  8
0
  0
POLYLINE
  8
48
 66
1
 10
0.0000
 20
0.0000
 30
0.0000
 40
0.0005
 41
0.0005
 70
0
  0
VERTEX
  8
48
 10
14.7000
 20
5.0003
 30
0.0000
 42
1.0000
  0
VERTEX
  8
48
 10
14.7000
 20
4.9997
 30
0.0000
  0
SEQEND
  8
0
  0
POLYLINE
  8
48
 66
1
 10
0.0000
 20
0.0000
 30
0.0000
 40
0.0010
 41
0.0010
 70
0
  0
VERTEX
  8
48
 10
14.7381
 20
5.0000
 30
0.0000
  0
VERTEX
  8
48
 10
31.6619
 20
5.0000
 30
0.0000
  0
SEQEND
  8
0
  0
POLYLINE
  8
48
 66
1
 10
0.0000
 20
0.0000
 30
0.0000
 40
0.0005
 41
0.0005
 70
0
  0
VERTEX
  8
48
 10
31.6619
 20
4.9997
 30
0.0000
 42
1.0000
  0
VERTEX
  8
48
 10
31.6619
 20
5.0003
 30
0.0000
  0
SEQEND
  8
0
  0
POLYLINE
  8
48
 66
1
 10
0.0000
 20
0.0000
 30
0.0000
 40
0.0005
 41
0.0005
 70
0
  0
VERTEX
  8
48
 10
14.7381
 20
5.0003
 30
0.0000
 42
1.0000
  0
VERTEX
  8
48
 10
14.7381
 20
4.9997
 30
0.0000
  0
SEQEND
  8
0
  0
POLYLINE
  8
48
 66
1
 10
0.0000
 20
0.0000
 30
0.0000
 40
0.0010
 41
0.0010
 70
0
  0
VERTEX
  8
48
 10
31.6619
 20
5.0000
 30
0.0000
  0
VERTEX
  8
48
 10
31.7000
 20
5.0000
 30
0.0000
  0
SEQEND
  8
0
  0
POLYLINE
  8
48
 66
1
 10
0.0000
 20
0.0000
 30
0.0000
 40
0.0005
 41
0.0005
 70
0
  0
VERTEX
  8
48
 10
31.7000
 20
4.9997
 30
0.0000
 42
1.0000
  0
VERTEX
  8
48
 10
31.7000
 20
5.0003
 30
0.0000
  0
SEQEND
  8
0
  0
POLYLINE
  8
48
 66
1
 10
0.0000
 20
0.0000
 30
0.0000
 40
0.0005
 41
0.0005
 70
0
  0
VERTEX
  8
48
 10
31.6619
 20
5.0003
 30
0.0000
 42
1.0000
  0
VERTEX
  8
48
 10
31.6619
 20
4.9997
 30
0.0000
  0
SEQEND
  8
0
  0
POLYLINE
  8
48
 66
1
 10
0.0000
 20
0.0000
 30
0.0000
 40
0.0010
 41
0.0010
 70
0
  0
VERTEX
  8
48
 10
31.7000
 20
4.9619
 30
0.0000
 42
0.4142
  0
VERTEX
  8
48
 10
31.7381
 20
5.0000
 30
0.0000
  0
SEQEND
  8
0
  0
POLYLINE
  8
48
 66
1
 10
0.0000
 20
0.0000
 30
0.0000
 40
0.0005
 41
0.0005
 70
0
  0
VERTEX
  8
48
 10
31.7000
 20
4.9622
 30
0.0000
 42
1.0000
  0
VERTEX
  8
48
 10
31.7000
 20
4.9616
 30
0.0000
  0
SEQEND
  8
0
  0
POLYLINE
  8
48
 66
1
 10
0.0000
 20
0.0000
 30
0.0000
 40
0.0005
 41
0.0005
 70
0
  0
VERTEX
  8
48
 10
31.7384
 20
5.0000
 30
0.0000
 42
1.0000
  0
VERTEX
  8
48
 10
31.7379
 20
5.0000
 30
0.0000
  0
SEQEND
  8
0
  0
POLYLINE
  8
48
 66
1
 10
0.0000
 20
0.0000
 30
0.0000
 40
0.0010
 41
0.0010
 70
0
  0
VERTEX
  8
48
 10
31.7381
 20
5.0000
 30
0.0000
 42
0.4142
  0
VERTEX
  8
48
 10
31.7000
 20
5.0381
 30
0.0000
  0
SEQEND
  8
0
  0
POLYLINE
  8
48
 66
1
 10
0.0000
 20
0.0000
 30
0.0000
 40
0.0005
 41
0.0005
 70
0
  0
VERTEX
  8
48
 10
31.7379
 20
5.0000
 30
0.0000
 42
1.0000
  0
VERTEX
  8
48
 10
31.7384
 20
5.0000
 30
0.0000
  0
SEQEND
  8
0
  0
POLYLINE
  8
48
 66
1
 10
0.0000
 20
0.0000
 30
0.0000
 40
0.0005
 41
0.0005
 70
0
  0
VERTEX
  8
48
 10
31.7000
 20
5.0384
 30
0.0000
 42
1.0000
  0
VERTEX
  8
48
 10
31.7000
 20
5.0378
 30
0.0000
  0
SEQEND
  8
0
  0
POLYLINE
  8
48
 66
1
 10
0.0000
 20
0.0000
 30
0.0000
 40
0.0010
 41
0.0010
 70
0
  0
VERTEX
  8
48
 10
14.7000
 20
5.0381
 30
0.0000
 42
0.4142
  0
VERTEX
  8
48
 10
14.6619
 20
5.0000
 30
0.0000
  0
SEQEND
  8
0
  0
POLYLINE
  8
48
 66
1
 10
0.0000
 20
0.0000
 30
0.0000
 40
0.0005
 41
0.0005
 70
0
  0
VERTEX
  8
48
 10
14.7000
 20
5.0378
 30
0.0000
 42
1.0000
  0
VERTEX
  8
48
 10
14.7000
 20
5.0384
 30
0.0000
  0
SEQEND
  8
0
  0
POLYLINE
  8
48
 66
1
 10
0.0000
 20
0.0000
 30
0.0000
 40
0.0005
 41
0.0005
 70
0
  0
VERTEX
  8
48
 10
14.6617
 20
5.0000
 30
0.0000
 42
1.0000
  0
VERTEX
  8
48
 10
14.6622
 20
5.0000
 30
0.0000
  0
SEQEND
  8
0
  0
POLYLINE
  8
48
 66
1
 10
0.0000
 20
0.0000
 30
0.0000
 40
0.0010
 41
0.0010
 70
0
  0
VERTEX
  8
48
 10
14.6619
 20
5.0000
 30
0.0000
 42
0.4142
  0
VERTEX
  8
48
 10
14.7000
 20
4.9619
 30
0.0000
  0
SEQEND
  8
0
  0
POLYLINE
  8
48
 66
1
 10
0.0000
 20
0.0000
 30
0.0000
 40
0.0005
 41
0.0005
 70
0
  0
VERTEX
  8
48
 10
14.6622
 20
5.0000
 30
0.0000
 42
1.0000
  0
VERTEX
  8
48
 10
14.6617
 20
5.0000
 30
0.0000
  0
SEQEND
  8
0
  0
POLYLINE
  8
48
 66
1
 10
0.0000
 20
0.0000
 30
0.0000
 40
0.0005
 41
0.0005
 70
0
  0
VERTEX
  8
48
 10
14.7000
 20
4.9616
 30
0.0000
 42
1.0000
  0
VERTEX
  8
48
 10
14.7000
 20
4.9622
 30
0.0000
  0
SEQEND
  8
0
  0
POLYLINE
  8
48
 66
1
 10
0.0000
 20
0.0000
 30
0.0000
 40
0.0010
 41
0.0010
 70
0
  0
VERTEX
  8
48
 10
31.7000
 20
5.0000
 30
0.0000
  0
VERTEX
  8
48
 10
31.7000
 20
17.9619
 30
0.0000
  0
SEQEND
  8
0
  0
POLYLINE
  8
48
 66
1
 10
0.0000
 20
0.0000
 30
0.0000
 40
0.0005
 41
0.0005
 70
0
  0
VERTEX
  8
48
 10
31.7003
 20
17.9619
 30
0.0000
 42
1.0000
  0
VERTEX
  8
48
 10
31.6998
 20
17.9619
 30
0.0000
  0
SEQEND
  8
0
  0
POLYLINE
  8
48
 66
1
 10
0.0000
 20
0.0000
 30
0.0000
 40
0.0005
 41
0.0005
 70
0
  0
VERTEX
  8
48
 10
31.6998
 20
5.0000
 30
0.0000
 42
1.0000
  0
VERTEX
  8
48
 10
31.7003
 20
5.0000
 30
0.0000
  0
SEQEND
  8
0
  0
POLYLINE
  8
48
 66
1
 10
0.0000
 20
0.0000
 30
0.0000
 40
0.0010
 41
0.0010
 70
0
  0
VERTEX
  8
48
 10
31.7000
 20
17.9619
 30
0.0000
  0
VERTEX
  8
48
 10
31.7000
 20
18.0000
 30
0.0000
  0
SEQEND
  8
0
  0
POLYLINE
  8
48
 66
1
 10
0.0000
 20
0.0000
 30
0.0000
 40
0.0005
 41
0.0005
 70
0
  0
VERTEX
  8
48
 10
31.7003
 20
18.0000
 30
0.0000
 42
1.0000
  0
VERTEX
  8
48
 10
31.6998
 20
18.0000
 30
0.0000
  0
SEQEND
  8
0
  0
POLYLINE
  8
48
 66
1
 10
0.0000
 20
0.0000
 30
0.0000
 40
0.0005
 41
0.0005
 70
0
  0
VERTEX
  8
48
 10
31.6998
 20
17.9619
 30
0.0000
 42
1.0000
  0
VERTEX
  8
48
 10
31.7003
 20
17.9619
 30
0.0000
  0
SEQEND
  8
0
  0
POLYLINE
  8
48
 66
1
 10
0.0000
 20
0.0000
 30
0.0000
 40
0.0010
 41
0.0010
 70
0
  0
VERTEX
  8
48
 10
31.7381
 20
18.0000
 30
0.0000
 42
0.4142
  0
VERTEX
  8
48
 10
31.7000
 20
18.0381
 30
0.0000
  0
SEQEND
  8
0
  0
POLYLINE
  8
48
 66
1
 10
0.0000
 20
0.0000
 30
0.0000
 40
0.0005
 41
0.0005
 70
0
  0
VERTEX
  8
48
 10
31.7379
 20
18.0000
 30
0.0000
 42
1.0000
  0
VERTEX
  8
48
 10
31.7384
 20
18.0000
 30
0.0000
  0
SEQEND
  8
0
  0
POLYLINE
  8
48
 66
1
 10
0.0000
 20
0.0000
 30
0.0000
 40
0.0005
 41
0.0005
 70
0
  0
VERTEX
  8
48
 10
31.7000
 20
18.0384
 30
0.0000
 42
1.0000
  0
VERTEX
  8
48
 10
31.7000
 20
18.0378
 30
0.0000
  0
SEQEND
  8
0
  0
POLYLINE
  8
48
 66
1
 10
0.0000
 20
0.0000
 30
0.0000
 40
0.0010
 41
0.0010
 70
0
  0
VERTEX
  8
48
 10
31.7000
 20
18.0381
 30
0.0000
 42
0.4142
  0
VERTEX
  8
48
 10
31.6619
 20
18.0000
 30
0.0000
  0
SEQEND
  8
0
  0
POLYLINE
  8
48
 66
1
 10
0.0000
 20
0.0000
 30
0.0000
 40
0.0005
 41
0.0005
 70
0
  0
VERTEX
  8
48
 10
31.7000
 20
18.0378
 30
0.0000
 42
1.0000
  0
VERTEX
  8
48
 10
31.7000
 20
18.0384
 30
0.0000
  0
SEQEND
  8
0
  0
POLYLINE
  8
48
 66
1
 10
0.0000
 20
0.0000
 30
0.0000
 40
0.0005
 41
0.0005
 70
0
  0
VERTEX
  8
48
 10
31.6617
 20
18.0000
 30
0.0000
 42
1.0000
  0
VERTEX
  8
48
 10
31.6622
 20
18.0000
 30
0.0000
  0
SEQEND
  8
0
  0
POLYLINE
  8
48
 66
1
 10
0.0000
 20
0.0000
 30
0.0000
 40
0.0010
 41
0.0010
 70
0
  0
VERTEX
  8
48
 10
31.6619
 20
5.0000
 30
0.0000
 42
1.0000
  0
VERTEX
  8
48
 10
31.7381
 20
5.0000
 30
0.0000
  0
SEQEND
  8
0
  0
POLYLINE
  8
48
 66
1
 10
0.0000
 20
0.0000
 30
0.0000
 40
0.0005
 41
0.0005
 70
0
  0
VERTEX
  8
48
 10
31.6622
 20
5.0000
 30
0.0000
 42
1.0000
  0
VERTEX
  8
48
 10
31.6617
 20
5.0000
 30
0.0000
  0
SEQEND
  8
0
  0
POLYLINE
  8
48
 66
1
 10
0.0000
 20
0.0000
 30
0.0000
 40
0.0005
 41
0.0005
 70
0
  0
VERTEX
  8
48
 10
31.7384
 20
5.0000
 30
0.0000
 42
1.0000
  0
VERTEX
  8
48
 10
31.7379
 20
5.0000
 30
0.0000
  0
SEQEND
  8
0
  0
POLYLINE
  8
48
 66
1
 10
0.0000
 20
0.0000
 30
0.0000
 40
0.0010
 41
0.0010
 70
0
  0
VERTEX
  8
48
 10
31.7000
 20
18.0000
 30
0.0000
  0
VERTEX
  8
48
 10
14.7381
 20
18.0000
 30
0.0000
  0
SEQEND
  8
0
  0
POLYLINE
  8
48
 66
1
 10
0.0000
 20
0.0000
 30
0.0000
 40
0.0005
 41
0.0005
 70
0
  0
VERTEX
  8
48
 10
14.7381
 20
18.0003
 30
0.0000
 42
1.0000
  0
VERTEX
  8
48
 10
14.7381
 20
17.9997
 30
0.0000
  0
SEQEND
  8
0
  0
POLYLINE
  8
48
 66
1
 10
0.0000
 20
0.0000
 30
0.0000
 40
0.0005
 41
0.0005
 70
0
  0
VERTEX
  8
48
 10
31.7000
 20
17.9997
 30
0.0000
 42
1.0000
  0
VERTEX
  8
48
 10
31.7000
 20
18.0003
 30
0.0000
  0
SEQEND
  8
0
  0
POLYLINE
  8
48
 66
1
 10
0.0000
 20
0.0000
 30
0.0000
 40
0.0010
 41
0.0010
 70
0
  0
VERTEX
  8
48
 10
14.7381
 20
18.0000
 30
0.0000
  0
VERTEX
  8
48
 10
14.7000
 20
18.0000
 30
0.0000
  0
SEQEND
  8
0
  0
POLYLINE
  8
48
 66
1
 10
0.0000
 20
0.0000
 30
0.0000
 40
0.0005
 41
0.0005
 70
0
  0
VERTEX
  8
48
 10
14.7000
 20
18.0003
 30
0.0000
 42
1.0000
  0
VERTEX
  8
48
 10
14.7000
 20
17.9997
 30
0.0000
  0
SEQEND
  8
0
  0
POLYLINE
  8
48
 66
1
 10
0.0000
 20
0.0000
 30
0.0000
 40
0.0005
 41
0.0005
 70
0
  0
VERTEX
  8
48
 10
14.7381
 20
17.9997
 30
0.0000
 42
1.0000
  0
VERTEX
  8
48
 10
14.7381
 20
18.0003
 30
0.0000
  0
SEQEND
  8
0
  0
POLYLINE
  8
48
 66
1
 10
0.0000
 20
0.0000
 30
0.0000
 40
0.0010
 41
0.0010
 70
0
  0
VERTEX
  8
48
 10
14.7000
 20
18.0381
 30
0.0000
 42
0.4142
  0
VERTEX
  8
48
 10
14.6619
 20
18.0000
 30
0.0000
  0
SEQEND
  8
0
  0
POLYLINE
  8
48
 66
1
 10
0.0000
 20
0.0000
 30
0.0000
 40
0.0005
 41
0.0005
 70
0
  0
VERTEX
  8
48
 10
14.7000
 20
18.0378
 30
0.0000
 42
1.0000
  0
VERTEX
  8
48
 10
14.7000
 20
18.0384
 30
0.0000
  0
SEQEND
  8
0
  0
POLYLINE
  8
48
 66
1
 10
0.0000
 20
0.0000
 30
0.0000
 40
0.0005
 41
0.0005
 70
0
  0
VERTEX
  8
48
 10
14.6617
 20
18.0000
 30
0.0000
 42
1.0000
  0
VERTEX
  8
48
 10
14.6622
 20
18.0000
 30
0.0000
  0
SEQEND
  8
0
  0
POLYLINE
  8
48
 66
1
 10
0.0000
 20
0.0000
 30
0.0000
 40
0.0010
 41
0.0010
 70
0
  0
VERTEX
  8
48
 10
14.6619
 20
18.0000
 30
0.0000
 42
0.4142
  0
VERTEX
  8
48
 10
14.7000
 20
17.9619
 30
0.0000
  0
SEQEND
  8
0
  0
POLYLINE
  8
48
 66
1
 10
0.0000
 20
0.0000
 30
0.0000
 40
0.0005
 41
0.0005
 70
0
  0
VERTEX
  8
48
 10
14.6622
 20
18.0000
 30
0.0000
 42
1.0000
  0
VERTEX
  8
48
 10
14.6617
 20
18.0000
 30
0.0000
  0
SEQEND
  8
0
  0
POLYLINE
  8
48
 66
1
 10
0.0000
 20
0.0000
 30
0.0000
 40
0.0005
 41
0.0005
 70
0
  0
VERTEX
  8
48
 10
14.7000
 20
17.9616
 30
0.0000
 42
1.0000
  0
VERTEX
  8
48
 10
14.7000
 20
17.9622
 30
0.0000
  0
SEQEND
  8
0
  0
POLYLINE
  8
48
 66
1
 10
0.0000
 20
0.0000
 30
0.0000
 40
0.0010
 41
0.0010
 70
0
  0
VERTEX
  8
48
 10
31.7000
 20
17.9619
 30
0.0000
 42
1.0000
  0
VERTEX
  8
48
 10
31.7000
 20
18.0381
 30
0.0000
  0
SEQEND
  8
0
  0
POLYLINE
  8
48
 66
1
 10
0.0000
 20
0.0000
 30
0.0000
 40
0.0005
 41
0.0005
 70
0
  0
VERTEX
  8
48
 10
31.7000
 20
17.9622
 30
0.0000
 42
1.0000
  0
VERTEX
  8
48
 10
31.7000
 20
17.9616
 30
0.0000
  0
SEQEND
  8
0
  0
POLYLINE
  8
48
 66
1
 10
0.0000
 20
0.0000
 30
0.0000
 40
0.0005
 41
0.0005
 70
0
  0
VERTEX
  8
48
 10
31.7000
 20
18.0384
 30
0.0000
 42
1.0000
  0
VERTEX
  8
48
 10
31.7000
 20
18.0378
 30
0.0000
  0
SEQEND
  8
0
  0
POLYLINE
  8
48
 66
1
 10
0.0000
 20
0.0000
 30
0.0000
 40
0.0010
 41
0.0010
 70
0
  0
VERTEX
  8
48
 10
14.7000
 20
18.0000
 30
0.0000
  0
VERTEX
  8
48
 10
14.7000
 20
5.0000
 30
0.0000
  0
SEQEND
  8
0
  0
POLYLINE
  8
48
 66
1
 10
0.0000
 20
0.0000
 30
0.0000
 40
0.0005
 41
0.0005
 70
0
  0
VERTEX
  8
48
 10
14.6998
 20
5.0000
 30
0.0000
 42
1.0000
  0
VERTEX
  8
48
 10
14.7003
 20
5.0000
 30
0.0000
  0
SEQEND
  8
0
  0
POLYLINE
  8
48
 66
1
 10
0.0000
 20
0.0000
 30
0.0000
 40
0.0005
 41
0.0005
 70
0
  0
VERTEX
  8
48
 10
14.7003
 20
18.0000
 30
0.0000
 42
1.0000
  0
VERTEX
  8
48
 10
14.6998
 20
18.0000
 30
0.0000
  0
SEQEND
  8
0
  0
POLYLINE
  8
48
 66
1
 10
0.0000
 20
0.0000
 30
0.0000
 40
0.0010
 41
0.0010
 70
0
  0
VERTEX
  8
48
 10
14.6619
 20
5.0000
 30
0.0000
 42
1.0000
  0
VERTEX
  8
48
 10
14.7381
 20
5.0000
 30
0.0000
  0
SEQEND
  8
0
  0
POLYLINE
  8
48
 66
1
 10
0.0000
 20
0.0000
 30
0.0000
 40
0.0005
 41
0.0005
 70
0
  0
VERTEX
  8
48
 10
14.6622
 20
5.0000
 30
0.0000
 42
1.0000
  0
VERTEX
  8
48
 10
14.6617
 20
5.0000
 30
0.0000
  0
SEQEND
  8
0
  0
POLYLINE
  8
48
 66
1
 10
0.0000
 20
0.0000
 30
0.0000
 40
0.0005
 41
0.0005
 70
0
  0
VERTEX
  8
48
 10
14.7384
 20
5.0000
 30
0.0000
 42
1.0000
  0
VERTEX
  8
48
 10
14.7379
 20
5.0000
 30
0.0000
  0
SEQEND
  8
0
  0
POLYLINE
  8
48
 66
1
 10
0.0000
 20
0.0000
 30
0.0000
 40
0.0010
 41
0.0010
 70
0
  0
VERTEX
  8
48
 10
14.7381
 20
18.0000
 30
0.0000
 42
1.0000
  0
VERTEX
  8
48
 10
14.6619
 20
18.0000
 30
0.0000
  0
SEQEND
  8
0
  0
POLYLINE
  8
48
 66
1
 10
0.0000
 20
0.0000
 30
0.0000
 40
0.0005
 41
0.0005
 70
0
  0
VERTEX
  8
48
 10
14.7379
 20
18.0000
 30
0.0000
 42
1.0000
  0
VERTEX
  8
48
 10
14.7384
 20
18.0000
 30
0.0000
  0
SEQEND
  8
0
  0
POLYLINE
  8
48
 66
1
 10
0.0000
 20
0.0000
 30
0.0000
 40
0.0005
 41
0.0005
 70
0
  0
VERTEX
  8
48
 10
14.6617
 20
18.0000
 30
0.0000
 42
1.0000
  0
VERTEX
  8
48
 10
14.6622
 20
18.0000
 30
0.0000
  0
SEQEND
  8
0
  0
POLYLINE
  8
48
 66
1
 10
0.0000
 20
0.0000
 30
0.0000
 40
0.0010
 41
0.0010
 70
0
  0
VERTEX
  8
48
 10
29.1300
 20
7.1000
 30
0.0000
  0
VERTEX
  8
48
 10
29.1300
 20
7.1318
 30
0.0000
  0
SEQEND
  8
0
  0
POLYLINE
  8
48
 66
1
 10
0.0000
 20
0.0000
 30
0.0000
 40
0.0005
 41
0.0005
 70
0
  0
VERTEX
  8
48
 10
29.1303
 20
7.1318
 30
0.0000
 42
1.0000
  0
VERTEX
  8
48
 10
29.1298
 20
7.1318
 30
0.0000
  0
SEQEND
  8
0
  0
POLYLINE
  8
48
 66
1
 10
0.0000
 20
0.0000
 30
0.0000
 40
0.0005
 41
0.0005
 70
0
  0
VERTEX
  8
48
 10
29.1298
 20
7.1000
 30
0.0000
 42
1.0000
  0
VERTEX
  8
48
 10
29.1303
 20
7.1000
 30
0.0000
  0
SEQEND
  8
0
  0
POLYLINE
  8
48
 66
1
 10
0.0000
 20
0.0000
 30
0.0000
 40
0.0010
 41
0.0010
 70
0
  0
VERTEX
  8
48
 10
29.1300
 20
7.1318
 30
0.0000
  0
VERTEX
  8
48
 10
29.1300
 20
10.9383
 30
0.0000
  0
SEQEND
  8
0
  0
POLYLINE
  8
48
 66
1
 10
0.0000
 20
0.0000
 30
0.0000
 40
0.0005
 41
0.0005
 70
0
  0
VERTEX
  8
48
 10
29.1303
 20
10.9383
 30
0.0000
 42
1.0000
  0
VERTEX
  8
48
 10
29.1298
 20
10.9383
 30
0.0000
  0
SEQEND
  8
0
  0
POLYLINE
  8
48
 66
1
 10
0.0000
 20
0.0000
 30
0.0000
 40
0.0005
 41
0.0005
 70
0
  0
VERTEX
  8
48
 10
29.1298
 20
7.1318
 30
0.0000
 42
1.0000
  0
VERTEX
  8
48
 10
29.1303
 20
7.1318
 30
0.0000
  0
SEQEND
  8
0
  0
POLYLINE
  8
48
 66
1
 10
0.0000
 20
0.0000
 30
0.0000
 40
0.0010
 41
0.0010
 70
0
  0
VERTEX
  8
48
 10
29.1300
 20
10.9383
 30
0.0000
  0
VERTEX
  8
48
 10
29.1300
 20
10.9700
 30
0.0000
  0
SEQEND
  8
0
  0
POLYLINE
  8
48
 66
1
 10
0.0000
 20
0.0000
 30
0.0000
 40
0.0005
 41
0.0005
 70
0
  0
VERTEX
  8
48
 10
29.1303
 20
10.9700
 30
0.0000
 42
1.0000
  0
VERTEX
  8
48
 10
29.1298
 20
10.9700
 30
0.0000
  0
SEQEND
  8
0
  0
POLYLINE
  8
48
 66
1
 10
0.0000
 20
0.0000
 30
0.0000
 40
0.0005
 41
0.0005
 70
0
  0
VERTEX
  8
48
 10
29.1298
 20
10.9383
 30
0.0000
 42
1.0000
  0
VERTEX
  8
48
 10
29.1303
 20
10.9383
 30
0.0000
  0
SEQEND
  8
0
  0
POLYLINE
  8
48
 66
1
 10
0.0000
 20
0.0000
 30
0.0000
 40
0.0010
 41
0.0010
 70
0
  0
VERTEX
  8
48
 10
29.1617
 20
10.9700
 30
0.0000
 42
1.0000
  0
VERTEX
  8
48
 10
29.0983
 20
10.9700
 30
0.0000
  0
SEQEND
  8
0
  0
POLYLINE
  8
48
 66
1
 10
0.0000
 20
0.0000
 30
0.0000
 40
0.0005
 41
0.0005
 70
0
  0
VERTEX
  8
48
 10
29.1614
 20
10.9700
 30
0.0000
 42
1.0000
  0
VERTEX
  8
48
 10
29.1620
 20
10.9700
 30
0.0000
  0
SEQEND
  8
0
  0
POLYLINE
  8
48
 66
1
 10
0.0000
 20
0.0000
 30
0.0000
 40
0.0005
 41
0.0005
 70
0
  0
VERTEX
  8
48
 10
29.0981
 20
10.9700
 30
0.0000
 42
1.0000
  0
VERTEX
  8
48
 10
29.0986
 20
10.9700
 30
0.0000
  0
SEQEND
  8
0
  0
POLYLINE
  8
48
 66
1
 10
0.0000
 20
0.0000
 30
0.0000
 40
0.0010
 41
0.0010
 70
0
  0
VERTEX
  8
48
 10
29.0983
 20
7.1000
 30
0.0000
 42
0.4142
  0
VERTEX
  8
48
 10
29.1300
 20
7.0683
 30
0.0000
  0
SEQEND
  8
0
  0
POLYLINE
  8
48
 66
1
 10
0.0000
 20
0.0000
 30
0.0000
 40
0.0005
 41
0.0005
 70
0
  0
VERTEX
  8
48
 10
29.0986
 20
7.1000
 30
0.0000
 42
1.0000
  0
VERTEX
  8
48
 10
29.0981
 20
7.1000
 30
0.0000
  0
SEQEND
  8
0
  0
POLYLINE
  8
48
 66
1
 10
0.0000
 20
0.0000
 30
0.0000
 40
0.0005
 41
0.0005
 70
0
  0
VERTEX
  8
48
 10
29.1300
 20
7.0681
 30
0.0000
 42
1.0000
  0
VERTEX
  8
48
 10
29.1300
 20
7.0686
 30
0.0000
  0
SEQEND
  8
0
  0
POLYLINE
  8
48
 66
1
 10
0.0000
 20
0.0000
 30
0.0000
 40
0.0010
 41
0.0010
 70
0
  0
VERTEX
  8
48
 10
29.1300
 20
7.0683
 30
0.0000
 42
0.4142
  0
VERTEX
  8
48
 10
29.1617
 20
7.1000
 30
0.0000
  0
SEQEND
  8
0
  0
POLYLINE
  8
48
 66
1
 10
0.0000
 20
0.0000
 30
0.0000
 40
0.0005
 41
0.0005
 70
0
  0
VERTEX
  8
48
 10
29.1300
 20
7.0686
 30
0.0000
 42
1.0000
  0
VERTEX
  8
48
 10
29.1300
 20
7.0681
 30
0.0000
  0
SEQEND
  8
0
  0
POLYLINE
  8
48
 66
1
 10
0.0000
 20
0.0000
 30
0.0000
 40
0.0005
 41
0.0005
 70
0
  0
VERTEX
  8
48
 10
29.1620
 20
7.1000
 30
0.0000
 42
1.0000
  0
VERTEX
  8
48
 10
29.1614
 20
7.1000
 30
0.0000
  0
SEQEND
  8
0
  0
POLYLINE
  8
48
 66
1
 10
0.0000
 20
0.0000
 30
0.0000
 40
0.0010
 41
0.0010
 70
0
  0
VERTEX
  8
48
 10
29.1300
 20
10.9700
 30
0.0000
  0
VERTEX
  8
48
 10
17.5618
 20
10.9700
 30
0.0000
  0
SEQEND
  8
0
  0
POLYLINE
  8
48
 66
1
 10
0.0000
 20
0.0000
 30
0.0000
 40
0.0005
 41
0.0005
 70
0
  0
VERTEX
  8
48
 10
17.5618
 20
10.9703
 30
0.0000
 42
1.0000
  0
VERTEX
  8
48
 10
17.5618
 20
10.9698
 30
0.0000
  0
SEQEND
  8
0
  0
POLYLINE
  8
48
 66
1
 10
0.0000
 20
0.0000
 30
0.0000
 40
0.0005
 41
0.0005
 70
0
  0
VERTEX
  8
48
 10
29.1300
 20
10.9698
 30
0.0000
 42
1.0000
  0
VERTEX
  8
48
 10
29.1300
 20
10.9703
 30
0.0000
  0
SEQEND
  8
0
  0
POLYLINE
  8
48
 66
1
 10
0.0000
 20
0.0000
 30
0.0000
 40
0.0010
 41
0.0010
 70
0
  0
VERTEX
  8
48
 10
17.5618
 20
10.9700
 30
0.0000
  0
VERTEX
  8
48
 10
17.5300
 20
10.9700
 30
0.0000
  0
SEQEND
  8
0
  0
POLYLINE
  8
48
 66
1
 10
0.0000
 20
0.0000
 30
0.0000
 40
0.0005
 41
0.0005
 70
0
  0
VERTEX
  8
48
 10
17.5300
 20
10.9703
 30
0.0000
 42
1.0000
  0
VERTEX
  8
48
 10
17.5300
 20
10.9698
 30
0.0000
  0
SEQEND
  8
0
  0
POLYLINE
  8
48
 66
1
 10
0.0000
 20
0.0000
 30
0.0000
 40
0.0005
 41
0.0005
 70
0
  0
VERTEX
  8
48
 10
17.5618
 20
10.9698
 30
0.0000
 42
1.0000
  0
VERTEX
  8
48
 10
17.5618
 20
10.9703
 30
0.0000
  0
SEQEND
  8
0
  0
POLYLINE
  8
48
 66
1
 10
0.0000
 20
0.0000
 30
0.0000
 40
0.0010
 41
0.0010
 70
0
  0
VERTEX
  8
48
 10
17.5300
 20
11.0018
 30
0.0000
 42
1.0000
  0
VERTEX
  8
48
 10
17.5300
 20
10.9383
 30
0.0000
  0
SEQEND
  8
0
  0
POLYLINE
  8
48
 66
1
 10
0.0000
 20
0.0000
 30
0.0000
 40
0.0005
 41
0.0005
 70
0
  0
VERTEX
  8
48
 10
17.5300
 20
11.0016
 30
0.0000
 42
1.0000
  0
VERTEX
  8
48
 10
17.5300
 20
11.0021
 30
0.0000
  0
SEQEND
  8
0
  0
POLYLINE
  8
48
 66
1
 10
0.0000
 20
0.0000
 30
0.0000
 40
0.0005
 41
0.0005
 70
0
  0
VERTEX
  8
48
 10
17.5300
 20
10.9381
 30
0.0000
 42
1.0000
  0
VERTEX
  8
48
 10
17.5300
 20
10.9385
 30
0.0000
  0
SEQEND
  8
0
  0
POLYLINE
  8
48
 66
1
 10
0.0000
 20
0.0000
 30
0.0000
 40
0.0010
 41
0.0010
 70
0
  0
VERTEX
  8
48
 10
29.1300
 20
10.9383
 30
0.0000
 42
1.0000
  0
VERTEX
  8
48
 10
29.1300
 20
11.0018
 30
0.0000
  0
SEQEND
  8
0
  0
POLYLINE
  8
48
 66
1
 10
0.0000
 20
0.0000
 30
0.0000
 40
0.0005
 41
0.0005
 70
0
  0
VERTEX
  8
48
 10
29.1300
 20
10.9385
 30
0.0000
 42
1.0000
  0
VERTEX
  8
48
 10
29.1300
 20
10.9381
 30
0.0000
  0
SEQEND
  8
0
  0
POLYLINE
  8
48
 66
1
 10
0.0000
 20
0.0000
 30
0.0000
 40
0.0005
 41
0.0005
 70
0
  0
VERTEX
  8
48
 10
29.1300
 20
11.0021
 30
0.0000
 42
1.0000
  0
VERTEX
  8
48
 10
29.1300
 20
11.0016
 30
0.0000
  0
SEQEND
  8
0
  0
POLYLINE
  8
48
 66
1
 10
0.0000
 20
0.0000
 30
0.0000
 40
0.0010
 41
0.0010
 70
0
  0
VERTEX
  8
48
 10
17.5300
 20
10.9700
 30
0.0000
  0
VERTEX
  8
48
 10
17.5300
 20
7.1318
 30
0.0000
  0
SEQEND
  8
0
  0
POLYLINE
  8
48
 66
1
 10
0.0000
 20
0.0000
 30
0.0000
 40
0.0005
 41
0.0005
 70
0
  0
VERTEX
  8
48
 10
17.5297
 20
7.1318
 30
0.0000
 42
1.0000
  0
VERTEX
  8
48
 10
17.5303
 20
7.1318
 30
0.0000
  0
SEQEND
  8
0
  0
POLYLINE
  8
48
 66
1
 10
0.0000
 20
0.0000
 30
0.0000
 40
0.0005
 41
0.0005
 70
0
  0
VERTEX
  8
48
 10
17.5303
 20
10.9700
 30
0.0000
 42
1.0000
  0
VERTEX
  8
48
 10
17.5297
 20
10.9700
 30
0.0000
  0
SEQEND
  8
0
  0
POLYLINE
  8
48
 66
1
 10
0.0000
 20
0.0000
 30
0.0000
 40
0.0010
 41
0.0010
 70
0
  0
VERTEX
  8
48
 10
17.5300
 20
7.1318
 30
0.0000
  0
VERTEX
  8
48
 10
17.5300
 20
7.1000
 30
0.0000
  0
SEQEND
  8
0
  0
POLYLINE
  8
48
 66
1
 10
0.0000
 20
0.0000
 30
0.0000
 40
0.0005
 41
0.0005
 70
0
  0
VERTEX
  8
48
 10
17.5297
 20
7.1000
 30
0.0000
 42
1.0000
  0
VERTEX
  8
48
 10
17.5303
 20
7.1000
 30
0.0000
  0
SEQEND
  8
0
  0
POLYLINE
  8
48
 66
1
 10
0.0000
 20
0.0000
 30
0.0000
 40
0.0005
 41
0.0005
 70
0
  0
VERTEX
  8
48
 10
17.5303
 20
7.1318
 30
0.0000
 42
1.0000
  0
VERTEX
  8
48
 10
17.5297
 20
7.1318
 30
0.0000
  0
SEQEND
  8
0
  0
POLYLINE
  8
48
 66
1
 10
0.0000
 20
0.0000
 30
0.0000
 40
0.0010
 41
0.0010
 70
0
  0
VERTEX
  8
48
 10
17.4982
 20
7.1000
 30
0.0000
 42
1.0000
  0
VERTEX
  8
48
 10
17.5618
 20
7.1000
 30
0.0000
  0
SEQEND
  8
0
  0
POLYLINE
  8
48
 66
1
 10
0.0000
 20
0.0000
 30
0.0000
 40
0.0005
 41
0.0005
 70
0
  0
VERTEX
  8
48
 10
17.4985
 20
7.1000
 30
0.0000
 42
1.0000
  0
VERTEX
  8
48
 10
17.4979
 20
7.1000
 30
0.0000
  0
SEQEND
  8
0
  0
POLYLINE
  8
48
 66
1
 10
0.0000
 20
0.0000
 30
0.0000
 40
0.0005
 41
0.0005
 70
0
  0
VERTEX
  8
48
 10
17.5621
 20
7.1000
 30
0.0000
 42
1.0000
  0
VERTEX
  8
48
 10
17.5616
 20
7.1000
 30
0.0000
  0
SEQEND
  8
0
  0
POLYLINE
  8
48
 66
1
 10
0.0000
 20
0.0000
 30
0.0000
 40
0.0010
 41
0.0010
 70
0
  0
VERTEX
  8
48
 10
17.5618
 20
10.9700
 30
0.0000
 42
1.0000
  0
VERTEX
  8
48
 10
17.4982
 20
10.9700
 30
0.0000
  0
SEQEND
  8
0
  0
POLYLINE
  8
48
 66
1
 10
0.0000
 20
0.0000
 30
0.0000
 40
0.0005
 41
0.0005
 70
0
  0
VERTEX
  8
48
 10
17.5616
 20
10.9700
 30
0.0000
 42
1.0000
  0
VERTEX
  8
48
 10
17.5621
 20
10.9700
 30
0.0000
  0
SEQEND
  8
0
  0
POLYLINE
  8
48
 66
1
 10
0.0000
 20
0.0000
 30
0.0000
 40
0.0005
 41
0.0005
 70
0
  0
VERTEX
  8
48
 10
17.4979
 20
10.9700
 30
0.0000
 42
1.0000
  0
VERTEX
  8
48
 10
17.4985
 20
10.9700
 30
0.0000
  0
SEQEND
  8
0
  0
POLYLINE
  8
48
 66
1
 10
0.0000
 20
0.0000
 30
0.0000
 40
0.0010
 41
0.0010
 70
0
  0
VERTEX
  8
48
 10
17.5300
 20
7.1000
 30
0.0000
  0
VERTEX
  8
48
 10
29.1300
 20
7.1000
 30
0.0000
  0
SEQEND
  8
0
  0
POLYLINE
  8
48
 66
1
 10
0.0000
 20
0.0000
 30
0.0000
 40
0.0005
 41
0.0005
 70
0
  0
VERTEX
  8
48
 10
29.1300
 20
7.0998
 30
0.0000
 42
1.0000
  0
VERTEX
  8
48
 10
29.1300
 20
7.1003
 30
0.0000
  0
SEQEND
  8
0
  0
POLYLINE
  8
48
 66
1
 10
0.0000
 20
0.0000
 30
0.0000
 40
0.0005
 41
0.0005
 70
0
  0
VERTEX
  8
48
 10
17.5300
 20
7.1003
 30
0.0000
 42
1.0000
  0
VERTEX
  8
48
 10
17.5300
 20
7.0998
 30
0.0000
  0
SEQEND
  8
0
  0
POLYLINE
  8
48
 66
1
 10
0.0000
 20
0.0000
 30
0.0000
 40
0.0010
 41
0.0010
 70
0
  0
VERTEX
  8
48
 10
29.1300
 20
7.0683
 30
0.0000
 42
1.0000
  0
VERTEX
  8
48
 10
29.1300
 20
7.1318
 30
0.0000
  0
SEQEND
  8
0
  0
POLYLINE
  8
48
 66
1
 10
0.0000
 20
0.0000
 30
0.0000
 40
0.0005
 41
0.0005
 70
0
  0
VERTEX
  8
48
 10
29.1300
 20
7.0686
 30
0.0000
 42
1.0000
  0
VERTEX
  8
48
 10
29.1300
 20
7.0681
 30
0.0000
  0
SEQEND
  8
0
  0
POLYLINE
  8
48
 66
1
 10
0.0000
 20
0.0000
 30
0.0000
 40
0.0005
 41
0.0005
 70
0
  0
VERTEX
  8
48
 10
29.1300
 20
7.1321
 30
0.0000
 42
1.0000
  0
VERTEX
  8
48
 10
29.1300
 20
7.1315
 30
0.0000
  0
SEQEND
  8
0
  0
POLYLINE
  8
48
 66
1
 10
0.0000
 20
0.0000
 30
0.0000
 40
0.0010
 41
0.0010
 70
0
  0
VERTEX
  8
48
 10
17.5300
 20
7.1318
 30
0.0000
 42
1.0000
  0
VERTEX
  8
48
 10
17.5300
 20
7.0683
 30
0.0000
  0
SEQEND
  8
0
  0
POLYLINE
  8
48
 66
1
 10
0.0000
 20
0.0000
 30
0.0000
 40
0.0005
 41
0.0005
 70
0
  0
VERTEX
  8
48
 10
17.5300
 20
7.1315
 30
0.0000
 42
1.0000
  0
VERTEX
  8
48
 10
17.5300
 20
7.1321
 30
0.0000
  0
SEQEND
  8
0
  0
POLYLINE
  8
48
 66
1
 10
0.0000
 20
0.0000
 30
0.0000
 40
0.0005
 41
0.0005
 70
0
  0
VERTEX
  8
48
 10
17.5300
 20
7.0681
 30
0.0000
 42
1.0000
  0
VERTEX
  8
48
 10
17.5300
 20
7.0686
 30
0.0000
  0
SEQEND
  8
0
  0
POLYLINE
  8
48
 66
1
 10
0.0000
 20
0.0000
 30
0.0000
 40
0.0010
 41
0.0010
 70
0
  0
VERTEX
  8
48
 10
28.8300
 20
7.2500
 30
0.0000
 42
1.0000
  0
VERTEX
  8
48
 10
28.8300
 20
7.4500
 30
0.0000
  0
SEQEND
  8
0
  0
POLYLINE
  8
48
 66
1
 10
0.0000
 20
0.0000
 30
0.0000
 40
0.0005
 41
0.0005
 70
0
  0
VERTEX
  8
48
 10
28.8300
 20
7.2503
 30
0.0000
 42
1.0000
  0
VERTEX
  8
48
 10
28.8300
 20
7.2497
 30
0.0000
  0
SEQEND
  8
0
  0
POLYLINE
  8
48
 66
1
 10
0.0000
 20
0.0000
 30
0.0000
 40
0.0005
 41
0.0005
 70
0
  0
VERTEX
  8
48
 10
28.8300
 20
7.4503
 30
0.0000
 42
1.0000
  0
VERTEX
  8
48
 10
28.8300
 20
7.4497
 30
0.0000
  0
SEQEND
  8
0
  0
POLYLINE
  8
48
 66
1
 10
0.0000
 20
0.0000
 30
0.0000
 40
0.0010
 41
0.0010
 70
0
  0
VERTEX
  8
48
 10
28.8300
 20
7.4500
 30
0.0000
 42
1.0000
  0
VERTEX
  8
48
 10
28.8300
 20
7.2500
 30
0.0000
  0
SEQEND
  8
0
  0
POLYLINE
  8
48
 66
1
 10
0.0000
 20
0.0000
 30
0.0000
 40
0.0005
 41
0.0005
 70
0
  0
VERTEX
  8
48
 10
28.8300
 20
7.4497
 30
0.0000
 42
1.0000
  0
VERTEX
  8
48
 10
28.8300
 20
7.4503
 30
0.0000
  0
SEQEND
  8
0
  0
POLYLINE
  8
48
 66
1
 10
0.0000
 20
0.0000
 30
0.0000
 40
0.0005
 41
0.0005
 70
0
  0
VERTEX
  8
48
 10
28.8300
 20
7.2497
 30
0.0000
 42
1.0000
  0
VERTEX
  8
48
 10
28.8300
 20
7.2503
 30
0.0000
  0
SEQEND
  8
0
  0
POLYLINE
  8
48
 66
1
 10
0.0000
 20
0.0000
 30
0.0000
 40
0.0010
 41
0.0010
 70
0
  0
VERTEX
  8
48
 10
29.5792
 20
11.3508
 30
0.0000
  0
VERTEX
  8
48
 10
29.5792
 20
11.8052
 30
0.0000
  0
SEQEND
  8
0
  0
POLYLINE
  8
48
 66
1
 10
0.0000
 20
0.0000
 30
0.0000
 40
0.0005
 41
0.0005
 70
0
  0
VERTEX
  8
48
 10
29.5795
 20
11.8052
 30
0.0000
 42
1.0000
  0
VERTEX
  8
48
 10
29.5789
 20
11.8052
 30
0.0000
  0
SEQEND
  8
0
  0
POLYLINE
  8
48
 66
1
 10
0.0000
 20
0.0000
 30
0.0000
 40
0.0005
 41
0.0005
 70
0
  0
VERTEX
  8
48
 10
29.5789
 20
11.3508
 30
0.0000
 42
1.0000
  0
VERTEX
  8
48
 10
29.5795
 20
11.3508
 30
0.0000
  0
SEQEND
  8
0
  0
POLYLINE
  8
48
 66
1
 10
0.0000
 20
0.0000
 30
0.0000
 40
0.0010
 41
0.0010
 70
0
  0
VERTEX
  8
48
 10
29.5792
 20
11.8052
 30
0.0000
  0
VERTEX
  8
48
 10
29.5792
 20
12.5192
 30
0.0000
  0
SEQEND
  8
0
  0
POLYLINE
  8
48
 66
1
 10
0.0000
 20
0.0000
 30
0.0000
 40
0.0005
 41
0.0005
 70
0
  0
VERTEX
  8
48
 10
29.5795
 20
12.5192
 30
0.0000
 42
1.0000
  0
VERTEX
  8
48
 10
29.5789
 20
12.5192
 30
0.0000
  0
SEQEND
  8
0
  0
POLYLINE
  8
48
 66
1
 10
0.0000
 20
0.0000
 30
0.0000
 40
0.0005
 41
0.0005
 70
0
  0
VERTEX
  8
48
 10
29.5789
 20
11.8052
 30
0.0000
 42
1.0000
  0
VERTEX
  8
48
 10
29.5795
 20
11.8052
 30
0.0000
  0
SEQEND
  8
0
  0
POLYLINE
  8
48
 66
1
 10
0.0000
 20
0.0000
 30
0.0000
 40
0.0010
 41
0.0010
 70
0
  0
VERTEX
  8
48
 10
29.6046
 20
12.5192
 30
0.0000
 42
1.0000
  0
VERTEX
  8
48
 10
29.5538
 20
12.5192
 30
0.0000
  0
SEQEND
  8
0
  0
POLYLINE
  8
48
 66
1
 10
0.0000
 20
0.0000
 30
0.0000
 40
0.0005
 41
0.0005
 70
0
  0
VERTEX
  8
48
 10
29.6044
 20
12.5192
 30
0.0000
 42
1.0000
  0
VERTEX
  8
48
 10
29.6049
 20
12.5192
 30
0.0000
  0
SEQEND
  8
0
  0
POLYLINE
  8
48
 66
1
 10
0.0000
 20
0.0000
 30
0.0000
 40
0.0005
 41
0.0005
 70
0
  0
VERTEX
  8
48
 10
29.5536
 20
12.5192
 30
0.0000
 42
1.0000
  0
VERTEX
  8
48
 10
29.5541
 20
12.5192
 30
0.0000
  0
SEQEND
  8
0
  0
POLYLINE
  8
48
 66
1
 10
0.0000
 20
0.0000
 30
0.0000
 40
0.0010
 41
0.0010
 70
0
  0
VERTEX
  8
48
 10
29.5538
 20
11.3508
 30
0.0000
 42
1.0000
  0
VERTEX
  8
48
 10
29.6046
 20
11.3508
 30
0.0000
  0
SEQEND
  8
0
  0
POLYLINE
  8
48
 66
1
 10
0.0000
 20
0.0000
 30
0.0000
 40
0.0005
 41
0.0005
 70
0
  0
VERTEX
  8
48
 10
29.5541
 20
11.3508
 30
0.0000
 42
1.0000
  0
VERTEX
  8
48
 10
29.5536
 20
11.3508
 30
0.0000
  0
SEQEND
  8
0
  0
POLYLINE
  8
48
 66
1
 10
0.0000
 20
0.0000
 30
0.0000
 40
0.0005
 41
0.0005
 70
0
  0
VERTEX
  8
48
 10
29.6049
 20
11.3508
 30
0.0000
 42
1.0000
  0
VERTEX
  8
48
 10
29.6044
 20
11.3508
 30
0.0000
  0
SEQEND
  8
0
  0
POLYLINE
  8
48
 66
1
 10
0.0000
 20
0.0000
 30
0.0000
 40
0.0010
 41
0.0010
 70
0
  0
VERTEX
  8
48
 10
28.9301
 20
12.5192
 30
0.0000
  0
VERTEX
  8
48
 10
29.5792
 20
11.8052
 30
0.0000
  0
SEQEND
  8
0
  0
POLYLINE
  8
48
 66
1
 10
0.0000
 20
0.0000
 30
0.0000
 40
0.0005
 41
0.0005
 70
0
  0
VERTEX
  8
48
 10
29.5790
 20
11.8050
 30
0.0000
 42
1.0000
  0
VERTEX
  8
48
 10
29.5794
 20
11.8054
 30
0.0000
  0
SEQEND
  8
0
  0
POLYLINE
  8
48
 66
1
 10
0.0000
 20
0.0000
 30
0.0000
 40
0.0005
 41
0.0005
 70
0
  0
VERTEX
  8
48
 10
28.9303
 20
12.5194
 30
0.0000
 42
1.0000
  0
VERTEX
  8
48
 10
28.9299
 20
12.5190
 30
0.0000
  0
SEQEND
  8
0
  0
POLYLINE
  8
48
 66
1
 10
0.0000
 20
0.0000
 30
0.0000
 40
0.0010
 41
0.0010
 70
0
  0
VERTEX
  8
48
 10
29.5604
 20
11.7881
 30
0.0000
 42
1.0000
  0
VERTEX
  8
48
 10
29.5980
 20
11.8223
 30
0.0000
  0
SEQEND
  8
0
  0
POLYLINE
  8
48
 66
1
 10
0.0000
 20
0.0000
 30
0.0000
 40
0.0005
 41
0.0005
 70
0
  0
VERTEX
  8
48
 10
29.5606
 20
11.7883
 30
0.0000
 42
1.0000
  0
VERTEX
  8
48
 10
29.5602
 20
11.7879
 30
0.0000
  0
SEQEND
  8
0
  0
POLYLINE
  8
48
 66
1
 10
0.0000
 20
0.0000
 30
0.0000
 40
0.0005
 41
0.0005
 70
0
  0
VERTEX
  8
48
 10
29.5982
 20
11.8225
 30
0.0000
 42
1.0000
  0
VERTEX
  8
48
 10
29.5978
 20
11.8221
 30
0.0000
  0
SEQEND
  8
0
  0
POLYLINE
  8
48
 66
1
 10
0.0000
 20
0.0000
 30
0.0000
 40
0.0010
 41
0.0010
 70
0
  0
VERTEX
  8
48
 10
28.9489
 20
12.5363
 30
0.0000
 42
1.0000
  0
VERTEX
  8
48
 10
28.9113
 20
12.5021
 30
0.0000
  0
SEQEND
  8
0
  0
POLYLINE
  8
48
 66
1
 10
0.0000
 20
0.0000
 30
0.0000
 40
0.0005
 41
0.0005
 70
0
  0
VERTEX
  8
48
 10
28.9487
 20
12.5361
 30
0.0000
 42
1.0000
  0
VERTEX
  8
48
 10
28.9491
 20
12.5365
 30
0.0000
  0
SEQEND
  8
0
  0
POLYLINE
  8
48
 66
1
 10
0.0000
 20
0.0000
 30
0.0000
 40
0.0005
 41
0.0005
 70
0
  0
VERTEX
  8
48
 10
28.9111
 20
12.5019
 30
0.0000
 42
1.0000
  0
VERTEX
  8
48
 10
28.9115
 20
12.5023
 30
0.0000
  0
SEQEND
  8
0
  0
POLYLINE
  8
48
 66
1
 10
0.0000
 20
0.0000
 30
0.0000
 40
0.0010
 41
0.0010
 70
0
  0
VERTEX
  8
48
 10
28.9301
 20
11.3508
 30
0.0000
  0
VERTEX
  8
48
 10
29.3196
 20
12.0648
 30
0.0000
  0
SEQEND
  8
0
  0
POLYLINE
  8
48
 66
1
 10
0.0000
 20
0.0000
 30
0.0000
 40
0.0005
 41
0.0005
 70
0
  0
VERTEX
  8
48
 10
29.3198
 20
12.0647
 30
0.0000
 42
1.0000
  0
VERTEX
  8
48
 10
29.3194
 20
12.0649
 30
0.0000
  0
SEQEND
  8
0
  0
POLYLINE
  8
48
 66
1
 10
0.0000
 20
0.0000
 30
0.0000
 40
0.0005
 41
0.0005
 70
0
  0
VERTEX
  8
48
 10
28.9299
 20
11.3509
 30
0.0000
 42
1.0000
  0
VERTEX
  8
48
 10
28.9303
 20
11.3507
 30
0.0000
  0
SEQEND
  8
0
  0
POLYLINE
  8
48
 66
1
 10
0.0000
 20
0.0000
 30
0.0000
 40
0.0010
 41
0.0010
 70
0
  0
VERTEX
  8
48
 10
29.3419
 20
12.0527
 30
0.0000
 42
1.0000
  0
VERTEX
  8
48
 10
29.2973
 20
12.0770
 30
0.0000
  0
SEQEND
  8
0
  0
POLYLINE
  8
48
 66
1
 10
0.0000
 20
0.0000
 30
0.0000
 40
0.0005
 41
0.0005
 70
0
  0
VERTEX
  8
48
 10
29.3417
 20
12.0528
 30
0.0000
 42
1.0000
  0
VERTEX
  8
48
 10
29.3421
 20
12.0526
 30
0.0000
  0
SEQEND
  8
0
  0
POLYLINE
  8
48
 66
1
 10
0.0000
 20
0.0000
 30
0.0000
 40
0.0005
 41
0.0005
 70
0
  0
VERTEX
  8
48
 10
29.2971
 20
12.0771
 30
0.0000
 42
1.0000
  0
VERTEX
  8
48
 10
29.2975
 20
12.0769
 30
0.0000
  0
SEQEND
  8
0
  0
POLYLINE
  8
48
 66
1
 10
0.0000
 20
0.0000
 30
0.0000
 40
0.0010
 41
0.0010
 70
0
  0
VERTEX
  8
48
 10
28.9078
 20
11.3630
 30
0.0000
 42
1.0000
  0
VERTEX
  8
48
 10
28.9524
 20
11.3386
 30
0.0000
  0
SEQEND
  8
0
  0
POLYLINE
  8
48
 66
1
 10
0.0000
 20
0.0000
 30
0.0000
 40
0.0005
 41
0.0005
 70
0
  0
VERTEX
  8
48
 10
28.9080
 20
11.3629
 30
0.0000
 42
1.0000
  0
VERTEX
  8
48
 10
28.9076
 20
11.3631
 30
0.0000
  0
SEQEND
  8
0
  0
POLYLINE
  8
48
 66
1
 10
0.0000
 20
0.0000
 30
0.0000
 40
0.0005
 41
0.0005
 70
0
  0
VERTEX
  8
48
 10
28.9526
 20
11.3385
 30
0.0000
 42
1.0000
  0
VERTEX
  8
48
 10
28.9522
 20
11.3387
 30
0.0000
  0
SEQEND
  8
0
  0
POLYLINE
  8
48
 66
1
 10
0.0000
 20
0.0000
 30
0.0000
 40
0.0010
 41
0.0010
 70
0
  0
VERTEX
  8
48
 10
28.4912
 20
12.2596
 30
0.0000
  0
VERTEX
  8
48
 10
28.1667
 20
12.5192
 30
0.0000
  0
SEQEND
  8
0
  0
POLYLINE
  8
48
 66
1
 10
0.0000
 20
0.0000
 30
0.0000
 40
0.0005
 41
0.0005
 70
0
  0
VERTEX
  8
48
 10
28.1669
 20
12.5194
 30
0.0000
 42
1.0000
  0
VERTEX
  8
48
 10
28.1665
 20
12.5190
 30
0.0000
  0
SEQEND
  8
0
  0
POLYLINE
  8
48
 66
1
 10
0.0000
 20
0.0000
 30
0.0000
 40
0.0005
 41
0.0005
 70
0
  0
VERTEX
  8
48
 10
28.4910
 20
12.2594
 30
0.0000
 42
1.0000
  0
VERTEX
  8
48
 10
28.4914
 20
12.2598
 30
0.0000
  0
SEQEND
  8
0
  0
POLYLINE
  8
48
 66
1
 10
0.0000
 20
0.0000
 30
0.0000
 40
0.0010
 41
0.0010
 70
0
  0
VERTEX
  8
48
 10
28.1826
 20
12.5390
 30
0.0000
 42
1.0000
  0
VERTEX
  8
48
 10
28.1508
 20
12.4994
 30
0.0000
  0
SEQEND
  8
0
  0
POLYLINE
  8
48
 66
1
 10
0.0000
 20
0.0000
 30
0.0000
 40
0.0005
 41
0.0005
 70
0
  0
VERTEX
  8
48
 10
28.1824
 20
12.5388
 30
0.0000
 42
1.0000
  0
VERTEX
  8
48
 10
28.1828
 20
12.5392
 30
0.0000
  0
SEQEND
  8
0
  0
POLYLINE
  8
48
 66
1
 10
0.0000
 20
0.0000
 30
0.0000
 40
0.0005
 41
0.0005
 70
0
  0
VERTEX
  8
48
 10
28.1506
 20
12.4992
 30
0.0000
 42
1.0000
  0
VERTEX
  8
48
 10
28.1510
 20
12.4996
 30
0.0000
  0
SEQEND
  8
0
  0
POLYLINE
  8
48
 66
1
 10
0.0000
 20
0.0000
 30
0.0000
 40
0.0010
 41
0.0010
 70
0
  0
VERTEX
  8
48
 10
28.4754
 20
12.2397
 30
0.0000
 42
1.0000
  0
VERTEX
  8
48
 10
28.5071
 20
12.2794
 30
0.0000
  0
SEQEND
  8
0
  0
POLYLINE
  8
48
 66
1
 10
0.0000
 20
0.0000
 30
0.0000
 40
0.0005
 41
0.0005
 70
0
  0
VERTEX
  8
48
 10
28.4756
 20
12.2399
 30
0.0000
 42
1.0000
  0
VERTEX
  8
48
 10
28.4752
 20
12.2395
 30
0.0000
  0
SEQEND
  8
0
  0
POLYLINE
  8
48
 66
1
 10
0.0000
 20
0.0000
 30
0.0000
 40
0.0005
 41
0.0005
 70
0
  0
VERTEX
  8
48
 10
28.5073
 20
12.2796
 30
0.0000
 42
1.0000
  0
VERTEX
  8
48
 10
28.5069
 20
12.2792
 30
0.0000
  0
SEQEND
  8
0
  0
POLYLINE
  8
48
 66
1
 10
0.0000
 20
0.0000
 30
0.0000
 40
0.0010
 41
0.0010
 70
0
  0
VERTEX
  8
48
 10
28.1667
 20
12.5192
 30
0.0000
  0
VERTEX
  8
48
 10
28.1667
 20
11.3508
 30
0.0000
  0
SEQEND
  8
0
  0
POLYLINE
  8
48
 66
1
 10
0.0000
 20
0.0000
 30
0.0000
 40
0.0005
 41
0.0005
 70
0
  0
VERTEX
  8
48
 10
28.1665
 20
11.3508
 30
0.0000
 42
1.0000
  0
VERTEX
  8
48
 10
28.1670
 20
11.3508
 30
0.0000
  0
SEQEND
  8
0
  0
POLYLINE
  8
48
 66
1
 10
0.0000
 20
0.0000
 30
0.0000
 40
0.0005
 41
0.0005
 70
0
  0
VERTEX
  8
48
 10
28.1670
 20
12.5192
 30
0.0000
 42
1.0000
  0
VERTEX
  8
48
 10
28.1665
 20
12.5192
 30
0.0000
  0
SEQEND
  8
0
  0
POLYLINE
  8
48
 66
1
 10
0.0000
 20
0.0000
 30
0.0000
 40
0.0010
 41
0.0010
 70
0
  0
VERTEX
  8
48
 10
28.1413
 20
11.3508
 30
0.0000
 42
1.0000
  0
VERTEX
  8
48
 10
28.1921
 20
11.3508
 30
0.0000
  0
SEQEND
  8
0
  0
POLYLINE
  8
48
 66
1
 10
0.0000
 20
0.0000
 30
0.0000
 40
0.0005
 41
0.0005
 70
0
  0
VERTEX
  8
48
 10
28.1416
 20
11.3508
 30
0.0000
 42
1.0000
  0
VERTEX
  8
48
 10
28.1410
 20
11.3508
 30
0.0000
  0
SEQEND
  8
0
  0
POLYLINE
  8
48
 66
1
 10
0.0000
 20
0.0000
 30
0.0000
 40
0.0005
 41
0.0005
 70
0
  0
VERTEX
  8
48
 10
28.1924
 20
11.3508
 30
0.0000
 42
1.0000
  0
VERTEX
  8
48
 10
28.1918
 20
11.3508
 30
0.0000
  0
SEQEND
  8
0
  0
POLYLINE
  8
48
 66
1
 10
0.0000
 20
0.0000
 30
0.0000
 40
0.0010
 41
0.0010
 70
0
  0
VERTEX
  8
48
 10
28.1921
 20
12.5192
 30
0.0000
 42
1.0000
  0
VERTEX
  8
48
 10
28.1413
 20
12.5192
 30
0.0000
  0
SEQEND
  8
0
  0
POLYLINE
  8
48
 66
1
 10
0.0000
 20
0.0000
 30
0.0000
 40
0.0005
 41
0.0005
 70
0
  0
VERTEX
  8
48
 10
28.1918
 20
12.5192
 30
0.0000
 42
1.0000
  0
VERTEX
  8
48
 10
28.1924
 20
12.5192
 30
0.0000
  0
SEQEND
  8
0
  0
POLYLINE
  8
48
 66
1
 10
0.0000
 20
0.0000
 30
0.0000
 40
0.0005
 41
0.0005
 70
0
  0
VERTEX
  8
48
 10
28.1410
 20
12.5192
 30
0.0000
 42
1.0000
  0
VERTEX
  8
48
 10
28.1416
 20
12.5192
 30
0.0000
  0
SEQEND
  8
0
  0
POLYLINE
  8
48
 66
1
 10
0.0000
 20
0.0000
 30
0.0000
 40
0.0010
 41
0.0010
 70
0
  0
VERTEX
  8
48
 10
28.4912
 20
11.3508
 30
0.0000
  0
VERTEX
  8
48
 10
27.8421
 20
11.3508
 30
0.0000
  0
SEQEND
  8
0
  0
POLYLINE
  8
48
 66
1
 10
0.0000
 20
0.0000
 30
0.0000
 40
0.0005
 41
0.0005
 70
0
  0
VERTEX
  8
48
 10
27.8421
 20
11.3511
 30
0.0000
 42
1.0000
  0
VERTEX
  8
48
 10
27.8421
 20
11.3506
 30
0.0000
  0
SEQEND
  8
0
  0
POLYLINE
  8
48
 66
1
 10
0.0000
 20
0.0000
 30
0.0000
 40
0.0005
 41
0.0005
 70
0
  0
VERTEX
  8
48
 10
28.4912
 20
11.3506
 30
0.0000
 42
1.0000
  0
VERTEX
  8
48
 10
28.4912
 20
11.3511
 30
0.0000
  0
SEQEND
  8
0
  0
POLYLINE
  8
48
 66
1
 10
0.0000
 20
0.0000
 30
0.0000
 40
0.0010
 41
0.0010
 70
0
  0
VERTEX
  8
48
 10
27.8421
 20
11.3762
 30
0.0000
 42
1.0000
  0
VERTEX
  8
48
 10
27.8421
 20
11.3254
 30
0.0000
  0
SEQEND
  8
0
  0
POLYLINE
  8
48
 66
1
 10
0.0000
 20
0.0000
 30
0.0000
 40
0.0005
 41
0.0005
 70
0
  0
VERTEX
  8
48
 10
27.8421
 20
11.3760
 30
0.0000
 42
1.0000
  0
VERTEX
  8
48
 10
27.8421
 20
11.3765
 30
0.0000
  0
SEQEND
  8
0
  0
POLYLINE
  8
48
 66
1
 10
0.0000
 20
0.0000
 30
0.0000
 40
0.0005
 41
0.0005
 70
0
  0
VERTEX
  8
48
 10
27.8421
 20
11.3252
 30
0.0000
 42
1.0000
  0
VERTEX
  8
48
 10
27.8421
 20
11.3256
 30
0.0000
  0
SEQEND
  8
0
  0
POLYLINE
  8
48
 66
1
 10
0.0000
 20
0.0000
 30
0.0000
 40
0.0010
 41
0.0010
 70
0
  0
VERTEX
  8
48
 10
28.4912
 20
11.3254
 30
0.0000
 42
1.0000
  0
VERTEX
  8
48
 10
28.4912
 20
11.3762
 30
0.0000
  0
SEQEND
  8
0
  0
POLYLINE
  8
48
 66
1
 10
0.0000
 20
0.0000
 30
0.0000
 40
0.0005
 41
0.0005
 70
0
  0
VERTEX
  8
48
 10
28.4912
 20
11.3256
 30
0.0000
 42
1.0000
  0
VERTEX
  8
48
 10
28.4912
 20
11.3252
 30
0.0000
  0
SEQEND
  8
0
  0
POLYLINE
  8
48
 66
1
 10
0.0000
 20
0.0000
 30
0.0000
 40
0.0005
 41
0.0005
 70
0
  0
VERTEX
  8
48
 10
28.4912
 20
11.3765
 30
0.0000
 42
1.0000
  0
VERTEX
  8
48
 10
28.4912
 20
11.3760
 30
0.0000
  0
SEQEND
  8
0
  0
POLYLINE
  8
48
 66
1
 10
0.0000
 20
0.0000
 30
0.0000
 40
0.0010
 41
0.0010
 70
0
  0
VERTEX
  8
48
 10
21.3300
 20
9.0000
 30
0.0000
  0
VERTEX
  8
48
 10
21.3300
 20
14.8700
 30
0.0000
  0
SEQEND
  8
0
  0
POLYLINE
  8
48
 66
1
 10
0.0000
 20
0.0000
 30
0.0000
 40
0.0005
 41
0.0005
 70
0
  0
VERTEX
  8
48
 10
21.3303
 20
14.8700
 30
0.0000
 42
1.0000
  0
VERTEX
  8
48
 10
21.3298
 20
14.8700
 30
0.0000
  0
SEQEND
  8
0
  0
POLYLINE
  8
48
 66
1
 10
0.0000
 20
0.0000
 30
0.0000
 40
0.0005
 41
0.0005
 70
0
  0
VERTEX
  8
48
 10
21.3298
 20
9.0000
 30
0.0000
 42
1.0000
  0
VERTEX
  8
48
 10
21.3303
 20
9.0000
 30
0.0000
  0
SEQEND
  8
0
  0
POLYLINE
  8
48
 66
1
 10
0.0000
 20
0.0000
 30
0.0000
 40
0.0010
 41
0.0010
 70
0
  0
VERTEX
  8
48
 10
21.4824
 20
14.8700
 30
0.0000
 42
1.0000
  0
VERTEX
  8
48
 10
21.1776
 20
14.8700
 30
0.0000
  0
SEQEND
  8
0
  0
POLYLINE
  8
48
 66
1
 10
0.0000
 20
0.0000
 30
0.0000
 40
0.0005
 41
0.0005
 70
0
  0
VERTEX
  8
48
 10
21.4822
 20
14.8700
 30
0.0000
 42
1.0000
  0
VERTEX
  8
48
 10
21.4827
 20
14.8700
 30
0.0000
  0
SEQEND
  8
0
  0
POLYLINE
  8
48
 66
1
 10
0.0000
 20
0.0000
 30
0.0000
 40
0.0005
 41
0.0005
 70
0
  0
VERTEX
  8
48
 10
21.1774
 20
14.8700
 30
0.0000
 42
1.0000
  0
VERTEX
  8
48
 10
21.1779
 20
14.8700
 30
0.0000
  0
SEQEND
  8
0
  0
POLYLINE
  8
48
 66
1
 10
0.0000
 20
0.0000
 30
0.0000
 40
0.0010
 41
0.0010
 70
0
  0
VERTEX
  8
48
 10
21.1776
 20
9.0000
 30
0.0000
 42
1.0000
  0
VERTEX
  8
48
 10
21.4824
 20
9.0000
 30
0.0000
  0
SEQEND
  8
0
  0
POLYLINE
  8
48
 66
1
 10
0.0000
 20
0.0000
 30
0.0000
 40
0.0005
 41
0.0005
 70
0
  0
VERTEX
  8
48
 10
21.1779
 20
9.0000
 30
0.0000
 42
1.0000
  0
VERTEX
  8
48
 10
21.1774
 20
9.0000
 30
0.0000
  0
SEQEND
  8
0
  0
POLYLINE
  8
48
 66
1
 10
0.0000
 20
0.0000
 30
0.0000
 40
0.0005
 41
0.0005
 70
0
  0
VERTEX
  8
48
 10
21.4827
 20
9.0000
 30
0.0000
 42
1.0000
  0
VERTEX
  8
48
 10
21.4822
 20
9.0000
 30
0.0000
  0
SEQEND
  8
0
  0
POLYLINE
  8
48
 66
1
 10
0.0000
 20
0.0000
 30
0.0000
 40
0.0010
 41
0.0010
 70
0
  0
VERTEX
  8
48
 10
21.3300
 20
14.8700
 30
0.0000
  0
VERTEX
  8
48
 10
21.3078
 20
14.8922
 30
0.0000
  0
SEQEND
  8
0
  0
POLYLINE
  8
48
 66
1
 10
0.0000
 20
0.0000
 30
0.0000
 40
0.0005
 41
0.0005
 70
0
  0
VERTEX
  8
48
 10
21.3080
 20
14.8924
 30
0.0000
 42
1.0000
  0
VERTEX
  8
48
 10
21.3076
 20
14.8920
 30
0.0000
  0
SEQEND
  8
0
  0
POLYLINE
  8
48
 66
1
 10
0.0000
 20
0.0000
 30
0.0000
 40
0.0005
 41
0.0005
 70
0
  0
VERTEX
  8
48
 10
21.3298
 20
14.8698
 30
0.0000
 42
1.0000
  0
VERTEX
  8
48
 10
21.3302
 20
14.8702
 30
0.0000
  0
SEQEND
  8
0
  0
POLYLINE
  8
48
 66
1
 10
0.0000
 20
0.0000
 30
0.0000
 40
0.0010
 41
0.0010
 70
0
  0
VERTEX
  8
48
 10
21.3078
 20
14.8922
 30
0.0000
  0
VERTEX
  8
48
 10
21.2000
 20
15.0000
 30
0.0000
  0
SEQEND
  8
0
  0
POLYLINE
  8
48
 66
1
 10
0.0000
 20
0.0000
 30
0.0000
 40
0.0005
 41
0.0005
 70
0
  0
VERTEX
  8
48
 10
21.2002
 20
15.0002
 30
0.0000
 42
1.0000
  0
VERTEX
  8
48
 10
21.1998
 20
14.9998
 30
0.0000
  0
SEQEND
  8
0
  0
POLYLINE
  8
48
 66
1
 10
0.0000
 20
0.0000
 30
0.0000
 40
0.0005
 41
0.0005
 70
0
  0
VERTEX
  8
48
 10
21.3076
 20
14.8920
 30
0.0000
 42
1.0000
  0
VERTEX
  8
48
 10
21.3080
 20
14.8924
 30
0.0000
  0
SEQEND
  8
0
  0
POLYLINE
  8
48
 66
1
 10
0.0000
 20
0.0000
 30
0.0000
 40
0.0010
 41
0.0010
 70
0
  0
VERTEX
  8
48
 10
21.3078
 20
15.1078
 30
0.0000
 42
1.0000
  0
VERTEX
  8
48
 10
21.0922
 20
14.8922
 30
0.0000
  0
SEQEND
  8
0
  0
POLYLINE
  8
48
 66
1
 10
0.0000
 20
0.0000
 30
0.0000
 40
0.0005
 41
0.0005
 70
0
  0
VERTEX
  8
48
 10
21.3076
 20
15.1076
 30
0.0000
 42
1.0000
  0
VERTEX
  8
48
 10
21.3080
 20
15.1080
 30
0.0000
  0
SEQEND
  8
0
  0
POLYLINE
  8
48
 66
1
 10
0.0000
 20
0.0000
 30
0.0000
 40
0.0005
 41
0.0005
 70
0
  0
VERTEX
  8
48
 10
21.0920
 20
14.8920
 30
0.0000
 42
1.0000
  0
VERTEX
  8
48
 10
21.0924
 20
14.8924
 30
0.0000
  0
SEQEND
  8
0
  0
POLYLINE
  8
48
 66
1
 10
0.0000
 20
0.0000
 30
0.0000
 40
0.0010
 41
0.0010
 70
0
  0
VERTEX
  8
48
 10
21.2222
 20
14.7622
 30
0.0000
 42
1.0000
  0
VERTEX
  8
48
 10
21.4378
 20
14.9778
 30
0.0000
  0
SEQEND
  8
0
  0
POLYLINE
  8
48
 66
1
 10
0.0000
 20
0.0000
 30
0.0000
 40
0.0005
 41
0.0005
 70
0
  0
VERTEX
  8
48
 10
21.2224
 20
14.7624
 30
0.0000
 42
1.0000
  0
VERTEX
  8
48
 10
21.2220
 20
14.7620
 30
0.0000
  0
SEQEND
  8
0
  0
POLYLINE
  8
48
 66
1
 10
0.0000
 20
0.0000
 30
0.0000
 40
0.0005
 41
0.0005
 70
0
  0
VERTEX
  8
48
 10
21.4380
 20
14.9780
 30
0.0000
 42
1.0000
  0
VERTEX
  8
48
 10
21.4376
 20
14.9776
 30
0.0000
  0
SEQEND
  8
0
  0
POLYLINE
  8
48
 66
1
 10
0.0000
 20
0.0000
 30
0.0000
 40
0.0010
 41
0.0010
 70
0
  0
VERTEX
  8
48
 10
20.3300
 20
9.0000
 30
0.0000
  0
VERTEX
  8
48
 10
20.3300
 20
14.1300
 30
0.0000
  0
SEQEND
  8
0
  0
POLYLINE
  8
48
 66
1
 10
0.0000
 20
0.0000
 30
0.0000
 40
0.0005
 41
0.0005
 70
0
  0
VERTEX
  8
48
 10
20.3303
 20
14.1300
 30
0.0000
 42
1.0000
  0
VERTEX
  8
48
 10
20.3298
 20
14.1300
 30
0.0000
  0
SEQEND
  8
0
  0
POLYLINE
  8
48
 66
1
 10
0.0000
 20
0.0000
 30
0.0000
 40
0.0005
 41
0.0005
 70
0
  0
VERTEX
  8
48
 10
20.3298
 20
9.0000
 30
0.0000
 42
1.0000
  0
VERTEX
  8
48
 10
20.3303
 20
9.0000
 30
0.0000
  0
SEQEND
  8
0
  0
POLYLINE
  8
48
 66
1
 10
0.0000
 20
0.0000
 30
0.0000
 40
0.0010
 41
0.0010
 70
0
  0
VERTEX
  8
48
 10
20.4824
 20
14.1300
 30
0.0000
 42
1.0000
  0
VERTEX
  8
48
 10
20.1776
 20
14.1300
 30
0.0000
  0
SEQEND
  8
0
  0
POLYLINE
  8
48
 66
1
 10
0.0000
 20
0.0000
 30
0.0000
 40
0.0005
 41
0.0005
 70
0
  0
VERTEX
  8
48
 10
20.4822
 20
14.1300
 30
0.0000
 42
1.0000
  0
VERTEX
  8
48
 10
20.4827
 20
14.1300
 30
0.0000
  0
SEQEND
  8
0
  0
POLYLINE
  8
48
 66
1
 10
0.0000
 20
0.0000
 30
0.0000
 40
0.0005
 41
0.0005
 70
0
  0
VERTEX
  8
48
 10
20.1774
 20
14.1300
 30
0.0000
 42
1.0000
  0
VERTEX
  8
48
 10
20.1779
 20
14.1300
 30
0.0000
  0
SEQEND
  8
0
  0
POLYLINE
  8
48
 66
1
 10
0.0000
 20
0.0000
 30
0.0000
 40
0.0010
 41
0.0010
 70
0
  0
VERTEX
  8
48
 10
20.1776
 20
9.0000
 30
0.0000
 42
1.0000
  0
VERTEX
  8
48
 10
20.4824
 20
9.0000
 30
0.0000
  0
SEQEND
  8
0
  0
POLYLINE
  8
48
 66
1
 10
0.0000
 20
0.0000
 30
0.0000
 40
0.0005
 41
0.0005
 70
0
  0
VERTEX
  8
48
 10
20.1779
 20
9.0000
 30
0.0000
 42
1.0000
  0
VERTEX
  8
48
 10
20.1774
 20
9.0000
 30
0.0000
  0
SEQEND
  8
0
  0
POLYLINE
  8
48
 66
1
 10
0.0000
 20
0.0000
 30
0.0000
 40
0.0005
 41
0.0005
 70
0
  0
VERTEX
  8
48
 10
20.4827
 20
9.0000
 30
0.0000
 42
1.0000
  0
VERTEX
  8
48
 10
20.4822
 20
9.0000
 30
0.0000
  0
SEQEND
  8
0
  0
POLYLINE
  8
48
 66
1
 10
0.0000
 20
0.0000
 30
0.0000
 40
0.0010
 41
0.0010
 70
0
  0
VERTEX
  8
48
 10
20.3300
 20
14.1300
 30
0.0000
  0
VERTEX
  8
48
 10
21.2000
 20
15.0000
 30
0.0000
  0
SEQEND
  8
0
  0
POLYLINE
  8
48
 66
1
 10
0.0000
 20
0.0000
 30
0.0000
 40
0.0005
 41
0.0005
 70
0
  0
VERTEX
  8
48
 10
21.2002
 20
14.9998
 30
0.0000
 42
1.0000
  0
VERTEX
  8
48
 10
21.1998
 20
15.0002
 30
0.0000
  0
SEQEND
  8
0
  0
POLYLINE
  8
48
 66
1
 10
0.0000
 20
0.0000
 30
0.0000
 40
0.0005
 41
0.0005
 70
0
  0
VERTEX
  8
48
 10
20.3298
 20
14.1302
 30
0.0000
 42
1.0000
  0
VERTEX
  8
48
 10
20.3302
 20
14.1298
 30
0.0000
  0
SEQEND
  8
0
  0
POLYLINE
  8
48
 66
1
 10
0.0000
 20
0.0000
 30
0.0000
 40
0.0010
 41
0.0010
 70
0
  0
VERTEX
  8
48
 10
21.3078
 20
14.8922
 30
0.0000
 42
1.0000
  0
VERTEX
  8
48
 10
21.0922
 20
15.1078
 30
0.0000
  0
SEQEND
  8
0
  0
POLYLINE
  8
48
 66
1
 10
0.0000
 20
0.0000
 30
0.0000
 40
0.0005
 41
0.0005
 70
0
  0
VERTEX
  8
48
 10
21.3076
 20
14.8924
 30
0.0000
 42
1.0000
  0
VERTEX
  8
48
 10
21.3080
 20
14.8920
 30
0.0000
  0
SEQEND
  8
0
  0
POLYLINE
  8
48
 66
1
 10
0.0000
 20
0.0000
 30
0.0000
 40
0.0005
 41
0.0005
 70
0
  0
VERTEX
  8
48
 10
21.0920
 20
15.1080
 30
0.0000
 42
1.0000
  0
VERTEX
  8
48
 10
21.0924
 20
15.1076
 30
0.0000
  0
SEQEND
  8
0
  0
POLYLINE
  8
48
 66
1
 10
0.0000
 20
0.0000
 30
0.0000
 40
0.0010
 41
0.0010
 70
0
  0
VERTEX
  8
48
 10
20.2222
 20
14.2378
 30
0.0000
 42
1.0000
  0
VERTEX
  8
48
 10
20.4378
 20
14.0222
 30
0.0000
  0
SEQEND
  8
0
  0
POLYLINE
  8
48
 66
1
 10
0.0000
 20
0.0000
 30
0.0000
 40
0.0005
 41
0.0005
 70
0
  0
VERTEX
  8
48
 10
20.2224
 20
14.2376
 30
0.0000
 42
1.0000
  0
VERTEX
  8
48
 10
20.2220
 20
14.2380
 30
0.0000
  0
SEQEND
  8
0
  0
POLYLINE
  8
48
 66
1
 10
0.0000
 20
0.0000
 30
0.0000
 40
0.0005
 41
0.0005
 70
0
  0
VERTEX
  8
48
 10
20.4380
 20
14.0220
 30
0.0000
 42
1.0000
  0
VERTEX
  8
48
 10
20.4376
 20
14.0224
 30
0.0000
  0
SEQEND
  8
0
  0
POLYLINE
  8
48
 66
1
 10
0.0000
 20
0.0000
 30
0.0000
 40
0.0010
 41
0.0010
 70
0
  0
VERTEX
  8
48
 10
18.3300
 20
9.0000
 30
0.0000
  0
VERTEX
  8
48
 10
18.3300
 20
13.8700
 30
0.0000
  0
SEQEND
  8
0
  0
POLYLINE
  8
48
 66
1
 10
0.0000
 20
0.0000
 30
0.0000
 40
0.0005
 41
0.0005
 70
0
  0
VERTEX
  8
48
 10
18.3303
 20
13.8700
 30
0.0000
 42
1.0000
  0
VERTEX
  8
48
 10
18.3298
 20
13.8700
 30
0.0000
  0
SEQEND
  8
0
  0
POLYLINE
  8
48
 66
1
 10
0.0000
 20
0.0000
 30
0.0000
 40
0.0005
 41
0.0005
 70
0
  0
VERTEX
  8
48
 10
18.3298
 20
9.0000
 30
0.0000
 42
1.0000
  0
VERTEX
  8
48
 10
18.3303
 20
9.0000
 30
0.0000
  0
SEQEND
  8
0
  0
POLYLINE
  8
48
 66
1
 10
0.0000
 20
0.0000
 30
0.0000
 40
0.0010
 41
0.0010
 70
0
  0
VERTEX
  8
48
 10
18.4824
 20
13.8700
 30
0.0000
 42
1.0000
  0
VERTEX
  8
48
 10
18.1776
 20
13.8700
 30
0.0000
  0
SEQEND
  8
0
  0
POLYLINE
  8
48
 66
1
 10
0.0000
 20
0.0000
 30
0.0000
 40
0.0005
 41
0.0005
 70
0
  0
VERTEX
  8
48
 10
18.4822
 20
13.8700
 30
0.0000
 42
1.0000
  0
VERTEX
  8
48
 10
18.4827
 20
13.8700
 30
0.0000
  0
SEQEND
  8
0
  0
POLYLINE
  8
48
 66
1
 10
0.0000
 20
0.0000
 30
0.0000
 40
0.0005
 41
0.0005
 70
0
  0
VERTEX
  8
48
 10
18.1774
 20
13.8700
 30
0.0000
 42
1.0000
  0
VERTEX
  8
48
 10
18.1779
 20
13.8700
 30
0.0000
  0
SEQEND
  8
0
  0
POLYLINE
  8
48
 66
1
 10
0.0000
 20
0.0000
 30
0.0000
 40
0.0010
 41
0.0010
 70
0
  0
VERTEX
  8
48
 10
18.1776
 20
9.0000
 30
0.0000
 42
1.0000
  0
VERTEX
  8
48
 10
18.4824
 20
9.0000
 30
0.0000
  0
SEQEND
  8
0
  0
POLYLINE
  8
48
 66
1
 10
0.0000
 20
0.0000
 30
0.0000
 40
0.0005
 41
0.0005
 70
0
  0
VERTEX
  8
48
 10
18.1779
 20
9.0000
 30
0.0000
 42
1.0000
  0
VERTEX
  8
48
 10
18.1774
 20
9.0000
 30
0.0000
  0
SEQEND
  8
0
  0
POLYLINE
  8
48
 66
1
 10
0.0000
 20
0.0000
 30
0.0000
 40
0.0005
 41
0.0005
 70
0
  0
VERTEX
  8
48
 10
18.4827
 20
9.0000
 30
0.0000
 42
1.0000
  0
VERTEX
  8
48
 10
18.4822
 20
9.0000
 30
0.0000
  0
SEQEND
  8
0
  0
POLYLINE
  8
48
 66
1
 10
0.0000
 20
0.0000
 30
0.0000
 40
0.0010
 41
0.0010
 70
0
  0
VERTEX
  8
48
 10
18.3300
 20
13.8700
 30
0.0000
  0
VERTEX
  8
48
 10
17.2000
 20
15.0000
 30
0.0000
  0
SEQEND
  8
0
  0
POLYLINE
  8
48
 66
1
 10
0.0000
 20
0.0000
 30
0.0000
 40
0.0005
 41
0.0005
 70
0
  0
VERTEX
  8
48
 10
17.2002
 20
15.0002
 30
0.0000
 42
1.0000
  0
VERTEX
  8
48
 10
17.1998
 20
14.9998
 30
0.0000
  0
SEQEND
  8
0
  0
POLYLINE
  8
48
 66
1
 10
0.0000
 20
0.0000
 30
0.0000
 40
0.0005
 41
0.0005
 70
0
  0
VERTEX
  8
48
 10
18.3298
 20
13.8698
 30
0.0000
 42
1.0000
  0
VERTEX
  8
48
 10
18.3302
 20
13.8702
 30
0.0000
  0
SEQEND
  8
0
  0
POLYLINE
  8
48
 66
1
 10
0.0000
 20
0.0000
 30
0.0000
 40
0.0010
 41
0.0010
 70
0
  0
VERTEX
  8
48
 10
17.3078
 20
15.1078
 30
0.0000
 42
1.0000
  0
VERTEX
  8
48
 10
17.0922
 20
14.8922
 30
0.0000
  0
SEQEND
  8
0
  0
POLYLINE
  8
48
 66
1
 10
0.0000
 20
0.0000
 30
0.0000
 40
0.0005
 41
0.0005
 70
0
  0
VERTEX
  8
48
 10
17.3076
 20
15.1076
 30
0.0000
 42
1.0000
  0
VERTEX
  8
48
 10
17.3080
 20
15.1080
 30
0.0000
  0
SEQEND
  8
0
  0
POLYLINE
  8
48
 66
1
 10
0.0000
 20
0.0000
 30
0.0000
 40
0.0005
 41
0.0005
 70
0
  0
VERTEX
  8
48
 10
17.0920
 20
14.8920
 30
0.0000
 42
1.0000
  0
VERTEX
  8
48
 10
17.0924
 20
14.8924
 30
0.0000
  0
SEQEND
  8
0
  0
POLYLINE
  8
48
 66
1
 10
0.0000
 20
0.0000
 30
0.0000
 40
0.0010
 41
0.0010
 70
0
  0
VERTEX
  8
48
 10
18.2222
 20
13.7622
 30
0.0000
 42
1.0000
  0
VERTEX
  8
48
 10
18.4378
 20
13.9778
 30
0.0000
  0
SEQEND
  8
0
  0
POLYLINE
  8
48
 66
1
 10
0.0000
 20
0.0000
 30
0.0000
 40
0.0005
 41
0.0005
 70
0
  0
VERTEX
  8
48
 10
18.2224
 20
13.7624
 30
0.0000
 42
1.0000
  0
VERTEX
  8
48
 10
18.2220
 20
13.7620
 30
0.0000
  0
SEQEND
  8
0
  0
POLYLINE
  8
48
 66
1
 10
0.0000
 20
0.0000
 30
0.0000
 40
0.0005
 41
0.0005
 70
0
  0
VERTEX
  8
48
 10
18.4380
 20
13.9780
 30
0.0000
 42
1.0000
  0
VERTEX
  8
48
 10
18.4376
 20
13.9776
 30
0.0000
  0
SEQEND
  8
0
  0
POLYLINE
  8
48
 66
1
 10
0.0000
 20
0.0000
 30
0.0000
 40
0.0010
 41
0.0010
 70
0
  0
VERTEX
  8
48
 10
19.3300
 20
9.0000
 30
0.0000
  0
VERTEX
  8
48
 10
19.3300
 20
14.8700
 30
0.0000
  0
SEQEND
  8
0
  0
POLYLINE
  8
48
 66
1
 10
0.0000
 20
0.0000
 30
0.0000
 40
0.0005
 41
0.0005
 70
0
  0
VERTEX
  8
48
 10
19.3303
 20
14.8700
 30
0.0000
 42
1.0000
  0
VERTEX
  8
48
 10
19.3298
 20
14.8700
 30
0.0000
  0
SEQEND
  8
0
  0
POLYLINE
  8
48
 66
1
 10
0.0000
 20
0.0000
 30
0.0000
 40
0.0005
 41
0.0005
 70
0
  0
VERTEX
  8
48
 10
19.3298
 20
9.0000
 30
0.0000
 42
1.0000
  0
VERTEX
  8
48
 10
19.3303
 20
9.0000
 30
0.0000
  0
SEQEND
  8
0
  0
POLYLINE
  8
48
 66
1
 10
0.0000
 20
0.0000
 30
0.0000
 40
0.0010
 41
0.0010
 70
0
  0
VERTEX
  8
48
 10
19.4824
 20
14.8700
 30
0.0000
 42
1.0000
  0
VERTEX
  8
48
 10
19.1776
 20
14.8700
 30
0.0000
  0
SEQEND
  8
0
  0
POLYLINE
  8
48
 66
1
 10
0.0000
 20
0.0000
 30
0.0000
 40
0.0005
 41
0.0005
 70
0
  0
VERTEX
  8
48
 10
19.4822
 20
14.8700
 30
0.0000
 42
1.0000
  0
VERTEX
  8
48
 10
19.4827
 20
14.8700
 30
0.0000
  0
SEQEND
  8
0
  0
POLYLINE
  8
48
 66
1
 10
0.0000
 20
0.0000
 30
0.0000
 40
0.0005
 41
0.0005
 70
0
  0
VERTEX
  8
48
 10
19.1774
 20
14.8700
 30
0.0000
 42
1.0000
  0
VERTEX
  8
48
 10
19.1779
 20
14.8700
 30
0.0000
  0
SEQEND
  8
0
  0
POLYLINE
  8
48
 66
1
 10
0.0000
 20
0.0000
 30
0.0000
 40
0.0010
 41
0.0010
 70
0
  0
VERTEX
  8
48
 10
19.1776
 20
9.0000
 30
0.0000
 42
1.0000
  0
VERTEX
  8
48
 10
19.4824
 20
9.0000
 30
0.0000
  0
SEQEND
  8
0
  0
POLYLINE
  8
48
 66
1
 10
0.0000
 20
0.0000
 30
0.0000
 40
0.0005
 41
0.0005
 70
0
  0
VERTEX
  8
48
 10
19.1779
 20
9.0000
 30
0.0000
 42
1.0000
  0
VERTEX
  8
48
 10
19.1774
 20
9.0000
 30
0.0000
  0
SEQEND
  8
0
  0
POLYLINE
  8
48
 66
1
 10
0.0000
 20
0.0000
 30
0.0000
 40
0.0005
 41
0.0005
 70
0
  0
VERTEX
  8
48
 10
19.4827
 20
9.0000
 30
0.0000
 42
1.0000
  0
VERTEX
  8
48
 10
19.4822
 20
9.0000
 30
0.0000
  0
SEQEND
  8
0
  0
POLYLINE
  8
48
 66
1
 10
0.0000
 20
0.0000
 30
0.0000
 40
0.0010
 41
0.0010
 70
0
  0
VERTEX
  8
48
 10
19.3300
 20
14.8700
 30
0.0000
  0
VERTEX
  8
48
 10
19.2000
 20
15.0000
 30
0.0000
  0
SEQEND
  8
0
  0
POLYLINE
  8
48
 66
1
 10
0.0000
 20
0.0000
 30
0.0000
 40
0.0005
 41
0.0005
 70
0
  0
VERTEX
  8
48
 10
19.2002
 20
15.0002
 30
0.0000
 42
1.0000
  0
VERTEX
  8
48
 10
19.1998
 20
14.9998
 30
0.0000
  0
SEQEND
  8
0
  0
POLYLINE
  8
48
 66
1
 10
0.0000
 20
0.0000
 30
0.0000
 40
0.0005
 41
0.0005
 70
0
  0
VERTEX
  8
48
 10
19.3298
 20
14.8698
 30
0.0000
 42
1.0000
  0
VERTEX
  8
48
 10
19.3302
 20
14.8702
 30
0.0000
  0
SEQEND
  8
0
  0
POLYLINE
  8
48
 66
1
 10
0.0000
 20
0.0000
 30
0.0000
 40
0.0010
 41
0.0010
 70
0
  0
VERTEX
  8
48
 10
19.3078
 20
15.1078
 30
0.0000
 42
1.0000
  0
VERTEX
  8
48
 10
19.0922
 20
14.8922
 30
0.0000
  0
SEQEND
  8
0
  0
POLYLINE
  8
48
 66
1
 10
0.0000
 20
0.0000
 30
0.0000
 40
0.0005
 41
0.0005
 70
0
  0
VERTEX
  8
48
 10
19.3076
 20
15.1076
 30
0.0000
 42
1.0000
  0
VERTEX
  8
48
 10
19.3080
 20
15.1080
 30
0.0000
  0
SEQEND
  8
0
  0
POLYLINE
  8
48
 66
1
 10
0.0000
 20
0.0000
 30
0.0000
 40
0.0005
 41
0.0005
 70
0
  0
VERTEX
  8
48
 10
19.0920
 20
14.8920
 30
0.0000
 42
1.0000
  0
VERTEX
  8
48
 10
19.0924
 20
14.8924
 30
0.0000
  0
SEQEND
  8
0
  0
POLYLINE
  8
48
 66
1
 10
0.0000
 20
0.0000
 30
0.0000
 40
0.0010
 41
0.0010
 70
0
  0
VERTEX
  8
48
 10
19.2222
 20
14.7622
 30
0.0000
 42
1.0000
  0
VERTEX
  8
48
 10
19.4378
 20
14.9778
 30
0.0000
  0
SEQEND
  8
0
  0
POLYLINE
  8
48
 66
1
 10
0.0000
 20
0.0000
 30
0.0000
 40
0.0005
 41
0.0005
 70
0
  0
VERTEX
  8
48
 10
19.2224
 20
14.7624
 30
0.0000
 42
1.0000
  0
VERTEX
  8
48
 10
19.2220
 20
14.7620
 30
0.0000
  0
SEQEND
  8
0
  0
POLYLINE
  8
48
 66
1
 10
0.0000
 20
0.0000
 30
0.0000
 40
0.0005
 41
0.0005
 70
0
  0
VERTEX
  8
48
 10
19.4380
 20
14.9780
 30
0.0000
 42
1.0000
  0
VERTEX
  8
48
 10
19.4376
 20
14.9776
 30
0.0000
  0
SEQEND
  8
0
  0
POLYLINE
  8
48
 66
1
 10
0.0000
 20
0.0000
 30
0.0000
 40
0.0010
 41
0.0010
 70
0
  0
VERTEX
  8
48
 10
19.2000
 20
15.0000
 30
0.0000
  0
VERTEX
  8
48
 10
17.2000
 20
15.0000
 30
0.0000
  0
SEQEND
  8
0
  0
POLYLINE
  8
48
 66
1
 10
0.0000
 20
0.0000
 30
0.0000
 40
0.0005
 41
0.0005
 70
0
  0
VERTEX
  8
48
 10
17.2000
 20
15.0002
 30
0.0000
 42
1.0000
  0
VERTEX
  8
48
 10
17.2000
 20
14.9998
 30
0.0000
  0
SEQEND
  8
0
  0
POLYLINE
  8
48
 66
1
 10
0.0000
 20
0.0000
 30
0.0000
 40
0.0005
 41
0.0005
 70
0
  0
VERTEX
  8
48
 10
19.2000
 20
14.9998
 30
0.0000
 42
1.0000
  0
VERTEX
  8
48
 10
19.2000
 20
15.0002
 30
0.0000
  0
SEQEND
  8
0
  0
POLYLINE
  8
48
 66
1
 10
0.0000
 20
0.0000
 30
0.0000
 40
0.0010
 41
0.0010
 70
0
  0
VERTEX
  8
48
 10
17.2000
 20
15.1524
 30
0.0000
 42
1.0000
  0
VERTEX
  8
48
 10
17.2000
 20
14.8476
 30
0.0000
  0
SEQEND
  8
0
  0
POLYLINE
  8
48
 66
1
 10
0.0000
 20
0.0000
 30
0.0000
 40
0.0005
 41
0.0005
 70
0
  0
VERTEX
  8
48
 10
17.2000
 20
15.1522
 30
0.0000
 42
1.0000
  0
VERTEX
  8
48
 10
17.2000
 20
15.1526
 30
0.0000
  0
SEQEND
  8
0
  0
POLYLINE
  8
48
 66
1
 10
0.0000
 20
0.0000
 30
0.0000
 40
0.0005
 41
0.0005
 70
0
  0
VERTEX
  8
48
 10
17.2000
 20
14.8474
 30
0.0000
 42
1.0000
  0
VERTEX
  8
48
 10
17.2000
 20
14.8478
 30
0.0000
  0
SEQEND
  8
0
  0
POLYLINE
  8
48
 66
1
 10
0.0000
 20
0.0000
 30
0.0000
 40
0.0010
 41
0.0010
 70
0
  0
VERTEX
  8
48
 10
19.2000
 20
14.8476
 30
0.0000
 42
1.0000
  0
VERTEX
  8
48
 10
19.2000
 20
15.1524
 30
0.0000
  0
SEQEND
  8
0
  0
POLYLINE
  8
48
 66
1
 10
0.0000
 20
0.0000
 30
0.0000
 40
0.0005
 41
0.0005
 70
0
  0
VERTEX
  8
48
 10
19.2000
 20
14.8478
 30
0.0000
 42
1.0000
  0
VERTEX
  8
48
 10
19.2000
 20
14.8474
 30
0.0000
  0
SEQEND
  8
0
  0
POLYLINE
  8
48
 66
1
 10
0.0000
 20
0.0000
 30
0.0000
 40
0.0005
 41
0.0005
 70
0
  0
VERTEX
  8
48
 10
19.2000
 20
15.1526
 30
0.0000
 42
1.0000
  0
VERTEX
  8
48
 10
19.2000
 20
15.1522
 30
0.0000
  0
SEQEND
  8
0
  0
POLYLINE
  8
48
 66
1
 10
0.0000
 20
0.0000
 30
0.0000
 40
0.0010
 41
0.0010
 70
0
  0
VERTEX
  8
48
 10
28.3300
 20
9.0000
 30
0.0000
  0
VERTEX
  8
48
 10
28.3300
 20
14.1300
 30
0.0000
  0
SEQEND
  8
0
  0
POLYLINE
  8
48
 66
1
 10
0.0000
 20
0.0000
 30
0.0000
 40
0.0005
 41
0.0005
 70
0
  0
VERTEX
  8
48
 10
28.3303
 20
14.1300
 30
0.0000
 42
1.0000
  0
VERTEX
  8
48
 10
28.3298
 20
14.1300
 30
0.0000
  0
SEQEND
  8
0
  0
POLYLINE
  8
48
 66
1
 10
0.0000
 20
0.0000
 30
0.0000
 40
0.0005
 41
0.0005
 70
0
  0
VERTEX
  8
48
 10
28.3298
 20
9.0000
 30
0.0000
 42
1.0000
  0
VERTEX
  8
48
 10
28.3303
 20
9.0000
 30
0.0000
  0
SEQEND
  8
0
  0
POLYLINE
  8
48
 66
1
 10
0.0000
 20
0.0000
 30
0.0000
 40
0.0010
 41
0.0010
 70
0
  0
VERTEX
  8
48
 10
28.4824
 20
14.1300
 30
0.0000
 42
1.0000
  0
VERTEX
  8
48
 10
28.1776
 20
14.1300
 30
0.0000
  0
SEQEND
  8
0
  0
POLYLINE
  8
48
 66
1
 10
0.0000
 20
0.0000
 30
0.0000
 40
0.0005
 41
0.0005
 70
0
  0
VERTEX
  8
48
 10
28.4822
 20
14.1300
 30
0.0000
 42
1.0000
  0
VERTEX
  8
48
 10
28.4827
 20
14.1300
 30
0.0000
  0
SEQEND
  8
0
  0
POLYLINE
  8
48
 66
1
 10
0.0000
 20
0.0000
 30
0.0000
 40
0.0005
 41
0.0005
 70
0
  0
VERTEX
  8
48
 10
28.1774
 20
14.1300
 30
0.0000
 42
1.0000
  0
VERTEX
  8
48
 10
28.1779
 20
14.1300
 30
0.0000
  0
SEQEND
  8
0
  0
POLYLINE
  8
48
 66
1
 10
0.0000
 20
0.0000
 30
0.0000
 40
0.0010
 41
0.0010
 70
0
  0
VERTEX
  8
48
 10
28.1776
 20
9.0000
 30
0.0000
 42
1.0000
  0
VERTEX
  8
48
 10
28.4824
 20
9.0000
 30
0.0000
  0
SEQEND
  8
0
  0
POLYLINE
  8
48
 66
1
 10
0.0000
 20
0.0000
 30
0.0000
 40
0.0005
 41
0.0005
 70
0
  0
VERTEX
  8
48
 10
28.1779
 20
9.0000
 30
0.0000
 42
1.0000
  0
VERTEX
  8
48
 10
28.1774
 20
9.0000
 30
0.0000
  0
SEQEND
  8
0
  0
POLYLINE
  8
48
 66
1
 10
0.0000
 20
0.0000
 30
0.0000
 40
0.0005
 41
0.0005
 70
0
  0
VERTEX
  8
48
 10
28.4827
 20
9.0000
 30
0.0000
 42
1.0000
  0
VERTEX
  8
48
 10
28.4822
 20
9.0000
 30
0.0000
  0
SEQEND
  8
0
  0
POLYLINE
  8
48
 66
1
 10
0.0000
 20
0.0000
 30
0.0000
 40
0.0010
 41
0.0010
 70
0
  0
VERTEX
  8
48
 10
28.3300
 20
14.1300
 30
0.0000
  0
VERTEX
  8
48
 10
29.2000
 20
15.0000
 30
0.0000
  0
SEQEND
  8
0
  0
POLYLINE
  8
48
 66
1
 10
0.0000
 20
0.0000
 30
0.0000
 40
0.0005
 41
0.0005
 70
0
  0
VERTEX
  8
48
 10
29.2002
 20
14.9998
 30
0.0000
 42
1.0000
  0
VERTEX
  8
48
 10
29.1998
 20
15.0002
 30
0.0000
  0
SEQEND
  8
0
  0
POLYLINE
  8
48
 66
1
 10
0.0000
 20
0.0000
 30
0.0000
 40
0.0005
 41
0.0005
 70
0
  0
VERTEX
  8
48
 10
28.3298
 20
14.1302
 30
0.0000
 42
1.0000
  0
VERTEX
  8
48
 10
28.3302
 20
14.1298
 30
0.0000
  0
SEQEND
  8
0
  0
POLYLINE
  8
48
 66
1
 10
0.0000
 20
0.0000
 30
0.0000
 40
0.0010
 41
0.0010
 70
0
  0
VERTEX
  8
48
 10
29.3078
 20
14.8922
 30
0.0000
 42
1.0000
  0
VERTEX
  8
48
 10
29.0922
 20
15.1078
 30
0.0000
  0
SEQEND
  8
0
  0
POLYLINE
  8
48
 66
1
 10
0.0000
 20
0.0000
 30
0.0000
 40
0.0005
 41
0.0005
 70
0
  0
VERTEX
  8
48
 10
29.3076
 20
14.8924
 30
0.0000
 42
1.0000
  0
VERTEX
  8
48
 10
29.3080
 20
14.8920
 30
0.0000
  0
SEQEND
  8
0
  0
POLYLINE
  8
48
 66
1
 10
0.0000
 20
0.0000
 30
0.0000
 40
0.0005
 41
0.0005
 70
0
  0
VERTEX
  8
48
 10
29.0920
 20
15.1080
 30
0.0000
 42
1.0000
  0
VERTEX
  8
48
 10
29.0924
 20
15.1076
 30
0.0000
  0
SEQEND
  8
0
  0
POLYLINE
  8
48
 66
1
 10
0.0000
 20
0.0000
 30
0.0000
 40
0.0010
 41
0.0010
 70
0
  0
VERTEX
  8
48
 10
28.2222
 20
14.2378
 30
0.0000
 42
1.0000
  0
VERTEX
  8
48
 10
28.4378
 20
14.0222
 30
0.0000
  0
SEQEND
  8
0
  0
POLYLINE
  8
48
 66
1
 10
0.0000
 20
0.0000
 30
0.0000
 40
0.0005
 41
0.0005
 70
0
  0
VERTEX
  8
48
 10
28.2224
 20
14.2376
 30
0.0000
 42
1.0000
  0
VERTEX
  8
48
 10
28.2220
 20
14.2380
 30
0.0000
  0
SEQEND
  8
0
  0
POLYLINE
  8
48
 66
1
 10
0.0000
 20
0.0000
 30
0.0000
 40
0.0005
 41
0.0005
 70
0
  0
VERTEX
  8
48
 10
28.4380
 20
14.0220
 30
0.0000
 42
1.0000
  0
VERTEX
  8
48
 10
28.4376
 20
14.0224
 30
0.0000
  0
SEQEND
  8
0
  0
POLYLINE
  8
48
 66
1
 10
0.0000
 20
0.0000
 30
0.0000
 40
0.0010
 41
0.0010
 70
0
  0
VERTEX
  8
48
 10
27.3300
 20
9.0000
 30
0.0000
  0
VERTEX
  8
48
 10
27.3300
 20
12.8700
 30
0.0000
  0
SEQEND
  8
0
  0
POLYLINE
  8
48
 66
1
 10
0.0000
 20
0.0000
 30
0.0000
 40
0.0005
 41
0.0005
 70
0
  0
VERTEX
  8
48
 10
27.3303
 20
12.8700
 30
0.0000
 42
1.0000
  0
VERTEX
  8
48
 10
27.3298
 20
12.8700
 30
0.0000
  0
SEQEND
  8
0
  0
POLYLINE
  8
48
 66
1
 10
0.0000
 20
0.0000
 30
0.0000
 40
0.0005
 41
0.0005
 70
0
  0
VERTEX
  8
48
 10
27.3298
 20
9.0000
 30
0.0000
 42
1.0000
  0
VERTEX
  8
48
 10
27.3303
 20
9.0000
 30
0.0000
  0
SEQEND
  8
0
  0
POLYLINE
  8
48
 66
1
 10
0.0000
 20
0.0000
 30
0.0000
 40
0.0010
 41
0.0010
 70
0
  0
VERTEX
  8
48
 10
27.4824
 20
12.8700
 30
0.0000
 42
1.0000
  0
VERTEX
  8
48
 10
27.1776
 20
12.8700
 30
0.0000
  0
SEQEND
  8
0
  0
POLYLINE
  8
48
 66
1
 10
0.0000
 20
0.0000
 30
0.0000
 40
0.0005
 41
0.0005
 70
0
  0
VERTEX
  8
48
 10
27.4822
 20
12.8700
 30
0.0000
 42
1.0000
  0
VERTEX
  8
48
 10
27.4827
 20
12.8700
 30
0.0000
  0
SEQEND
  8
0
  0
POLYLINE
  8
48
 66
1
 10
0.0000
 20
0.0000
 30
0.0000
 40
0.0005
 41
0.0005
 70
0
  0
VERTEX
  8
48
 10
27.1774
 20
12.8700
 30
0.0000
 42
1.0000
  0
VERTEX
  8
48
 10
27.1779
 20
12.8700
 30
0.0000
  0
SEQEND
  8
0
  0
POLYLINE
  8
48
 66
1
 10
0.0000
 20
0.0000
 30
0.0000
 40
0.0010
 41
0.0010
 70
0
  0
VERTEX
  8
48
 10
27.1776
 20
9.0000
 30
0.0000
 42
1.0000
  0
VERTEX
  8
48
 10
27.4824
 20
9.0000
 30
0.0000
  0
SEQEND
  8
0
  0
POLYLINE
  8
48
 66
1
 10
0.0000
 20
0.0000
 30
0.0000
 40
0.0005
 41
0.0005
 70
0
  0
VERTEX
  8
48
 10
27.1779
 20
9.0000
 30
0.0000
 42
1.0000
  0
VERTEX
  8
48
 10
27.1774
 20
9.0000
 30
0.0000
  0
SEQEND
  8
0
  0
POLYLINE
  8
48
 66
1
 10
0.0000
 20
0.0000
 30
0.0000
 40
0.0005
 41
0.0005
 70
0
  0
VERTEX
  8
48
 10
27.4827
 20
9.0000
 30
0.0000
 42
1.0000
  0
VERTEX
  8
48
 10
27.4822
 20
9.0000
 30
0.0000
  0
SEQEND
  8
0
  0
POLYLINE
  8
48
 66
1
 10
0.0000
 20
0.0000
 30
0.0000
 40
0.0010
 41
0.0010
 70
0
  0
VERTEX
  8
48
 10
27.3300
 20
12.8700
 30
0.0000
  0
VERTEX
  8
48
 10
25.2000
 20
15.0000
 30
0.0000
  0
SEQEND
  8
0
  0
POLYLINE
  8
48
 66
1
 10
0.0000
 20
0.0000
 30
0.0000
 40
0.0005
 41
0.0005
 70
0
  0
VERTEX
  8
48
 10
25.2002
 20
15.0002
 30
0.0000
 42
1.0000
  0
VERTEX
  8
48
 10
25.1998
 20
14.9998
 30
0.0000
  0
SEQEND
  8
0
  0
POLYLINE
  8
48
 66
1
 10
0.0000
 20
0.0000
 30
0.0000
 40
0.0005
 41
0.0005
 70
0
  0
VERTEX
  8
48
 10
27.3298
 20
12.8698
 30
0.0000
 42
1.0000
  0
VERTEX
  8
48
 10
27.3302
 20
12.8702
 30
0.0000
  0
SEQEND
  8
0
  0
POLYLINE
  8
48
 66
1
 10
0.0000
 20
0.0000
 30
0.0000
 40
0.0010
 41
0.0010
 70
0
  0
VERTEX
  8
48
 10
25.3078
 20
15.1078
 30
0.0000
 42
1.0000
  0
VERTEX
  8
48
 10
25.0922
 20
14.8922
 30
0.0000
  0
SEQEND
  8
0
  0
POLYLINE
  8
48
 66
1
 10
0.0000
 20
0.0000
 30
0.0000
 40
0.0005
 41
0.0005
 70
0
  0
VERTEX
  8
48
 10
25.3076
 20
15.1076
 30
0.0000
 42
1.0000
  0
VERTEX
  8
48
 10
25.3080
 20
15.1080
 30
0.0000
  0
SEQEND
  8
0
  0
POLYLINE
  8
48
 66
1
 10
0.0000
 20
0.0000
 30
0.0000
 40
0.0005
 41
0.0005
 70
0
  0
VERTEX
  8
48
 10
25.0920
 20
14.8920
 30
0.0000
 42
1.0000
  0
VERTEX
  8
48
 10
25.0924
 20
14.8924
 30
0.0000
  0
SEQEND
  8
0
  0
POLYLINE
  8
48
 66
1
 10
0.0000
 20
0.0000
 30
0.0000
 40
0.0010
 41
0.0010
 70
0
  0
VERTEX
  8
48
 10
27.2222
 20
12.7622
 30
0.0000
 42
1.0000
  0
VERTEX
  8
48
 10
27.4378
 20
12.9778
 30
0.0000
  0
SEQEND
  8
0
  0
POLYLINE
  8
48
 66
1
 10
0.0000
 20
0.0000
 30
0.0000
 40
0.0005
 41
0.0005
 70
0
  0
VERTEX
  8
48
 10
27.2224
 20
12.7624
 30
0.0000
 42
1.0000
  0
VERTEX
  8
48
 10
27.2220
 20
12.7620
 30
0.0000
  0
SEQEND
  8
0
  0
POLYLINE
  8
48
 66
1
 10
0.0000
 20
0.0000
 30
0.0000
 40
0.0005
 41
0.0005
 70
0
  0
VERTEX
  8
48
 10
27.4380
 20
12.9780
 30
0.0000
 42
1.0000
  0
VERTEX
  8
48
 10
27.4376
 20
12.9776
 30
0.0000
  0
SEQEND
  8
0
  0
POLYLINE
  8
21
 66
1
 10
0.0000
 20
0.0000
 30
0.0000
 40
0.2000
 41
0.2000
 70
0
  0
VERTEX
  8
21
 10
14.7000
 20
5.0600
 30
0.0000
  0
VERTEX
  8
21
 10
14.7000
 20
18.0100
 30
0.0000
  0
SEQEND
  8
0
  0
POLYLINE
  8
21
 66
1
 10
0.0000
 20
0.0000
 30
0.0000
 40
0.1000
 41
0.1000
 70
0
  0
VERTEX
  8
21
 10
14.7500
 20
18.0100
 30
0.0000
 42
1.0000
  0
VERTEX
  8
21
 10
14.6500
 20
18.0100
 30
0.0000
  0
SEQEND
  8
0
  0
POLYLINE
  8
21
 66
1
 10
0.0000
 20
0.0000
 30
0.0000
 40
0.1000
 41
0.1000
 70
0
  0
VERTEX
  8
21
 10
14.6500
 20
5.0600
 30
0.0000
 42
1.0000
  0
VERTEX
  8
21
 10
14.7500
 20
5.0600
 30
0.0000
  0
SEQEND
  8
0
  0
POLYLINE
  8
21
 66
1
 10
0.0000
 20
0.0000
 30
0.0000
 40
0.2000
 41
0.2000
 70
0
  0
VERTEX
  8
21
 10
14.7000
 20
18.0100
 30
0.0000
  0
VERTEX
  8
21
 10
31.7300
 20
18.0100
 30
0.0000
  0
SEQEND
  8
0
  0
POLYLINE
  8
21
 66
1
 10
0.0000
 20
0.0000
 30
0.0000
 40
0.1000
 41
0.1000
 70
0
  0
VERTEX
  8
21
 10
31.7300
 20
17.9600
 30
0.0000
 42
1.0000
  0
VERTEX
  8
21
 10
31.7300
 20
18.0600
 30
0.0000
  0
SEQEND
  8
0
  0
POLYLINE
  8
21
 66
1
 10
0.0000
 20
0.0000
 30
0.0000
 40
0.1000
 41
0.1000
 70
0
  0
VERTEX
  8
21
 10
14.7000
 20
18.0600
 30
0.0000
 42
1.0000
  0
VERTEX
  8
21
 10
14.7000
 20
17.9600
 30
0.0000
  0
SEQEND
  8
0
  0
POLYLINE
  8
21
 66
1
 10
0.0000
 20
0.0000
 30
0.0000
 40
0.2000
 41
0.2000
 70
0
  0
VERTEX
  8
21
 10
31.7300
 20
18.0100
 30
0.0000
  0
VERTEX
  8
21
 10
31.7300
 20
5.0400
 30
0.0000
  0
SEQEND
  8
0
  0
POLYLINE
  8
21
 66
1
 10
0.0000
 20
0.0000
 30
0.0000
 40
0.1000
 41
0.1000
 70
0
  0
VERTEX
  8
21
 10
31.6800
 20
5.0400
 30
0.0000
 42
1.0000
  0
VERTEX
  8
21
 10
31.7800
 20
5.0400
 30
0.0000
  0
SEQEND
  8
0
  0
POLYLINE
  8
21
 66
1
 10
0.0000
 20
0.0000
 30
0.0000
 40
0.1000
 41
0.1000
 70
0
  0
VERTEX
  8
21
 10
31.7800
 20
18.0100
 30
0.0000
 42
1.0000
  0
VERTEX
  8
21
 10
31.6800
 20
18.0100
 30
0.0000
  0
SEQEND
  8
0
  0
POLYLINE
  8
21
 66
1
 10
0.0000
 20
0.0000
 30
0.0000
 40
0.2000
 41
0.2000
 70
0
  0
VERTEX
  8
21
 10
31.7300
 20
5.0400
 30
0.0000
  0
VERTEX
  8
21
 10
31.7000
 20
5.0400
 30
0.0000
  0
SEQEND
  8
0
  0
POLYLINE
  8
21
 66
1
 10
0.0000
 20
0.0000
 30
0.0000
 40
0.1000
 41
0.1000
 70
0
  0
VERTEX
  8
21
 10
31.7000
 20
5.0900
 30
0.0000
 42
1.0000
  0
VERTEX
  8
21
 10
31.7000
 20
4.9900
 30
0.0000
  0
SEQEND
  8
0
  0
POLYLINE
  8
21
 66
1
 10
0.0000
 20
0.0000
 30
0.0000
 40
0.1000
 41
0.1000
 70
0
  0
VERTEX
  8
21
 10
31.7300
 20
4.9900
 30
0.0000
 42
1.0000
  0
VERTEX
  8
21
 10
31.7300
 20
5.0900
 30
0.0000
  0
SEQEND
  8
0
  0
POLYLINE
  8
21
 66
1
 10
0.0000
 20
0.0000
 30
0.0000
 40
0.1524
 41
0.1524
 70
0
  0
VERTEX
  8
21
 10
3.0584
 20
18.0193
 30
0.0000
  0
VERTEX
  8
21
 10
3.3293
 20
18.0193
 30
0.0000
  0
SEQEND
  8
0
  0
POLYLINE
  8
21
 66
1
 10
0.0000
 20
0.0000
 30
0.0000
 40
0.0762
 41
0.0762
 70
0
  0
VERTEX
  8
21
 10
3.3293
 20
17.9812
 30
0.0000
 42
1.0000
  0
VERTEX
  8
21
 10
3.3293
 20
18.0574
 30
0.0000
  0
SEQEND
  8
0
  0
POLYLINE
  8
21
 66
1
 10
0.0000
 20
0.0000
 30
0.0000
 40
0.0762
 41
0.0762
 70
0
  0
VERTEX
  8
21
 10
3.0584
 20
18.0574
 30
0.0000
 42
1.0000
  0
VERTEX
  8
21
 10
3.0584
 20
17.9812
 30
0.0000
  0
SEQEND
  8
0
  0
POLYLINE
  8
21
 66
1
 10
0.0000
 20
0.0000
 30
0.0000
 40
0.1524
 41
0.1524
 70
0
  0
VERTEX
  8
21
 10
3.3293
 20
18.0193
 30
0.0000
  0
VERTEX
  8
21
 10
3.3293
 20
17.1162
 30
0.0000
  0
SEQEND
  8
0
  0
POLYLINE
  8
21
 66
1
 10
0.0000
 20
0.0000
 30
0.0000
 40
0.0762
 41
0.0762
 70
0
  0
VERTEX
  8
21
 10
3.2912
 20
17.1162
 30
0.0000
 42
1.0000
  0
VERTEX
  8
21
 10
3.3674
 20
17.1162
 30
0.0000
  0
SEQEND
  8
0
  0
POLYLINE
  8
21
 66
1
 10
0.0000
 20
0.0000
 30
0.0000
 40
0.0762
 41
0.0762
 70
0
  0
VERTEX
  8
21
 10
3.3674
 20
18.0193
 30
0.0000
 42
1.0000
  0
VERTEX
  8
21
 10
3.2912
 20
18.0193
 30
0.0000
  0
SEQEND
  8
0
  0
POLYLINE
  8
21
 66
1
 10
0.0000
 20
0.0000
 30
0.0000
 40
0.1524
 41
0.1524
 70
0
  0
VERTEX
  8
21
 10
3.3293
 20
17.1162
 30
0.0000
  0
VERTEX
  8
21
 10
2.7874
 20
17.1162
 30
0.0000
  0
SEQEND
  8
0
  0
POLYLINE
  8
21
 66
1
 10
0.0000
 20
0.0000
 30
0.0000
 40
0.0762
 41
0.0762
 70
0
  0
VERTEX
  8
21
 10
2.7874
 20
17.1543
 30
0.0000
 42
1.0000
  0
VERTEX
  8
21
 10
2.7874
 20
17.0781
 30
0.0000
  0
SEQEND
  8
0
  0
POLYLINE
  8
21
 66
1
 10
0.0000
 20
0.0000
 30
0.0000
 40
0.0762
 41
0.0762
 70
0
  0
VERTEX
  8
21
 10
3.3293
 20
17.0781
 30
0.0000
 42
1.0000
  0
VERTEX
  8
21
 10
3.3293
 20
17.1543
 30
0.0000
  0
SEQEND
  8
0
  0
POLYLINE
  8
21
 66
1
 10
0.0000
 20
0.0000
 30
0.0000
 40
0.1524
 41
0.1524
 70
0
  0
VERTEX
  8
21
 10
2.4262
 20
17.4774
 30
0.0000
 42
0.4142
  0
VERTEX
  8
21
 10
2.7874
 20
17.1162
 30
0.0000
  0
SEQEND
  8
0
  0
POLYLINE
  8
21
 66
1
 10
0.0000
 20
0.0000
 30
0.0000
 40
0.0762
 41
0.0762
 70
0
  0
VERTEX
  8
21
 10
2.4643
 20
17.4774
 30
0.0000
 42
1.0000
  0
VERTEX
  8
21
 10
2.3881
 20
17.4774
 30
0.0000
  0
SEQEND
  8
0
  0
POLYLINE
  8
21
 66
1
 10
0.0000
 20
0.0000
 30
0.0000
 40
0.0762
 41
0.0762
 70
0
  0
VERTEX
  8
21
 10
2.7874
 20
17.0781
 30
0.0000
 42
1.0000
  0
VERTEX
  8
21
 10
2.7874
 20
17.1543
 30
0.0000
  0
SEQEND
  8
0
  0
POLYLINE
  8
21
 66
1
 10
0.0000
 20
0.0000
 30
0.0000
 40
0.1524
 41
0.1524
 70
0
  0
VERTEX
  8
21
 10
2.4262
 20
17.4774
 30
0.0000
  0
VERTEX
  8
21
 10
2.4262
 20
18.3806
 30
0.0000
  0
SEQEND
  8
0
  0
POLYLINE
  8
21
 66
1
 10
0.0000
 20
0.0000
 30
0.0000
 40
0.0762
 41
0.0762
 70
0
  0
VERTEX
  8
21
 10
2.4643
 20
18.3806
 30
0.0000
 42
1.0000
  0
VERTEX
  8
21
 10
2.3881
 20
18.3806
 30
0.0000
  0
SEQEND
  8
0
  0
POLYLINE
  8
21
 66
1
 10
0.0000
 20
0.0000
 30
0.0000
 40
0.0762
 41
0.0762
 70
0
  0
VERTEX
  8
21
 10
2.3881
 20
17.4774
 30
0.0000
 42
1.0000
  0
VERTEX
  8
21
 10
2.4643
 20
17.4774
 30
0.0000
  0
SEQEND
  8
0
  0
POLYLINE
  8
21
 66
1
 10
0.0000
 20
0.0000
 30
0.0000
 40
0.1524
 41
0.1524
 70
0
  0
VERTEX
  8
21
 10
2.7874
 20
18.7418
 30
0.0000
 42
0.4142
  0
VERTEX
  8
21
 10
2.4262
 20
18.3806
 30
0.0000
  0
SEQEND
  8
0
  0
POLYLINE
  8
21
 66
1
 10
0.0000
 20
0.0000
 30
0.0000
 40
0.0762
 41
0.0762
 70
0
  0
VERTEX
  8
21
 10
2.7874
 20
18.7037
 30
0.0000
 42
1.0000
  0
VERTEX
  8
21
 10
2.7874
 20
18.7799
 30
0.0000
  0
SEQEND
  8
0
  0
POLYLINE
  8
21
 66
1
 10
0.0000
 20
0.0000
 30
0.0000
 40
0.0762
 41
0.0762
 70
0
  0
VERTEX
  8
21
 10
2.3881
 20
18.3806
 30
0.0000
 42
1.0000
  0
VERTEX
  8
21
 10
2.4643
 20
18.3806
 30
0.0000
  0
SEQEND
  8
0
  0
POLYLINE
  8
21
 66
1
 10
0.0000
 20
0.0000
 30
0.0000
 40
0.1524
 41
0.1524
 70
0
  0
VERTEX
  8
21
 10
2.7874
 20
18.7418
 30
0.0000
  0
VERTEX
  8
21
 10
3.3293
 20
18.7418
 30
0.0000
  0
SEQEND
  8
0
  0
POLYLINE
  8
21
 66
1
 10
0.0000
 20
0.0000
 30
0.0000
 40
0.0762
 41
0.0762
 70
0
  0
VERTEX
  8
21
 10
3.3293
 20
18.7037
 30
0.0000
 42
1.0000
  0
VERTEX
  8
21
 10
3.3293
 20
18.7799
 30
0.0000
  0
SEQEND
  8
0
  0
POLYLINE
  8
21
 66
1
 10
0.0000
 20
0.0000
 30
0.0000
 40
0.0762
 41
0.0762
 70
0
  0
VERTEX
  8
21
 10
2.7874
 20
18.7799
 30
0.0000
 42
1.0000
  0
VERTEX
  8
21
 10
2.7874
 20
18.7037
 30
0.0000
  0
SEQEND
  8
0
  0
POLYLINE
  8
21
 66
1
 10
0.0000
 20
0.0000
 30
0.0000
 40
0.1524
 41
0.1524
 70
0
  0
VERTEX
  8
21
 10
4.0935
 20
17.1162
 30
0.0000
  0
VERTEX
  8
21
 10
4.0935
 20
18.7418
 30
0.0000
  0
SEQEND
  8
0
  0
POLYLINE
  8
21
 66
1
 10
0.0000
 20
0.0000
 30
0.0000
 40
0.0762
 41
0.0762
 70
0
  0
VERTEX
  8
21
 10
4.1316
 20
18.7418
 30
0.0000
 42
1.0000
  0
VERTEX
  8
21
 10
4.0554
 20
18.7418
 30
0.0000
  0
SEQEND
  8
0
  0
POLYLINE
  8
21
 66
1
 10
0.0000
 20
0.0000
 30
0.0000
 40
0.0762
 41
0.0762
 70
0
  0
VERTEX
  8
21
 10
4.0554
 20
17.1162
 30
0.0000
 42
1.0000
  0
VERTEX
  8
21
 10
4.1316
 20
17.1162
 30
0.0000
  0
SEQEND
  8
0
  0
POLYLINE
  8
21
 66
1
 10
0.0000
 20
0.0000
 30
0.0000
 40
0.1524
 41
0.1524
 70
0
  0
VERTEX
  8
21
 10
4.0935
 20
18.7418
 30
0.0000
  0
VERTEX
  8
21
 10
4.9966
 20
17.1162
 30
0.0000
  0
SEQEND
  8
0
  0
POLYLINE
  8
21
 66
1
 10
0.0000
 20
0.0000
 30
0.0000
 40
0.0762
 41
0.0762
 70
0
  0
VERTEX
  8
21
 10
4.9633
 20
17.0977
 30
0.0000
 42
1.0000
  0
VERTEX
  8
21
 10
5.0299
 20
17.1347
 30
0.0000
  0
SEQEND
  8
0
  0
POLYLINE
  8
21
 66
1
 10
0.0000
 20
0.0000
 30
0.0000
 40
0.0762
 41
0.0762
 70
0
  0
VERTEX
  8
21
 10
4.1268
 20
18.7603
 30
0.0000
 42
1.0000
  0
VERTEX
  8
21
 10
4.0602
 20
18.7233
 30
0.0000
  0
SEQEND
  8
0
  0
POLYLINE
  8
21
 66
1
 10
0.0000
 20
0.0000
 30
0.0000
 40
0.1524
 41
0.1524
 70
0
  0
VERTEX
  8
21
 10
4.9966
 20
17.1162
 30
0.0000
  0
VERTEX
  8
21
 10
4.9966
 20
18.7418
 30
0.0000
  0
SEQEND
  8
0
  0
POLYLINE
  8
21
 66
1
 10
0.0000
 20
0.0000
 30
0.0000
 40
0.0762
 41
0.0762
 70
0
  0
VERTEX
  8
21
 10
5.0347
 20
18.7418
 30
0.0000
 42
1.0000
  0
VERTEX
  8
21
 10
4.9585
 20
18.7418
 30
0.0000
  0
SEQEND
  8
0
  0
POLYLINE
  8
21
 66
1
 10
0.0000
 20
0.0000
 30
0.0000
 40
0.0762
 41
0.0762
 70
0
  0
VERTEX
  8
21
 10
4.9585
 20
17.1162
 30
0.0000
 42
1.0000
  0
VERTEX
  8
21
 10
5.0347
 20
17.1162
 30
0.0000
  0
SEQEND
  8
0
  0
POLYLINE
  8
21
 66
1
 10
0.0000
 20
0.0000
 30
0.0000
 40
0.1524
 41
0.1524
 70
0
  0
VERTEX
  8
21
 10
5.7609
 20
17.1162
 30
0.0000
  0
VERTEX
  8
21
 10
5.7609
 20
18.7418
 30
0.0000
  0
SEQEND
  8
0
  0
POLYLINE
  8
21
 66
1
 10
0.0000
 20
0.0000
 30
0.0000
 40
0.0762
 41
0.0762
 70
0
  0
VERTEX
  8
21
 10
5.7990
 20
18.7418
 30
0.0000
 42
1.0000
  0
VERTEX
  8
21
 10
5.7228
 20
18.7418
 30
0.0000
  0
SEQEND
  8
0
  0
POLYLINE
  8
21
 66
1
 10
0.0000
 20
0.0000
 30
0.0000
 40
0.0762
 41
0.0762
 70
0
  0
VERTEX
  8
21
 10
5.7228
 20
17.1162
 30
0.0000
 42
1.0000
  0
VERTEX
  8
21
 10
5.7990
 20
17.1162
 30
0.0000
  0
SEQEND
  8
0
  0
POLYLINE
  8
21
 66
1
 10
0.0000
 20
0.0000
 30
0.0000
 40
0.1524
 41
0.1524
 70
0
  0
VERTEX
  8
21
 10
5.7609
 20
18.7418
 30
0.0000
  0
VERTEX
  8
21
 10
6.2124
 20
18.7418
 30
0.0000
  0
SEQEND
  8
0
  0
POLYLINE
  8
21
 66
1
 10
0.0000
 20
0.0000
 30
0.0000
 40
0.0762
 41
0.0762
 70
0
  0
VERTEX
  8
21
 10
6.2124
 20
18.7037
 30
0.0000
 42
1.0000
  0
VERTEX
  8
21
 10
6.2124
 20
18.7799
 30
0.0000
  0
SEQEND
  8
0
  0
POLYLINE
  8
21
 66
1
 10
0.0000
 20
0.0000
 30
0.0000
 40
0.0762
 41
0.0762
 70
0
  0
VERTEX
  8
21
 10
5.7609
 20
18.7799
 30
0.0000
 42
1.0000
  0
VERTEX
  8
21
 10
5.7609
 20
18.7037
 30
0.0000
  0
SEQEND
  8
0
  0
POLYLINE
  8
21
 66
1
 10
0.0000
 20
0.0000
 30
0.0000
 40
0.1524
 41
0.1524
 70
0
  0
VERTEX
  8
21
 10
6.6640
 20
18.2902
 30
0.0000
 42
0.4142
  0
VERTEX
  8
21
 10
6.2124
 20
18.7418
 30
0.0000
  0
SEQEND
  8
0
  0
POLYLINE
  8
21
 66
1
 10
0.0000
 20
0.0000
 30
0.0000
 40
0.0762
 41
0.0762
 70
0
  0
VERTEX
  8
21
 10
6.6259
 20
18.2902
 30
0.0000
 42
1.0000
  0
VERTEX
  8
21
 10
6.7021
 20
18.2902
 30
0.0000
  0
SEQEND
  8
0
  0
POLYLINE
  8
21
 66
1
 10
0.0000
 20
0.0000
 30
0.0000
 40
0.0762
 41
0.0762
 70
0
  0
VERTEX
  8
21
 10
6.2124
 20
18.7799
 30
0.0000
 42
1.0000
  0
VERTEX
  8
21
 10
6.2124
 20
18.7037
 30
0.0000
  0
SEQEND
  8
0
  0
POLYLINE
  8
21
 66
1
 10
0.0000
 20
0.0000
 30
0.0000
 40
0.1524
 41
0.1524
 70
0
  0
VERTEX
  8
21
 10
6.6640
 20
18.2902
 30
0.0000
  0
VERTEX
  8
21
 10
6.6640
 20
17.5678
 30
0.0000
  0
SEQEND
  8
0
  0
POLYLINE
  8
21
 66
1
 10
0.0000
 20
0.0000
 30
0.0000
 40
0.0762
 41
0.0762
 70
0
  0
VERTEX
  8
21
 10
6.6259
 20
17.5678
 30
0.0000
 42
1.0000
  0
VERTEX
  8
21
 10
6.7021
 20
17.5678
 30
0.0000
  0
SEQEND
  8
0
  0
POLYLINE
  8
21
 66
1
 10
0.0000
 20
0.0000
 30
0.0000
 40
0.0762
 41
0.0762
 70
0
  0
VERTEX
  8
21
 10
6.7021
 20
18.2902
 30
0.0000
 42
1.0000
  0
VERTEX
  8
21
 10
6.6259
 20
18.2902
 30
0.0000
  0
SEQEND
  8
0
  0
POLYLINE
  8
21
 66
1
 10
0.0000
 20
0.0000
 30
0.0000
 40
0.1524
 41
0.1524
 70
0
  0
VERTEX
  8
21
 10
6.2124
 20
17.1162
 30
0.0000
 42
0.4142
  0
VERTEX
  8
21
 10
6.6640
 20
17.5678
 30
0.0000
  0
SEQEND
  8
0
  0
POLYLINE
  8
21
 66
1
 10
0.0000
 20
0.0000
 30
0.0000
 40
0.0762
 41
0.0762
 70
0
  0
VERTEX
  8
21
 10
6.2124
 20
17.1543
 30
0.0000
 42
1.0000
  0
VERTEX
  8
21
 10
6.2124
 20
17.0781
 30
0.0000
  0
SEQEND
  8
0
  0
POLYLINE
  8
21
 66
1
 10
0.0000
 20
0.0000
 30
0.0000
 40
0.0762
 41
0.0762
 70
0
  0
VERTEX
  8
21
 10
6.7021
 20
17.5678
 30
0.0000
 42
1.0000
  0
VERTEX
  8
21
 10
6.6259
 20
17.5678
 30
0.0000
  0
SEQEND
  8
0
  0
POLYLINE
  8
21
 66
1
 10
0.0000
 20
0.0000
 30
0.0000
 40
0.1524
 41
0.1524
 70
0
  0
VERTEX
  8
21
 10
6.2124
 20
17.1162
 30
0.0000
  0
VERTEX
  8
21
 10
5.7609
 20
17.1162
 30
0.0000
  0
SEQEND
  8
0
  0
POLYLINE
  8
21
 66
1
 10
0.0000
 20
0.0000
 30
0.0000
 40
0.0762
 41
0.0762
 70
0
  0
VERTEX
  8
21
 10
5.7609
 20
17.1543
 30
0.0000
 42
1.0000
  0
VERTEX
  8
21
 10
5.7609
 20
17.0781
 30
0.0000
  0
SEQEND
  8
0
  0
POLYLINE
  8
21
 66
1
 10
0.0000
 20
0.0000
 30
0.0000
 40
0.0762
 41
0.0762
 70
0
  0
VERTEX
  8
21
 10
6.2124
 20
17.0781
 30
0.0000
 42
1.0000
  0
VERTEX
  8
21
 10
6.2124
 20
17.1543
 30
0.0000
  0
SEQEND
  8
0
  0
POLYLINE
  8
21
 66
1
 10
0.0000
 20
0.0000
 30
0.0000
 40
0.1524
 41
0.1524
 70
0
  0
VERTEX
  8
21
 10
0.9462
 20
22.9418
 30
0.0000
  0
VERTEX
  8
21
 10
1.4881
 20
21.3162
 30
0.0000
  0
SEQEND
  8
0
  0
POLYLINE
  8
21
 66
1
 10
0.0000
 20
0.0000
 30
0.0000
 40
0.0762
 41
0.0762
 70
0
  0
VERTEX
  8
21
 10
1.4519
 20
21.3042
 30
0.0000
 42
1.0000
  0
VERTEX
  8
21
 10
1.5242
 20
21.3282
 30
0.0000
  0
SEQEND
  8
0
  0
POLYLINE
  8
21
 66
1
 10
0.0000
 20
0.0000
 30
0.0000
 40
0.0762
 41
0.0762
 70
0
  0
VERTEX
  8
21
 10
0.9823
 20
22.9538
 30
0.0000
 42
1.0000
  0
VERTEX
  8
21
 10
0.9101
 20
22.9298
 30
0.0000
  0
SEQEND
  8
0
  0
POLYLINE
  8
21
 66
1
 10
0.0000
 20
0.0000
 30
0.0000
 40
0.1524
 41
0.1524
 70
0
  0
VERTEX
  8
21
 10
1.4881
 20
21.3162
 30
0.0000
  0
VERTEX
  8
21
 10
2.0299
 20
22.9418
 30
0.0000
  0
SEQEND
  8
0
  0
POLYLINE
  8
21
 66
1
 10
0.0000
 20
0.0000
 30
0.0000
 40
0.0762
 41
0.0762
 70
0
  0
VERTEX
  8
21
 10
2.0661
 20
22.9298
 30
0.0000
 42
1.0000
  0
VERTEX
  8
21
 10
1.9938
 20
22.9538
 30
0.0000
  0
SEQEND
  8
0
  0
POLYLINE
  8
21
 66
1
 10
0.0000
 20
0.0000
 30
0.0000
 40
0.0762
 41
0.0762
 70
0
  0
VERTEX
  8
21
 10
1.4519
 20
21.3282
 30
0.0000
 42
1.0000
  0
VERTEX
  8
21
 10
1.5242
 20
21.3042
 30
0.0000
  0
SEQEND
  8
0
  0
POLYLINE
  8
21
 66
1
 10
0.0000
 20
0.0000
 30
0.0000
 40
0.1524
 41
0.1524
 70
0
  0
VERTEX
  8
21
 10
2.6728
 20
22.2193
 30
0.0000
  0
VERTEX
  8
21
 10
3.1244
 20
22.2193
 30
0.0000
  0
SEQEND
  8
0
  0
POLYLINE
  8
21
 66
1
 10
0.0000
 20
0.0000
 30
0.0000
 40
0.0762
 41
0.0762
 70
0
  0
VERTEX
  8
21
 10
3.1244
 20
22.1812
 30
0.0000
 42
1.0000
  0
VERTEX
  8
21
 10
3.1244
 20
22.2574
 30
0.0000
  0
SEQEND
  8
0
  0
POLYLINE
  8
21
 66
1
 10
0.0000
 20
0.0000
 30
0.0000
 40
0.0762
 41
0.0762
 70
0
  0
VERTEX
  8
21
 10
2.6728
 20
22.2574
 30
0.0000
 42
1.0000
  0
VERTEX
  8
21
 10
2.6728
 20
22.1812
 30
0.0000
  0
SEQEND
  8
0
  0
POLYLINE
  8
21
 66
1
 10
0.0000
 20
0.0000
 30
0.0000
 40
0.1524
 41
0.1524
 70
0
  0
VERTEX
  8
21
 10
3.1244
 20
21.3162
 30
0.0000
 42
1.0000
  0
VERTEX
  8
21
 10
3.1244
 20
22.2193
 30
0.0000
  0
SEQEND
  8
0
  0
POLYLINE
  8
21
 66
1
 10
0.0000
 20
0.0000
 30
0.0000
 40
0.0762
 41
0.0762
 70
0
  0
VERTEX
  8
21
 10
3.1244
 20
21.3543
 30
0.0000
 42
1.0000
  0
VERTEX
  8
21
 10
3.1244
 20
21.2781
 30
0.0000
  0
SEQEND
  8
0
  0
POLYLINE
  8
21
 66
1
 10
0.0000
 20
0.0000
 30
0.0000
 40
0.0762
 41
0.0762
 70
0
  0
VERTEX
  8
21
 10
3.1244
 20
22.2574
 30
0.0000
 42
1.0000
  0
VERTEX
  8
21
 10
3.1244
 20
22.1812
 30
0.0000
  0
SEQEND
  8
0
  0
POLYLINE
  8
21
 66
1
 10
0.0000
 20
0.0000
 30
0.0000
 40
0.1524
 41
0.1524
 70
0
  0
VERTEX
  8
21
 10
3.1244
 20
21.3162
 30
0.0000
  0
VERTEX
  8
21
 10
2.6728
 20
21.3162
 30
0.0000
  0
SEQEND
  8
0
  0
POLYLINE
  8
21
 66
1
 10
0.0000
 20
0.0000
 30
0.0000
 40
0.0762
 41
0.0762
 70
0
  0
VERTEX
  8
21
 10
2.6728
 20
21.3543
 30
0.0000
 42
1.0000
  0
VERTEX
  8
21
 10
2.6728
 20
21.2781
 30
0.0000
  0
SEQEND
  8
0
  0
POLYLINE
  8
21
 66
1
 10
0.0000
 20
0.0000
 30
0.0000
 40
0.0762
 41
0.0762
 70
0
  0
VERTEX
  8
21
 10
3.1244
 20
21.2781
 30
0.0000
 42
1.0000
  0
VERTEX
  8
21
 10
3.1244
 20
21.3543
 30
0.0000
  0
SEQEND
  8
0
  0
POLYLINE
  8
21
 66
1
 10
0.0000
 20
0.0000
 30
0.0000
 40
0.1524
 41
0.1524
 70
0
  0
VERTEX
  8
21
 10
2.6728
 20
21.3162
 30
0.0000
  0
VERTEX
  8
21
 10
2.6728
 20
22.9418
 30
0.0000
  0
SEQEND
  8
0
  0
POLYLINE
  8
21
 66
1
 10
0.0000
 20
0.0000
 30
0.0000
 40
0.0762
 41
0.0762
 70
0
  0
VERTEX
  8
21
 10
2.7109
 20
22.9418
 30
0.0000
 42
1.0000
  0
VERTEX
  8
21
 10
2.6347
 20
22.9418
 30
0.0000
  0
SEQEND
  8
0
  0
POLYLINE
  8
21
 66
1
 10
0.0000
 20
0.0000
 30
0.0000
 40
0.0762
 41
0.0762
 70
0
  0
VERTEX
  8
21
 10
2.6347
 20
21.3162
 30
0.0000
 42
1.0000
  0
VERTEX
  8
21
 10
2.7109
 20
21.3162
 30
0.0000
  0
SEQEND
  8
0
  0
POLYLINE
  8
21
 66
1
 10
0.0000
 20
0.0000
 30
0.0000
 40
0.1524
 41
0.1524
 70
0
  0
VERTEX
  8
21
 10
2.6728
 20
22.9418
 30
0.0000
  0
VERTEX
  8
21
 10
3.1244
 20
22.9418
 30
0.0000
  0
SEQEND
  8
0
  0
POLYLINE
  8
21
 66
1
 10
0.0000
 20
0.0000
 30
0.0000
 40
0.0762
 41
0.0762
 70
0
  0
VERTEX
  8
21
 10
3.1244
 20
22.9037
 30
0.0000
 42
1.0000
  0
VERTEX
  8
21
 10
3.1244
 20
22.9799
 30
0.0000
  0
SEQEND
  8
0
  0
POLYLINE
  8
21
 66
1
 10
0.0000
 20
0.0000
 30
0.0000
 40
0.0762
 41
0.0762
 70
0
  0
VERTEX
  8
21
 10
2.6728
 20
22.9799
 30
0.0000
 42
1.0000
  0
VERTEX
  8
21
 10
2.6728
 20
22.9037
 30
0.0000
  0
SEQEND
  8
0
  0
POLYLINE
  8
21
 66
1
 10
0.0000
 20
0.0000
 30
0.0000
 40
0.1524
 41
0.1524
 70
0
  0
VERTEX
  8
21
 10
3.1244
 20
22.2193
 30
0.0000
 42
1.0000
  0
VERTEX
  8
21
 10
3.1244
 20
22.9418
 30
0.0000
  0
SEQEND
  8
0
  0
POLYLINE
  8
21
 66
1
 10
0.0000
 20
0.0000
 30
0.0000
 40
0.0762
 41
0.0762
 70
0
  0
VERTEX
  8
21
 10
3.1244
 20
22.2574
 30
0.0000
 42
1.0000
  0
VERTEX
  8
21
 10
3.1244
 20
22.1812
 30
0.0000
  0
SEQEND
  8
0
  0
POLYLINE
  8
21
 66
1
 10
0.0000
 20
0.0000
 30
0.0000
 40
0.0762
 41
0.0762
 70
0
  0
VERTEX
  8
21
 10
3.1244
 20
22.9799
 30
0.0000
 42
1.0000
  0
VERTEX
  8
21
 10
3.1244
 20
22.9037
 30
0.0000
  0
SEQEND
  8
0
  0
POLYLINE
  8
21
 66
1
 10
0.0000
 20
0.0000
 30
0.0000
 40
0.1524
 41
0.1524
 70
0
  0
VERTEX
  8
21
 10
4.2149
 20
22.9418
 30
0.0000
  0
VERTEX
  8
21
 10
4.2149
 20
21.7678
 30
0.0000
  0
SEQEND
  8
0
  0
POLYLINE
  8
21
 66
1
 10
0.0000
 20
0.0000
 30
0.0000
 40
0.0762
 41
0.0762
 70
0
  0
VERTEX
  8
21
 10
4.1768
 20
21.7678
 30
0.0000
 42
1.0000
  0
VERTEX
  8
21
 10
4.2530
 20
21.7678
 30
0.0000
  0
SEQEND
  8
0
  0
POLYLINE
  8
21
 66
1
 10
0.0000
 20
0.0000
 30
0.0000
 40
0.0762
 41
0.0762
 70
0
  0
VERTEX
  8
21
 10
4.2530
 20
22.9418
 30
0.0000
 42
1.0000
  0
VERTEX
  8
21
 10
4.1768
 20
22.9418
 30
0.0000
  0
SEQEND
  8
0
  0
POLYLINE
  8
21
 66
1
 10
0.0000
 20
0.0000
 30
0.0000
 40
0.1524
 41
0.1524
 70
0
  0
VERTEX
  8
21
 10
4.2149
 20
21.7678
 30
0.0000
 42
1.0000
  0
VERTEX
  8
21
 10
5.1180
 20
21.7678
 30
0.0000
  0
SEQEND
  8
0
  0
POLYLINE
  8
21
 66
1
 10
0.0000
 20
0.0000
 30
0.0000
 40
0.0762
 41
0.0762
 70
0
  0
VERTEX
  8
21
 10
4.2530
 20
21.7678
 30
0.0000
 42
1.0000
  0
VERTEX
  8
21
 10
4.1768
 20
21.7678
 30
0.0000
  0
SEQEND
  8
0
  0
POLYLINE
  8
21
 66
1
 10
0.0000
 20
0.0000
 30
0.0000
 40
0.0762
 41
0.0762
 70
0
  0
VERTEX
  8
21
 10
5.1561
 20
21.7678
 30
0.0000
 42
1.0000
  0
VERTEX
  8
21
 10
5.0799
 20
21.7678
 30
0.0000
  0
SEQEND
  8
0
  0
POLYLINE
  8
21
 66
1
 10
0.0000
 20
0.0000
 30
0.0000
 40
0.1524
 41
0.1524
 70
0
  0
VERTEX
  8
21
 10
5.1180
 20
21.7678
 30
0.0000
  0
VERTEX
  8
21
 10
5.1180
 20
22.9418
 30
0.0000
  0
SEQEND
  8
0
  0
POLYLINE
  8
21
 66
1
 10
0.0000
 20
0.0000
 30
0.0000
 40
0.0762
 41
0.0762
 70
0
  0
VERTEX
  8
21
 10
5.1561
 20
22.9418
 30
0.0000
 42
1.0000
  0
VERTEX
  8
21
 10
5.0799
 20
22.9418
 30
0.0000
  0
SEQEND
  8
0
  0
POLYLINE
  8
21
 66
1
 10
0.0000
 20
0.0000
 30
0.0000
 40
0.0762
 41
0.0762
 70
0
  0
VERTEX
  8
21
 10
5.0799
 20
21.7678
 30
0.0000
 42
1.0000
  0
VERTEX
  8
21
 10
5.1561
 20
21.7678
 30
0.0000
  0
SEQEND
  8
0
  0
POLYLINE
  8
21
 66
1
 10
0.0000
 20
0.0000
 30
0.0000
 40
0.1524
 41
0.1524
 70
0
  0
VERTEX
  8
21
 10
6.3199
 20
21.3162
 30
0.0000
 42
0.4142
  0
VERTEX
  8
21
 10
6.6811
 20
21.6774
 30
0.0000
  0
SEQEND
  8
0
  0
POLYLINE
  8
21
 66
1
 10
0.0000
 20
0.0000
 30
0.0000
 40
0.0762
 41
0.0762
 70
0
  0
VERTEX
  8
21
 10
6.3199
 20
21.3543
 30
0.0000
 42
1.0000
  0
VERTEX
  8
21
 10
6.3199
 20
21.2781
 30
0.0000
  0
SEQEND
  8
0
  0
POLYLINE
  8
21
 66
1
 10
0.0000
 20
0.0000
 30
0.0000
 40
0.0762
 41
0.0762
 70
0
  0
VERTEX
  8
21
 10
6.7192
 20
21.6774
 30
0.0000
 42
1.0000
  0
VERTEX
  8
21
 10
6.6430
 20
21.6774
 30
0.0000
  0
SEQEND
  8
0
  0
POLYLINE
  8
21
 66
1
 10
0.0000
 20
0.0000
 30
0.0000
 40
0.1524
 41
0.1524
 70
0
  0
VERTEX
  8
21
 10
5.7780
 20
21.5420
 30
0.0000
 42
0.2000
  0
VERTEX
  8
21
 10
6.3199
 20
21.3162
 30
0.0000
  0
SEQEND
  8
0
  0
POLYLINE
  8
21
 66
1
 10
0.0000
 20
0.0000
 30
0.0000
 40
0.0762
 41
0.0762
 70
0
  0
VERTEX
  8
21
 10
5.8050
 20
21.5688
 30
0.0000
 42
1.0000
  0
VERTEX
  8
21
 10
5.7509
 20
21.5151
 30
0.0000
  0
SEQEND
  8
0
  0
POLYLINE
  8
21
 66
1
 10
0.0000
 20
0.0000
 30
0.0000
 40
0.0762
 41
0.0762
 70
0
  0
VERTEX
  8
21
 10
6.3199
 20
21.2781
 30
0.0000
 42
1.0000
  0
VERTEX
  8
21
 10
6.3199
 20
21.3543
 30
0.0000
  0
SEQEND
  8
0
  0
POLYLINE
  8
21
 66
1
 10
0.0000
 20
0.0000
 30
0.0000
 40
0.1524
 41
0.1524
 70
0
  0
VERTEX
  8
21
 10
6.1844
 20
22.9418
 30
0.0000
 42
0.4142
  0
VERTEX
  8
21
 10
5.8231
 20
22.5806
 30
0.0000
  0
SEQEND
  8
0
  0
POLYLINE
  8
21
 66
1
 10
0.0000
 20
0.0000
 30
0.0000
 40
0.0762
 41
0.0762
 70
0
  0
VERTEX
  8
21
 10
6.1844
 20
22.9037
 30
0.0000
 42
1.0000
  0
VERTEX
  8
21
 10
6.1844
 20
22.9799
 30
0.0000
  0
SEQEND
  8
0
  0
POLYLINE
  8
21
 66
1
 10
0.0000
 20
0.0000
 30
0.0000
 40
0.0762
 41
0.0762
 70
0
  0
VERTEX
  8
21
 10
5.7850
 20
22.5806
 30
0.0000
 42
1.0000
  0
VERTEX
  8
21
 10
5.8612
 20
22.5806
 30
0.0000
  0
SEQEND
  8
0
  0
POLYLINE
  8
21
 66
1
 10
0.0000
 20
0.0000
 30
0.0000
 40
0.1524
 41
0.1524
 70
0
  0
VERTEX
  8
21
 10
6.5908
 20
22.8063
 30
0.0000
 42
0.1623
  0
VERTEX
  8
21
 10
6.1844
 20
22.9418
 30
0.0000
  0
SEQEND
  8
0
  0
POLYLINE
  8
21
 66
1
 10
0.0000
 20
0.0000
 30
0.0000
 40
0.0762
 41
0.0762
 70
0
  0
VERTEX
  8
21
 10
6.5679
 20
22.7759
 30
0.0000
 42
1.0000
  0
VERTEX
  8
21
 10
6.6137
 20
22.8368
 30
0.0000
  0
SEQEND
  8
0
  0
POLYLINE
  8
21
 66
1
 10
0.0000
 20
0.0000
 30
0.0000
 40
0.0762
 41
0.0762
 70
0
  0
VERTEX
  8
21
 10
6.1844
 20
22.9799
 30
0.0000
 42
1.0000
  0
VERTEX
  8
21
 10
6.1844
 20
22.9037
 30
0.0000
  0
SEQEND
  8
0
  0
POLYLINE
  8
21
 66
1
 10
0.0000
 20
0.0000
 30
0.0000
 40
0.1524
 41
0.1524
 70
0
  0
VERTEX
  8
21
 10
5.8231
 20
22.5806
 30
0.0000
 42
0.2656
  0
VERTEX
  8
21
 10
6.0038
 20
22.2645
 30
0.0000
  0
SEQEND
  8
0
  0
POLYLINE
  8
21
 66
1
 10
0.0000
 20
0.0000
 30
0.0000
 40
0.0762
 41
0.0762
 70
0
  0
VERTEX
  8
21
 10
5.8612
 20
22.5806
 30
0.0000
 42
1.0000
  0
VERTEX
  8
21
 10
5.7850
 20
22.5806
 30
0.0000
  0
SEQEND
  8
0
  0
POLYLINE
  8
21
 66
1
 10
0.0000
 20
0.0000
 30
0.0000
 40
0.0762
 41
0.0762
 70
0
  0
VERTEX
  8
21
 10
5.9844
 20
22.2316
 30
0.0000
 42
1.0000
  0
VERTEX
  8
21
 10
6.0231
 20
22.2973
 30
0.0000
  0
SEQEND
  8
0
  0
POLYLINE
  8
21
 66
1
 10
0.0000
 20
0.0000
 30
0.0000
 40
0.1524
 41
0.1524
 70
0
  0
VERTEX
  8
21
 10
6.6811
 20
21.6774
 30
0.0000
 42
0.2656
  0
VERTEX
  8
21
 10
6.5005
 20
21.9935
 30
0.0000
  0
SEQEND
  8
0
  0
POLYLINE
  8
21
 66
1
 10
0.0000
 20
0.0000
 30
0.0000
 40
0.0762
 41
0.0762
 70
0
  0
VERTEX
  8
21
 10
6.6430
 20
21.6774
 30
0.0000
 42
1.0000
  0
VERTEX
  8
21
 10
6.7192
 20
21.6774
 30
0.0000
  0
SEQEND
  8
0
  0
POLYLINE
  8
21
 66
1
 10
0.0000
 20
0.0000
 30
0.0000
 40
0.0762
 41
0.0762
 70
0
  0
VERTEX
  8
21
 10
6.5198
 20
22.0264
 30
0.0000
 42
1.0000
  0
VERTEX
  8
21
 10
6.4811
 20
21.9607
 30
0.0000
  0
SEQEND
  8
0
  0
POLYLINE
  8
21
 66
1
 10
0.0000
 20
0.0000
 30
0.0000
 40
0.1524
 41
0.1524
 70
0
  0
VERTEX
  8
21
 10
6.5005
 20
21.9935
 30
0.0000
  0
VERTEX
  8
21
 10
6.0038
 20
22.2645
 30
0.0000
  0
SEQEND
  8
0
  0
POLYLINE
  8
21
 66
1
 10
0.0000
 20
0.0000
 30
0.0000
 40
0.0762
 41
0.0762
 70
0
  0
VERTEX
  8
21
 10
6.0220
 20
22.2979
 30
0.0000
 42
1.0000
  0
VERTEX
  8
21
 10
5.9855
 20
22.2310
 30
0.0000
  0
SEQEND
  8
0
  0
POLYLINE
  8
21
 66
1
 10
0.0000
 20
0.0000
 30
0.0000
 40
0.0762
 41
0.0762
 70
0
  0
VERTEX
  8
21
 10
6.4822
 20
21.9601
 30
0.0000
 42
1.0000
  0
VERTEX
  8
21
 10
6.5187
 20
22.0270
 30
0.0000
  0
SEQEND
  8
0
  0
POLYLINE
  8
21
 66
1
 10
0.0000
 20
0.0000
 30
0.0000
 40
0.1524
 41
0.1524
 70
0
  0
VERTEX
  8
21
 10
-0.7938
 20
15.0418
 30
0.0000
  0
VERTEX
  8
21
 10
-0.2519
 20
13.4162
 30
0.0000
  0
SEQEND
  8
0
  0
POLYLINE
  8
21
 66
1
 10
0.0000
 20
0.0000
 30
0.0000
 40
0.0762
 41
0.0762
 70
0
  0
VERTEX
  8
21
 10
-0.2881
 20
13.4042
 30
0.0000
 42
1.0000
  0
VERTEX
  8
21
 10
-0.2158
 20
13.4282
 30
0.0000
  0
SEQEND
  8
0
  0
POLYLINE
  8
21
 66
1
 10
0.0000
 20
0.0000
 30
0.0000
 40
0.0762
 41
0.0762
 70
0
  0
VERTEX
  8
21
 10
-0.7577
 20
15.0538
 30
0.0000
 42
1.0000
  0
VERTEX
  8
21
 10
-0.8299
 20
15.0298
 30
0.0000
  0
SEQEND
  8
0
  0
POLYLINE
  8
21
 66
1
 10
0.0000
 20
0.0000
 30
0.0000
 40
0.1524
 41
0.1524
 70
0
  0
VERTEX
  8
21
 10
-0.2519
 20
13.4162
 30
0.0000
  0
VERTEX
  8
21
 10
0.2899
 20
15.0418
 30
0.0000
  0
SEQEND
  8
0
  0
POLYLINE
  8
21
 66
1
 10
0.0000
 20
0.0000
 30
0.0000
 40
0.0762
 41
0.0762
 70
0
  0
VERTEX
  8
21
 10
0.3261
 20
15.0298
 30
0.0000
 42
1.0000
  0
VERTEX
  8
21
 10
0.2538
 20
15.0538
 30
0.0000
  0
SEQEND
  8
0
  0
POLYLINE
  8
21
 66
1
 10
0.0000
 20
0.0000
 30
0.0000
 40
0.0762
 41
0.0762
 70
0
  0
VERTEX
  8
21
 10
-0.2881
 20
13.4282
 30
0.0000
 42
1.0000
  0
VERTEX
  8
21
 10
-0.2158
 20
13.4042
 30
0.0000
  0
SEQEND
  8
0
  0
POLYLINE
  8
21
 66
1
 10
0.0000
 20
0.0000
 30
0.0000
 40
0.1524
 41
0.1524
 70
0
  0
VERTEX
  8
21
 10
0.8596
 20
13.8678
 30
0.0000
  0
VERTEX
  8
21
 10
0.8596
 20
14.5902
 30
0.0000
  0
SEQEND
  8
0
  0
POLYLINE
  8
21
 66
1
 10
0.0000
 20
0.0000
 30
0.0000
 40
0.0762
 41
0.0762
 70
0
  0
VERTEX
  8
21
 10
0.8977
 20
14.5902
 30
0.0000
 42
1.0000
  0
VERTEX
  8
21
 10
0.8215
 20
14.5902
 30
0.0000
  0
SEQEND
  8
0
  0
POLYLINE
  8
21
 66
1
 10
0.0000
 20
0.0000
 30
0.0000
 40
0.0762
 41
0.0762
 70
0
  0
VERTEX
  8
21
 10
0.8215
 20
13.8678
 30
0.0000
 42
1.0000
  0
VERTEX
  8
21
 10
0.8977
 20
13.8678
 30
0.0000
  0
SEQEND
  8
0
  0
POLYLINE
  8
21
 66
1
 10
0.0000
 20
0.0000
 30
0.0000
 40
0.1524
 41
0.1524
 70
0
  0
VERTEX
  8
21
 10
1.7627
 20
14.5902
 30
0.0000
 42
1.0000
  0
VERTEX
  8
21
 10
0.8596
 20
14.5902
 30
0.0000
  0
SEQEND
  8
0
  0
POLYLINE
  8
21
 66
1
 10
0.0000
 20
0.0000
 30
0.0000
 40
0.0762
 41
0.0762
 70
0
  0
VERTEX
  8
21
 10
1.7246
 20
14.5902
 30
0.0000
 42
1.0000
  0
VERTEX
  8
21
 10
1.8008
 20
14.5902
 30
0.0000
  0
SEQEND
  8
0
  0
POLYLINE
  8
21
 66
1
 10
0.0000
 20
0.0000
 30
0.0000
 40
0.0762
 41
0.0762
 70
0
  0
VERTEX
  8
21
 10
0.8215
 20
14.5902
 30
0.0000
 42
1.0000
  0
VERTEX
  8
21
 10
0.8977
 20
14.5902
 30
0.0000
  0
SEQEND
  8
0
  0
POLYLINE
  8
21
 66
1
 10
0.0000
 20
0.0000
 30
0.0000
 40
0.1524
 41
0.1524
 70
0
  0
VERTEX
  8
21
 10
1.7627
 20
14.5902
 30
0.0000
  0
VERTEX
  8
21
 10
1.7627
 20
13.8678
 30
0.0000
  0
SEQEND
  8
0
  0
POLYLINE
  8
21
 66
1
 10
0.0000
 20
0.0000
 30
0.0000
 40
0.0762
 41
0.0762
 70
0
  0
VERTEX
  8
21
 10
1.7246
 20
13.8678
 30
0.0000
 42
1.0000
  0
VERTEX
  8
21
 10
1.8008
 20
13.8678
 30
0.0000
  0
SEQEND
  8
0
  0
POLYLINE
  8
21
 66
1
 10
0.0000
 20
0.0000
 30
0.0000
 40
0.0762
 41
0.0762
 70
0
  0
VERTEX
  8
21
 10
1.8008
 20
14.5902
 30
0.0000
 42
1.0000
  0
VERTEX
  8
21
 10
1.7246
 20
14.5902
 30
0.0000
  0
SEQEND
  8
0
  0
POLYLINE
  8
21
 66
1
 10
0.0000
 20
0.0000
 30
0.0000
 40
0.1524
 41
0.1524
 70
0
  0
VERTEX
  8
21
 10
0.8596
 20
13.8678
 30
0.0000
 42
1.0000
  0
VERTEX
  8
21
 10
1.7627
 20
13.8678
 30
0.0000
  0
SEQEND
  8
0
  0
POLYLINE
  8
21
 66
1
 10
0.0000
 20
0.0000
 30
0.0000
 40
0.0762
 41
0.0762
 70
0
  0
VERTEX
  8
21
 10
0.8977
 20
13.8678
 30
0.0000
 42
1.0000
  0
VERTEX
  8
21
 10
0.8215
 20
13.8678
 30
0.0000
  0
SEQEND
  8
0
  0
POLYLINE
  8
21
 66
1
 10
0.0000
 20
0.0000
 30
0.0000
 40
0.0762
 41
0.0762
 70
0
  0
VERTEX
  8
21
 10
1.8008
 20
13.8678
 30
0.0000
 42
1.0000
  0
VERTEX
  8
21
 10
1.7246
 20
13.8678
 30
0.0000
  0
SEQEND
  8
0
  0
POLYLINE
  8
21
 66
1
 10
0.0000
 20
0.0000
 30
0.0000
 40
0.1524
 41
0.1524
 70
0
  0
VERTEX
  8
21
 10
2.4749
 20
15.0418
 30
0.0000
  0
VERTEX
  8
21
 10
2.4749
 20
13.8678
 30
0.0000
  0
SEQEND
  8
0
  0
POLYLINE
  8
21
 66
1
 10
0.0000
 20
0.0000
 30
0.0000
 40
0.0762
 41
0.0762
 70
0
  0
VERTEX
  8
21
 10
2.4368
 20
13.8678
 30
0.0000
 42
1.0000
  0
VERTEX
  8
21
 10
2.5130
 20
13.8678
 30
0.0000
  0
SEQEND
  8
0
  0
POLYLINE
  8
21
 66
1
 10
0.0000
 20
0.0000
 30
0.0000
 40
0.0762
 41
0.0762
 70
0
  0
VERTEX
  8
21
 10
2.5130
 20
15.0418
 30
0.0000
 42
1.0000
  0
VERTEX
  8
21
 10
2.4368
 20
15.0418
 30
0.0000
  0
SEQEND
  8
0
  0
POLYLINE
  8
21
 66
1
 10
0.0000
 20
0.0000
 30
0.0000
 40
0.1524
 41
0.1524
 70
0
  0
VERTEX
  8
21
 10
2.4749
 20
13.8678
 30
0.0000
 42
1.0000
  0
VERTEX
  8
21
 10
3.3780
 20
13.8678
 30
0.0000
  0
SEQEND
  8
0
  0
POLYLINE
  8
21
 66
1
 10
0.0000
 20
0.0000
 30
0.0000
 40
0.0762
 41
0.0762
 70
0
  0
VERTEX
  8
21
 10
2.5130
 20
13.8678
 30
0.0000
 42
1.0000
  0
VERTEX
  8
21
 10
2.4368
 20
13.8678
 30
0.0000
  0
SEQEND
  8
0
  0
POLYLINE
  8
21
 66
1
 10
0.0000
 20
0.0000
 30
0.0000
 40
0.0762
 41
0.0762
 70
0
  0
VERTEX
  8
21
 10
3.4161
 20
13.8678
 30
0.0000
 42
1.0000
  0
VERTEX
  8
21
 10
3.3399
 20
13.8678
 30
0.0000
  0
SEQEND
  8
0
  0
POLYLINE
  8
21
 66
1
 10
0.0000
 20
0.0000
 30
0.0000
 40
0.1524
 41
0.1524
 70
0
  0
VERTEX
  8
21
 10
3.3780
 20
13.8678
 30
0.0000
  0
VERTEX
  8
21
 10
3.3780
 20
15.0418
 30
0.0000
  0
SEQEND
  8
0
  0
POLYLINE
  8
21
 66
1
 10
0.0000
 20
0.0000
 30
0.0000
 40
0.0762
 41
0.0762
 70
0
  0
VERTEX
  8
21
 10
3.4161
 20
15.0418
 30
0.0000
 42
1.0000
  0
VERTEX
  8
21
 10
3.3399
 20
15.0418
 30
0.0000
  0
SEQEND
  8
0
  0
POLYLINE
  8
21
 66
1
 10
0.0000
 20
0.0000
 30
0.0000
 40
0.0762
 41
0.0762
 70
0
  0
VERTEX
  8
21
 10
3.3399
 20
13.8678
 30
0.0000
 42
1.0000
  0
VERTEX
  8
21
 10
3.4161
 20
13.8678
 30
0.0000
  0
SEQEND
  8
0
  0
POLYLINE
  8
21
 66
1
 10
0.0000
 20
0.0000
 30
0.0000
 40
0.1524
 41
0.1524
 70
0
  0
VERTEX
  8
21
 10
4.4374
 20
13.4162
 30
0.0000
  0
VERTEX
  8
21
 10
4.4374
 20
15.0418
 30
0.0000
  0
SEQEND
  8
0
  0
POLYLINE
  8
21
 66
1
 10
0.0000
 20
0.0000
 30
0.0000
 40
0.0762
 41
0.0762
 70
0
  0
VERTEX
  8
21
 10
4.4755
 20
15.0418
 30
0.0000
 42
1.0000
  0
VERTEX
  8
21
 10
4.3993
 20
15.0418
 30
0.0000
  0
SEQEND
  8
0
  0
POLYLINE
  8
21
 66
1
 10
0.0000
 20
0.0000
 30
0.0000
 40
0.0762
 41
0.0762
 70
0
  0
VERTEX
  8
21
 10
4.3993
 20
13.4162
 30
0.0000
 42
1.0000
  0
VERTEX
  8
21
 10
4.4755
 20
13.4162
 30
0.0000
  0
SEQEND
  8
0
  0
POLYLINE
  8
21
 66
1
 10
0.0000
 20
0.0000
 30
0.0000
 40
0.1524
 41
0.1524
 70
0
  0
VERTEX
  8
21
 10
3.9859
 20
15.0418
 30
0.0000
  0
VERTEX
  8
21
 10
4.8890
 20
15.0418
 30
0.0000
  0
SEQEND
  8
0
  0
POLYLINE
  8
21
 66
1
 10
0.0000
 20
0.0000
 30
0.0000
 40
0.0762
 41
0.0762
 70
0
  0
VERTEX
  8
21
 10
4.8890
 20
15.0037
 30
0.0000
 42
1.0000
  0
VERTEX
  8
21
 10
4.8890
 20
15.0799
 30
0.0000
  0
SEQEND
  8
0
  0
POLYLINE
  8
21
 66
1
 10
0.0000
 20
0.0000
 30
0.0000
 40
0.0762
 41
0.0762
 70
0
  0
VERTEX
  8
21
 10
3.9859
 20
15.0799
 30
0.0000
 42
1.0000
  0
VERTEX
  8
21
 10
3.9859
 20
15.0037
 30
0.0000
  0
SEQEND
  8
0
  0
POLYLINE
  8
21
 66
1
 10
0.0000
 20
0.0000
 30
0.0000
 40
0.1524
 41
0.1524
 70
0
  0
VERTEX
  8
21
 10
5.4587
 20
14.0484
 30
0.0000
  0
VERTEX
  8
21
 10
6.5424
 20
14.0484
 30
0.0000
  0
SEQEND
  8
0
  0
POLYLINE
  8
21
 66
1
 10
0.0000
 20
0.0000
 30
0.0000
 40
0.0762
 41
0.0762
 70
0
  0
VERTEX
  8
21
 10
6.5424
 20
14.0103
 30
0.0000
 42
1.0000
  0
VERTEX
  8
21
 10
6.5424
 20
14.0865
 30
0.0000
  0
SEQEND
  8
0
  0
POLYLINE
  8
21
 66
1
 10
0.0000
 20
0.0000
 30
0.0000
 40
0.0762
 41
0.0762
 70
0
  0
VERTEX
  8
21
 10
5.4587
 20
14.0865
 30
0.0000
 42
1.0000
  0
VERTEX
  8
21
 10
5.4587
 20
14.0103
 30
0.0000
  0
SEQEND
  8
0
  0
POLYLINE
  8
21
 66
1
 10
0.0000
 20
0.0000
 30
0.0000
 40
0.1524
 41
0.1524
 70
0
  0
VERTEX
  8
21
 10
5.0362
 20
8.1818
 30
0.0000
  0
VERTEX
  8
21
 10
5.5781
 20
6.5562
 30
0.0000
  0
SEQEND
  8
0
  0
POLYLINE
  8
21
 66
1
 10
0.0000
 20
0.0000
 30
0.0000
 40
0.0762
 41
0.0762
 70
0
  0
VERTEX
  8
21
 10
5.5419
 20
6.5442
 30
0.0000
 42
1.0000
  0
VERTEX
  8
21
 10
5.6142
 20
6.5682
 30
0.0000
  0
SEQEND
  8
0
  0
POLYLINE
  8
21
 66
1
 10
0.0000
 20
0.0000
 30
0.0000
 40
0.0762
 41
0.0762
 70
0
  0
VERTEX
  8
21
 10
5.0723
 20
8.1938
 30
0.0000
 42
1.0000
  0
VERTEX
  8
21
 10
5.0001
 20
8.1698
 30
0.0000
  0
SEQEND
  8
0
  0
POLYLINE
  8
21
 66
1
 10
0.0000
 20
0.0000
 30
0.0000
 40
0.1524
 41
0.1524
 70
0
  0
VERTEX
  8
21
 10
5.5781
 20
6.5562
 30
0.0000
  0
VERTEX
  8
21
 10
6.1199
 20
8.1818
 30
0.0000
  0
SEQEND
  8
0
  0
POLYLINE
  8
21
 66
1
 10
0.0000
 20
0.0000
 30
0.0000
 40
0.0762
 41
0.0762
 70
0
  0
VERTEX
  8
21
 10
6.1561
 20
8.1698
 30
0.0000
 42
1.0000
  0
VERTEX
  8
21
 10
6.0838
 20
8.1938
 30
0.0000
  0
SEQEND
  8
0
  0
POLYLINE
  8
21
 66
1
 10
0.0000
 20
0.0000
 30
0.0000
 40
0.0762
 41
0.0762
 70
0
  0
VERTEX
  8
21
 10
5.5419
 20
6.5682
 30
0.0000
 42
1.0000
  0
VERTEX
  8
21
 10
5.6142
 20
6.5442
 30
0.0000
  0
SEQEND
  8
0
  0
POLYLINE
  8
21
 66
1
 10
0.0000
 20
0.0000
 30
0.0000
 40
0.1524
 41
0.1524
 70
0
  0
VERTEX
  8
21
 10
6.6896
 20
7.0078
 30
0.0000
  0
VERTEX
  8
21
 10
6.6896
 20
7.7302
 30
0.0000
  0
SEQEND
  8
0
  0
POLYLINE
  8
21
 66
1
 10
0.0000
 20
0.0000
 30
0.0000
 40
0.0762
 41
0.0762
 70
0
  0
VERTEX
  8
21
 10
6.7277
 20
7.7302
 30
0.0000
 42
1.0000
  0
VERTEX
  8
21
 10
6.6515
 20
7.7302
 30
0.0000
  0
SEQEND
  8
0
  0
POLYLINE
  8
21
 66
1
 10
0.0000
 20
0.0000
 30
0.0000
 40
0.0762
 41
0.0762
 70
0
  0
VERTEX
  8
21
 10
6.6515
 20
7.0078
 30
0.0000
 42
1.0000
  0
VERTEX
  8
21
 10
6.7277
 20
7.0078
 30
0.0000
  0
SEQEND
  8
0
  0
POLYLINE
  8
21
 66
1
 10
0.0000
 20
0.0000
 30
0.0000
 40
0.1524
 41
0.1524
 70
0
  0
VERTEX
  8
21
 10
7.5927
 20
7.7302
 30
0.0000
 42
1.0000
  0
VERTEX
  8
21
 10
6.6896
 20
7.7302
 30
0.0000
  0
SEQEND
  8
0
  0
POLYLINE
  8
21
 66
1
 10
0.0000
 20
0.0000
 30
0.0000
 40
0.0762
 41
0.0762
 70
0
  0
VERTEX
  8
21
 10
7.5546
 20
7.7302
 30
0.0000
 42
1.0000
  0
VERTEX
  8
21
 10
7.6308
 20
7.7302
 30
0.0000
  0
SEQEND
  8
0
  0
POLYLINE
  8
21
 66
1
 10
0.0000
 20
0.0000
 30
0.0000
 40
0.0762
 41
0.0762
 70
0
  0
VERTEX
  8
21
 10
6.6515
 20
7.7302
 30
0.0000
 42
1.0000
  0
VERTEX
  8
21
 10
6.7277
 20
7.7302
 30
0.0000
  0
SEQEND
  8
0
  0
POLYLINE
  8
21
 66
1
 10
0.0000
 20
0.0000
 30
0.0000
 40
0.1524
 41
0.1524
 70
0
  0
VERTEX
  8
21
 10
7.5927
 20
7.7302
 30
0.0000
  0
VERTEX
  8
21
 10
7.5927
 20
7.0078
 30
0.0000
  0
SEQEND
  8
0
  0
POLYLINE
  8
21
 66
1
 10
0.0000
 20
0.0000
 30
0.0000
 40
0.0762
 41
0.0762
 70
0
  0
VERTEX
  8
21
 10
7.5546
 20
7.0078
 30
0.0000
 42
1.0000
  0
VERTEX
  8
21
 10
7.6308
 20
7.0078
 30
0.0000
  0
SEQEND
  8
0
  0
POLYLINE
  8
21
 66
1
 10
0.0000
 20
0.0000
 30
0.0000
 40
0.0762
 41
0.0762
 70
0
  0
VERTEX
  8
21
 10
7.6308
 20
7.7302
 30
0.0000
 42
1.0000
  0
VERTEX
  8
21
 10
7.5546
 20
7.7302
 30
0.0000
  0
SEQEND
  8
0
  0
POLYLINE
  8
21
 66
1
 10
0.0000
 20
0.0000
 30
0.0000
 40
0.1524
 41
0.1524
 70
0
  0
VERTEX
  8
21
 10
6.6896
 20
7.0078
 30
0.0000
 42
1.0000
  0
VERTEX
  8
21
 10
7.5927
 20
7.0078
 30
0.0000
  0
SEQEND
  8
0
  0
POLYLINE
  8
21
 66
1
 10
0.0000
 20
0.0000
 30
0.0000
 40
0.0762
 41
0.0762
 70
0
  0
VERTEX
  8
21
 10
6.7277
 20
7.0078
 30
0.0000
 42
1.0000
  0
VERTEX
  8
21
 10
6.6515
 20
7.0078
 30
0.0000
  0
SEQEND
  8
0
  0
POLYLINE
  8
21
 66
1
 10
0.0000
 20
0.0000
 30
0.0000
 40
0.0762
 41
0.0762
 70
0
  0
VERTEX
  8
21
 10
7.6308
 20
7.0078
 30
0.0000
 42
1.0000
  0
VERTEX
  8
21
 10
7.5546
 20
7.0078
 30
0.0000
  0
SEQEND
  8
0
  0
POLYLINE
  8
21
 66
1
 10
0.0000
 20
0.0000
 30
0.0000
 40
0.1524
 41
0.1524
 70
0
  0
VERTEX
  8
21
 10
8.3049
 20
8.1818
 30
0.0000
  0
VERTEX
  8
21
 10
8.3049
 20
7.0078
 30
0.0000
  0
SEQEND
  8
0
  0
POLYLINE
  8
21
 66
1
 10
0.0000
 20
0.0000
 30
0.0000
 40
0.0762
 41
0.0762
 70
0
  0
VERTEX
  8
21
 10
8.2668
 20
7.0078
 30
0.0000
 42
1.0000
  0
VERTEX
  8
21
 10
8.3430
 20
7.0078
 30
0.0000
  0
SEQEND
  8
0
  0
POLYLINE
  8
21
 66
1
 10
0.0000
 20
0.0000
 30
0.0000
 40
0.0762
 41
0.0762
 70
0
  0
VERTEX
  8
21
 10
8.3430
 20
8.1818
 30
0.0000
 42
1.0000
  0
VERTEX
  8
21
 10
8.2668
 20
8.1818
 30
0.0000
  0
SEQEND
  8
0
  0
POLYLINE
  8
21
 66
1
 10
0.0000
 20
0.0000
 30
0.0000
 40
0.1524
 41
0.1524
 70
0
  0
VERTEX
  8
21
 10
8.3049
 20
7.0078
 30
0.0000
 42
1.0000
  0
VERTEX
  8
21
 10
9.2080
 20
7.0078
 30
0.0000
  0
SEQEND
  8
0
  0
POLYLINE
  8
21
 66
1
 10
0.0000
 20
0.0000
 30
0.0000
 40
0.0762
 41
0.0762
 70
0
  0
VERTEX
  8
21
 10
8.3430
 20
7.0078
 30
0.0000
 42
1.0000
  0
VERTEX
  8
21
 10
8.2668
 20
7.0078
 30
0.0000
  0
SEQEND
  8
0
  0
POLYLINE
  8
21
 66
1
 10
0.0000
 20
0.0000
 30
0.0000
 40
0.0762
 41
0.0762
 70
0
  0
VERTEX
  8
21
 10
9.2461
 20
7.0078
 30
0.0000
 42
1.0000
  0
VERTEX
  8
21
 10
9.1699
 20
7.0078
 30
0.0000
  0
SEQEND
  8
0
  0
POLYLINE
  8
21
 66
1
 10
0.0000
 20
0.0000
 30
0.0000
 40
0.1524
 41
0.1524
 70
0
  0
VERTEX
  8
21
 10
9.2080
 20
7.0078
 30
0.0000
  0
VERTEX
  8
21
 10
9.2080
 20
8.1818
 30
0.0000
  0
SEQEND
  8
0
  0
POLYLINE
  8
21
 66
1
 10
0.0000
 20
0.0000
 30
0.0000
 40
0.0762
 41
0.0762
 70
0
  0
VERTEX
  8
21
 10
9.2461
 20
8.1818
 30
0.0000
 42
1.0000
  0
VERTEX
  8
21
 10
9.1699
 20
8.1818
 30
0.0000
  0
SEQEND
  8
0
  0
POLYLINE
  8
21
 66
1
 10
0.0000
 20
0.0000
 30
0.0000
 40
0.0762
 41
0.0762
 70
0
  0
VERTEX
  8
21
 10
9.1699
 20
7.0078
 30
0.0000
 42
1.0000
  0
VERTEX
  8
21
 10
9.2461
 20
7.0078
 30
0.0000
  0
SEQEND
  8
0
  0
POLYLINE
  8
21
 66
1
 10
0.0000
 20
0.0000
 30
0.0000
 40
0.1524
 41
0.1524
 70
0
  0
VERTEX
  8
21
 10
10.2674
 20
6.5562
 30
0.0000
  0
VERTEX
  8
21
 10
10.2674
 20
8.1818
 30
0.0000
  0
SEQEND
  8
0
  0
POLYLINE
  8
21
 66
1
 10
0.0000
 20
0.0000
 30
0.0000
 40
0.0762
 41
0.0762
 70
0
  0
VERTEX
  8
21
 10
10.3055
 20
8.1818
 30
0.0000
 42
1.0000
  0
VERTEX
  8
21
 10
10.2293
 20
8.1818
 30
0.0000
  0
SEQEND
  8
0
  0
POLYLINE
  8
21
 66
1
 10
0.0000
 20
0.0000
 30
0.0000
 40
0.0762
 41
0.0762
 70
0
  0
VERTEX
  8
21
 10
10.2293
 20
6.5562
 30
0.0000
 42
1.0000
  0
VERTEX
  8
21
 10
10.3055
 20
6.5562
 30
0.0000
  0
SEQEND
  8
0
  0
POLYLINE
  8
21
 66
1
 10
0.0000
 20
0.0000
 30
0.0000
 40
0.1524
 41
0.1524
 70
0
  0
VERTEX
  8
21
 10
9.8159
 20
8.1818
 30
0.0000
  0
VERTEX
  8
21
 10
10.7190
 20
8.1818
 30
0.0000
  0
SEQEND
  8
0
  0
POLYLINE
  8
21
 66
1
 10
0.0000
 20
0.0000
 30
0.0000
 40
0.0762
 41
0.0762
 70
0
  0
VERTEX
  8
21
 10
10.7190
 20
8.1437
 30
0.0000
 42
1.0000
  0
VERTEX
  8
21
 10
10.7190
 20
8.2199
 30
0.0000
  0
SEQEND
  8
0
  0
POLYLINE
  8
21
 66
1
 10
0.0000
 20
0.0000
 30
0.0000
 40
0.0762
 41
0.0762
 70
0
  0
VERTEX
  8
21
 10
9.8159
 20
8.2199
 30
0.0000
 42
1.0000
  0
VERTEX
  8
21
 10
9.8159
 20
8.1437
 30
0.0000
  0
SEQEND
  8
0
  0
POLYLINE
  8
21
 66
1
 10
0.0000
 20
0.0000
 30
0.0000
 40
0.1524
 41
0.1524
 70
0
  0
VERTEX
  8
21
 10
11.2887
 20
7.1884
 30
0.0000
  0
VERTEX
  8
21
 10
12.3724
 20
7.1884
 30
0.0000
  0
SEQEND
  8
0
  0
POLYLINE
  8
21
 66
1
 10
0.0000
 20
0.0000
 30
0.0000
 40
0.0762
 41
0.0762
 70
0
  0
VERTEX
  8
21
 10
12.3724
 20
7.1503
 30
0.0000
 42
1.0000
  0
VERTEX
  8
21
 10
12.3724
 20
7.2265
 30
0.0000
  0
SEQEND
  8
0
  0
POLYLINE
  8
21
 66
1
 10
0.0000
 20
0.0000
 30
0.0000
 40
0.0762
 41
0.0762
 70
0
  0
VERTEX
  8
21
 10
11.2887
 20
7.2265
 30
0.0000
 42
1.0000
  0
VERTEX
  8
21
 10
11.2887
 20
7.1503
 30
0.0000
  0
SEQEND
  8
0
  0
POLYLINE
  8
21
 66
1
 10
0.0000
 20
0.0000
 30
0.0000
 40
0.1524
 41
0.1524
 70
0
  0
VERTEX
  8
21
 10
11.8306
 20
6.6465
 30
0.0000
  0
VERTEX
  8
21
 10
11.8306
 20
7.7302
 30
0.0000
  0
SEQEND
  8
0
  0
POLYLINE
  8
21
 66
1
 10
0.0000
 20
0.0000
 30
0.0000
 40
0.0762
 41
0.0762
 70
0
  0
VERTEX
  8
21
 10
11.8687
 20
7.7302
 30
0.0000
 42
1.0000
  0
VERTEX
  8
21
 10
11.7925
 20
7.7302
 30
0.0000
  0
SEQEND
  8
0
  0
POLYLINE
  8
21
 66
1
 10
0.0000
 20
0.0000
 30
0.0000
 40
0.0762
 41
0.0762
 70
0
  0
VERTEX
  8
21
 10
11.7925
 20
6.6465
 30
0.0000
 42
1.0000
  0
VERTEX
  8
21
 10
11.8687
 20
6.6465
 30
0.0000
  0
SEQEND
  8
0
  0
INSERT
  8
29
  2
RECT
 10
18.3700
 20
9.8650
 30
0.0000
 41
0.6200
 42
7.4900
 43
1.0000
 50
0.0000
  0
INSERT
  8
29
  2
RECT
 10
19.3700
 20
9.8650
 30
0.0000
 41
0.6200
 42
7.4900
 43
1.0000
 50
0.0000
  0
INSERT
  8
29
  2
RECT
 10
20.3600
 20
9.8650
 30
0.0000
 41
0.6200
 42
7.4900
 43
1.0000
 50
0.0000
  0
INSERT
  8
29
  2
RECT
 10
21.3700
 20
9.8650
 30
0.0000
 41
0.6200
 42
7.4900
 43
1.0000
 50
0.0000
  0
INSERT
  8
29
  2
RECT
 10
27.3700
 20
9.8650
 30
0.0000
 41
0.6200
 42
7.4900
 43
1.0000
 50
0.0000
  0
INSERT
  8
29
  2
RECT
 10
28.3700
 20
9.8650
 30
0.0000
 41
0.6200
 42
7.4900
 43
1.0000
 50
0.0000
  0
CIRCLE
  8
20
 10
0.6000
 20
21.7000
 30
0.0000
 40
1.6000
  0
POLYLINE
  8
29
 66
1
 10
0.0000
 20
0.0000
 30
0.0000
 40
1.7016
 41
1.7016
 70
0
  0
VERTEX
  8
29
 10
0.6000
 20
20.8492
 30
0.0000
 42
1.0000
  0
VERTEX
  8
29
 10
0.6000
 20
22.5508
 30
0.0000
 42
1.0000
  0
VERTEX
  8
29
 10
0.6000
 20
20.8492
 30
0.0000
  0
SEQEND
  8
0
  0
POLYLINE
  8
30
 66
1
 10
0.0000
 20
0.0000
 30
0.0000
 40
1.7016
 41
1.7016
 70
0
  0
VERTEX
  8
30
 10
0.6000
 20
20.8492
 30
0.0000
 42
1.0000
  0
VERTEX
  8
30
 10
0.6000
 20
22.5508
 30
0.0000
 42
1.0000
  0
VERTEX
  8
30
 10
0.6000
 20
20.8492
 30
0.0000
  0
SEQEND
  8
0
  0
CIRCLE
  8
20
 10
36.6000
 20
21.7000
 30
0.0000
 40
1.6000
  0
POLYLINE
  8
29
 66
1
 10
0.0000
 20
0.0000
 30
0.0000
 40
1.7016
 41
1.7016
 70
0
  0
VERTEX
  8
29
 10
36.6000
 20
20.8492
 30
0.0000
 42
1.0000
  0
VERTEX
  8
29
 10
36.6000
 20
22.5508
 30
0.0000
 42
1.0000
  0
VERTEX
  8
29
 10
36.6000
 20
20.8492
 30
0.0000
  0
SEQEND
  8
0
  0
POLYLINE
  8
30
 66
1
 10
0.0000
 20
0.0000
 30
0.0000
 40
1.7016
 41
1.7016
 70
0
  0
VERTEX
  8
30
 10
36.6000
 20
20.8492
 30
0.0000
 42
1.0000
  0
VERTEX
  8
30
 10
36.6000
 20
22.5508
 30
0.0000
 42
1.0000
  0
VERTEX
  8
30
 10
36.6000
 20
20.8492
 30
0.0000
  0
SEQEND
  8
0
  0
CIRCLE
  8
20
 10
36.6000
 20
8.7000
 30
0.0000
 40
1.6000
  0
POLYLINE
  8
29
 66
1
 10
0.0000
 20
0.0000
 30
0.0000
 40
1.7016
 41
1.7016
 70
0
  0
VERTEX
  8
29
 10
36.6000
 20
7.8492
 30
0.0000
 42
1.0000
  0
VERTEX
  8
29
 10
36.6000
 20
9.5508
 30
0.0000
 42
1.0000
  0
VERTEX
  8
29
 10
36.6000
 20
7.8492
 30
0.0000
  0
SEQEND
  8
0
  0
POLYLINE
  8
30
 66
1
 10
0.0000
 20
0.0000
 30
0.0000
 40
1.7016
 41
1.7016
 70
0
  0
VERTEX
  8
30
 10
36.6000
 20
7.8492
 30
0.0000
 42
1.0000
  0
VERTEX
  8
30
 10
36.6000
 20
9.5508
 30
0.0000
 42
1.0000
  0
VERTEX
  8
30
 10
36.6000
 20
7.8492
 30
0.0000
  0
SEQEND
  8
0
  0
CIRCLE
  8
20
 10
0.6000
 20
8.7000
 30
0.0000
 40
1.6000
  0
POLYLINE
  8
29
 66
1
 10
0.0000
 20
0.0000
 30
0.0000
 40
1.7016
 41
1.7016
 70
0
  0
VERTEX
  8
29
 10
0.6000
 20
7.8492
 30
0.0000
 42
1.0000
  0
VERTEX
  8
29
 10
0.6000
 20
9.5508
 30
0.0000
 42
1.0000
  0
VERTEX
  8
29
 10
0.6000
 20
7.8492
 30
0.0000
  0
SEQEND
  8
0
  0
POLYLINE
  8
30
 66
1
 10
0.0000
 20
0.0000
 30
0.0000
 40
1.7016
 41
1.7016
 70
0
  0
VERTEX
  8
30
 10
0.6000
 20
7.8492
 30
0.0000
 42
1.0000
  0
VERTEX
  8
30
 10
0.6000
 20
9.5508
 30
0.0000
 42
1.0000
  0
VERTEX
  8
30
 10
0.6000
 20
7.8492
 30
0.0000
  0
SEQEND
  8
0
  0
POINT
  8
23
 10
17.5700
 20
6.9500
 30
0.0000
  0
POLYLINE
  8
21
 66
1
 10
0.0000
 20
0.0000
 30
0.0000
 40
0.1270
 41
0.1270
 70
0
  0
VERTEX
  8
21
 10
17.5700
 20
7.1000
 30
0.0000
  0
VERTEX
  8
21
 10
17.5700
 20
10.9700
 30
0.0000
  0
SEQEND
  8
0
  0
POLYLINE
  8
21
 66
1
 10
0.0000
 20
0.0000
 30
0.0000
 40
0.0635
 41
0.0635
 70
0
  0
VERTEX
  8
21
 10
17.6017
 20
10.9700
 30
0.0000
 42
1.0000
  0
VERTEX
  8
21
 10
17.5383
 20
10.9700
 30
0.0000
  0
SEQEND
  8
0
  0
POLYLINE
  8
21
 66
1
 10
0.0000
 20
0.0000
 30
0.0000
 40
0.0635
 41
0.0635
 70
0
  0
VERTEX
  8
21
 10
17.5383
 20
7.1000
 30
0.0000
 42
1.0000
  0
VERTEX
  8
21
 10
17.6017
 20
7.1000
 30
0.0000
  0
SEQEND
  8
0
  0
POLYLINE
  8
21
 66
1
 10
0.0000
 20
0.0000
 30
0.0000
 40
0.1270
 41
0.1270
 70
0
  0
VERTEX
  8
21
 10
17.5700
 20
10.9700
 30
0.0000
  0
VERTEX
  8
21
 10
29.1700
 20
10.9700
 30
0.0000
  0
SEQEND
  8
0
  0
POLYLINE
  8
21
 66
1
 10
0.0000
 20
0.0000
 30
0.0000
 40
0.0635
 41
0.0635
 70
0
  0
VERTEX
  8
21
 10
29.1700
 20
10.9383
 30
0.0000
 42
1.0000
  0
VERTEX
  8
21
 10
29.1700
 20
11.0018
 30
0.0000
  0
SEQEND
  8
0
  0
POLYLINE
  8
21
 66
1
 10
0.0000
 20
0.0000
 30
0.0000
 40
0.0635
 41
0.0635
 70
0
  0
VERTEX
  8
21
 10
17.5700
 20
11.0018
 30
0.0000
 42
1.0000
  0
VERTEX
  8
21
 10
17.5700
 20
10.9383
 30
0.0000
  0
SEQEND
  8
0
  0
POLYLINE
  8
21
 66
1
 10
0.0000
 20
0.0000
 30
0.0000
 40
0.1270
 41
0.1270
 70
0
  0
VERTEX
  8
21
 10
29.1700
 20
10.9700
 30
0.0000
  0
VERTEX
  8
21
 10
29.1700
 20
7.1000
 30
0.0000
  0
SEQEND
  8
0
  0
POLYLINE
  8
21
 66
1
 10
0.0000
 20
0.0000
 30
0.0000
 40
0.0635
 41
0.0635
 70
0
  0
VERTEX
  8
21
 10
29.1383
 20
7.1000
 30
0.0000
 42
1.0000
  0
VERTEX
  8
21
 10
29.2018
 20
7.1000
 30
0.0000
  0
SEQEND
  8
0
  0
POLYLINE
  8
21
 66
1
 10
0.0000
 20
0.0000
 30
0.0000
 40
0.0635
 41
0.0635
 70
0
  0
VERTEX
  8
21
 10
29.2018
 20
10.9700
 30
0.0000
 42
1.0000
  0
VERTEX
  8
21
 10
29.1383
 20
10.9700
 30
0.0000
  0
SEQEND
  8
0
  0
POLYLINE
  8
21
 66
1
 10
0.0000
 20
0.0000
 30
0.0000
 40
0.1270
 41
0.1270
 70
0
  0
VERTEX
  8
21
 10
29.1700
 20
7.1000
 30
0.0000
  0
VERTEX
  8
21
 10
17.5700
 20
7.1000
 30
0.0000
  0
SEQEND
  8
0
  0
POLYLINE
  8
21
 66
1
 10
0.0000
 20
0.0000
 30
0.0000
 40
0.0635
 41
0.0635
 70
0
  0
VERTEX
  8
21
 10
17.5700
 20
7.1318
 30
0.0000
 42
1.0000
  0
VERTEX
  8
21
 10
17.5700
 20
7.0683
 30
0.0000
  0
SEQEND
  8
0
  0
POLYLINE
  8
21
 66
1
 10
0.0000
 20
0.0000
 30
0.0000
 40
0.0635
 41
0.0635
 70
0
  0
VERTEX
  8
21
 10
29.1700
 20
7.0683
 30
0.0000
 42
1.0000
  0
VERTEX
  8
21
 10
29.1700
 20
7.1318
 30
0.0000
  0
SEQEND
  8
0
  0
POLYLINE
  8
21
 66
1
 10
0.0000
 20
0.0000
 30
0.0000
 40
0.1524
 41
0.1524
 70
0
  0
VERTEX
  8
21
 10
17.8700
 20
7.2500
 30
0.0000
 42
1.0000
  0
VERTEX
  8
21
 10
17.8700
 20
7.4500
 30
0.0000
 42
1.0000
  0
VERTEX
  8
21
 10
17.8700
 20
7.2500
 30
0.0000
  0
SEQEND
  8
0
  0
INSERT
  8
1
  2
RECT
 10
18.3700
 20
9.0000
 30
0.0000
 41
0.6000
 42
3.0000
 43
1.0000
 50
0.0000
  0
INSERT
  8
29
  2
RECT
 10
18.3700
 20
9.0000
 30
0.0000
 41
0.8032
 42
3.2032
 43
1.0000
 50
0.0000
  0
INSERT
  8
31
  2
RECT
 10
18.3700
 20
9.0000
 30
0.0000
 41
0.6000
 42
3.0000
 43
1.0000
 50
0.0000
  0
INSERT
  8
1
  2
RECT
 10
19.3700
 20
9.0000
 30
0.0000
 41
0.6000
 42
3.0000
 43
1.0000
 50
0.0000
  0
INSERT
  8
29
  2
RECT
 10
19.3700
 20
9.0000
 30
0.0000
 41
0.8032
 42
3.2032
 43
1.0000
 50
0.0000
  0
INSERT
  8
31
  2
RECT
 10
19.3700
 20
9.0000
 30
0.0000
 41
0.6000
 42
3.0000
 43
1.0000
 50
0.0000
  0
INSERT
  8
1
  2
RECT
 10
20.3700
 20
9.0000
 30
0.0000
 41
0.6000
 42
3.0000
 43
1.0000
 50
0.0000
  0
INSERT
  8
29
  2
RECT
 10
20.3700
 20
9.0000
 30
0.0000
 41
0.8032
 42
3.2032
 43
1.0000
 50
0.0000
  0
INSERT
  8
31
  2
RECT
 10
20.3700
 20
9.0000
 30
0.0000
 41
0.6000
 42
3.0000
 43
1.0000
 50
0.0000
  0
INSERT
  8
1
  2
RECT
 10
21.3700
 20
9.0000
 30
0.0000
 41
0.6000
 42
3.0000
 43
1.0000
 50
0.0000
  0
INSERT
  8
29
  2
RECT
 10
21.3700
 20
9.0000
 30
0.0000
 41
0.8032
 42
3.2032
 43
1.0000
 50
0.0000
  0
INSERT
  8
31
  2
RECT
 10
21.3700
 20
9.0000
 30
0.0000
 41
0.6000
 42
3.0000
 43
1.0000
 50
0.0000
  0
INSERT
  8
1
  2
RECT
 10
22.3700
 20
9.0000
 30
0.0000
 41
0.6000
 42
3.0000
 43
1.0000
 50
0.0000
  0
INSERT
  8
29
  2
RECT
 10
22.3700
 20
9.0000
 30
0.0000
 41
0.8032
 42
3.2032
 43
1.0000
 50
0.0000
  0
INSERT
  8
31
  2
RECT
 10
22.3700
 20
9.0000
 30
0.0000
 41
0.6000
 42
3.0000
 43
1.0000
 50
0.0000
  0
INSERT
  8
1
  2
RECT
 10
23.3700
 20
9.0000
 30
0.0000
 41
0.6000
 42
3.0000
 43
1.0000
 50
0.0000
  0
INSERT
  8
29
  2
RECT
 10
23.3700
 20
9.0000
 30
0.0000
 41
0.8032
 42
3.2032
 43
1.0000
 50
0.0000
  0
INSERT
  8
31
  2
RECT
 10
23.3700
 20
9.0000
 30
0.0000
 41
0.6000
 42
3.0000
 43
1.0000
 50
0.0000
  0
INSERT
  8
1
  2
RECT
 10
24.3700
 20
9.0000
 30
0.0000
 41
0.6000
 42
3.0000
 43
1.0000
 50
0.0000
  0
INSERT
  8
29
  2
RECT
 10
24.3700
 20
9.0000
 30
0.0000
 41
0.8032
 42
3.2032
 43
1.0000
 50
0.0000
  0
INSERT
  8
31
  2
RECT
 10
24.3700
 20
9.0000
 30
0.0000
 41
0.6000
 42
3.0000
 43
1.0000
 50
0.0000
  0
INSERT
  8
1
  2
RECT
 10
25.3700
 20
9.0000
 30
0.0000
 41
0.6000
 42
3.0000
 43
1.0000
 50
0.0000
  0
INSERT
  8
29
  2
RECT
 10
25.3700
 20
9.0000
 30
0.0000
 41
0.8032
 42
3.2032
 43
1.0000
 50
0.0000
  0
INSERT
  8
31
  2
RECT
 10
25.3700
 20
9.0000
 30
0.0000
 41
0.6000
 42
3.0000
 43
1.0000
 50
0.0000
  0
INSERT
  8
1
  2
RECT
 10
26.3700
 20
9.0000
 30
0.0000
 41
0.6000
 42
3.0000
 43
1.0000
 50
0.0000
  0
INSERT
  8
29
  2
RECT
 10
26.3700
 20
9.0000
 30
0.0000
 41
0.8032
 42
3.2032
 43
1.0000
 50
0.0000
  0
INSERT
  8
31
  2
RECT
 10
26.3700
 20
9.0000
 30
0.0000
 41
0.6000
 42
3.0000
 43
1.0000
 50
0.0000
  0
INSERT
  8
1
  2
RECT
 10
27.3700
 20
9.0000
 30
0.0000
 41
0.6000
 42
3.0000
 43
1.0000
 50
0.0000
  0
INSERT
  8
29
  2
RECT
 10
27.3700
 20
9.0000
 30
0.0000
 41
0.8032
 42
3.2032
 43
1.0000
 50
0.0000
  0
INSERT
  8
31
  2
RECT
 10
27.3700
 20
9.0000
 30
0.0000
 41
0.6000
 42
3.0000
 43
1.0000
 50
0.0000
  0
INSERT
  8
1
  2
RECT
 10
28.3700
 20
9.0000
 30
0.0000
 41
0.6000
 42
3.0000
 43
1.0000
 50
0.0000
  0
INSERT
  8
29
  2
RECT
 10
28.3700
 20
9.0000
 30
0.0000
 41
0.8032
 42
3.2032
 43
1.0000
 50
0.0000
  0
INSERT
  8
31
  2
RECT
 10
28.3700
 20
9.0000
 30
0.0000
 41
0.6000
 42
3.0000
 43
1.0000
 50
0.0000
  0
POLYLINE
  8
25
 66
1
 10
0.0000
 20
0.0000
 30
0.0000
 40
0.1016
 41
0.1016
 70
0
  0
VERTEX
  8
25
 10
15.6408
 20
11.2508
 30
0.0000
  0
VERTEX
  8
25
 10
15.6408
 20
12.4192
 30
0.0000
  0
SEQEND
  8
0
  0
POLYLINE
  8
25
 66
1
 10
0.0000
 20
0.0000
 30
0.0000
 40
0.0508
 41
0.0508
 70
0
  0
VERTEX
  8
25
 10
15.6662
 20
12.4192
 30
0.0000
 42
1.0000
  0
VERTEX
  8
25
 10
15.6154
 20
12.4192
 30
0.0000
  0
SEQEND
  8
0
  0
POLYLINE
  8
25
 66
1
 10
0.0000
 20
0.0000
 30
0.0000
 40
0.0508
 41
0.0508
 70
0
  0
VERTEX
  8
25
 10
15.6154
 20
11.2508
 30
0.0000
 42
1.0000
  0
VERTEX
  8
25
 10
15.6662
 20
11.2508
 30
0.0000
  0
SEQEND
  8
0
  0
POLYLINE
  8
25
 66
1
 10
0.0000
 20
0.0000
 30
0.0000
 40
0.1016
 41
0.1016
 70
0
  0
VERTEX
  8
25
 10
16.2899
 20
12.4192
 30
0.0000
  0
VERTEX
  8
25
 10
15.6408
 20
11.7052
 30
0.0000
  0
SEQEND
  8
0
  0
POLYLINE
  8
25
 66
1
 10
0.0000
 20
0.0000
 30
0.0000
 40
0.0508
 41
0.0508
 70
0
  0
VERTEX
  8
25
 10
15.6220
 20
11.7223
 30
0.0000
 42
1.0000
  0
VERTEX
  8
25
 10
15.6596
 20
11.6881
 30
0.0000
  0
SEQEND
  8
0
  0
POLYLINE
  8
25
 66
1
 10
0.0000
 20
0.0000
 30
0.0000
 40
0.0508
 41
0.0508
 70
0
  0
VERTEX
  8
25
 10
16.3087
 20
12.4021
 30
0.0000
 42
1.0000
  0
VERTEX
  8
25
 10
16.2711
 20
12.4363
 30
0.0000
  0
SEQEND
  8
0
  0
POLYLINE
  8
25
 66
1
 10
0.0000
 20
0.0000
 30
0.0000
 40
0.1016
 41
0.1016
 70
0
  0
VERTEX
  8
25
 10
16.2899
 20
11.2508
 30
0.0000
  0
VERTEX
  8
25
 10
15.9004
 20
11.9648
 30
0.0000
  0
SEQEND
  8
0
  0
POLYLINE
  8
25
 66
1
 10
0.0000
 20
0.0000
 30
0.0000
 40
0.0508
 41
0.0508
 70
0
  0
VERTEX
  8
25
 10
15.9227
 20
11.9770
 30
0.0000
 42
1.0000
  0
VERTEX
  8
25
 10
15.8781
 20
11.9527
 30
0.0000
  0
SEQEND
  8
0
  0
POLYLINE
  8
25
 66
1
 10
0.0000
 20
0.0000
 30
0.0000
 40
0.0508
 41
0.0508
 70
0
  0
VERTEX
  8
25
 10
16.2676
 20
11.2386
 30
0.0000
 42
1.0000
  0
VERTEX
  8
25
 10
16.3122
 20
11.2630
 30
0.0000
  0
SEQEND
  8
0
  0
POLYLINE
  8
25
 66
1
 10
0.0000
 20
0.0000
 30
0.0000
 40
0.1016
 41
0.1016
 70
0
  0
VERTEX
  8
25
 10
16.7288
 20
12.1596
 30
0.0000
  0
VERTEX
  8
25
 10
17.0533
 20
12.4192
 30
0.0000
  0
SEQEND
  8
0
  0
POLYLINE
  8
25
 66
1
 10
0.0000
 20
0.0000
 30
0.0000
 40
0.0508
 41
0.0508
 70
0
  0
VERTEX
  8
25
 10
17.0692
 20
12.3994
 30
0.0000
 42
1.0000
  0
VERTEX
  8
25
 10
17.0374
 20
12.4390
 30
0.0000
  0
SEQEND
  8
0
  0
POLYLINE
  8
25
 66
1
 10
0.0000
 20
0.0000
 30
0.0000
 40
0.0508
 41
0.0508
 70
0
  0
VERTEX
  8
25
 10
16.7129
 20
12.1794
 30
0.0000
 42
1.0000
  0
VERTEX
  8
25
 10
16.7446
 20
12.1397
 30
0.0000
  0
SEQEND
  8
0
  0
POLYLINE
  8
25
 66
1
 10
0.0000
 20
0.0000
 30
0.0000
 40
0.1016
 41
0.1016
 70
0
  0
VERTEX
  8
25
 10
17.0533
 20
12.4192
 30
0.0000
  0
VERTEX
  8
25
 10
17.0533
 20
11.2508
 30
0.0000
  0
SEQEND
  8
0
  0
POLYLINE
  8
25
 66
1
 10
0.0000
 20
0.0000
 30
0.0000
 40
0.0508
 41
0.0508
 70
0
  0
VERTEX
  8
25
 10
17.0279
 20
11.2508
 30
0.0000
 42
1.0000
  0
VERTEX
  8
25
 10
17.0787
 20
11.2508
 30
0.0000
  0
SEQEND
  8
0
  0
POLYLINE
  8
25
 66
1
 10
0.0000
 20
0.0000
 30
0.0000
 40
0.0508
 41
0.0508
 70
0
  0
VERTEX
  8
25
 10
17.0787
 20
12.4192
 30
0.0000
 42
1.0000
  0
VERTEX
  8
25
 10
17.0279
 20
12.4192
 30
0.0000
  0
SEQEND
  8
0
  0
POLYLINE
  8
25
 66
1
 10
0.0000
 20
0.0000
 30
0.0000
 40
0.1016
 41
0.1016
 70
0
  0
VERTEX
  8
25
 10
16.7288
 20
11.2508
 30
0.0000
  0
VERTEX
  8
25
 10
17.3779
 20
11.2508
 30
0.0000
  0
SEQEND
  8
0
  0
POLYLINE
  8
25
 66
1
 10
0.0000
 20
0.0000
 30
0.0000
 40
0.0508
 41
0.0508
 70
0
  0
VERTEX
  8
25
 10
17.3779
 20
11.2254
 30
0.0000
 42
1.0000
  0
VERTEX
  8
25
 10
17.3779
 20
11.2762
 30
0.0000
  0
SEQEND
  8
0
  0
POLYLINE
  8
25
 66
1
 10
0.0000
 20
0.0000
 30
0.0000
 40
0.0508
 41
0.0508
 70
0
  0
VERTEX
  8
25
 10
16.7288
 20
11.2762
 30
0.0000
 42
1.0000
  0
VERTEX
  8
25
 10
16.7288
 20
11.2254
 30
0.0000
  0
SEQEND
  8
0
  0
POLYLINE
  8
1
 66
1
 10
0.0000
 20
0.0000
 30
0.0000
 40
0.6096
 41
0.6096
 70
0
  0
VERTEX
  8
1
 10
21.3700
 20
9.0000
 30
0.0000
  0
VERTEX
  8
1
 10
21.3700
 20
20.0000
 30
0.0000
  0
SEQEND
  8
0
  0
POLYLINE
  8
1
 66
1
 10
0.0000
 20
0.0000
 30
0.0000
 40
0.3048
 41
0.3048
 70
0
  0
VERTEX
  8
1
 10
21.5224
 20
20.0000
 30
0.0000
 42
1.0000
  0
VERTEX
  8
1
 10
21.2176
 20
20.0000
 30
0.0000
  0
SEQEND
  8
0
  0
POLYLINE
  8
1
 66
1
 10
0.0000
 20
0.0000
 30
0.0000
 40
0.3048
 41
0.3048
 70
0
  0
VERTEX
  8
1
 10
21.2176
 20
9.0000
 30
0.0000
 42
1.0000
  0
VERTEX
  8
1
 10
21.5224
 20
9.0000
 30
0.0000
  0
SEQEND
  8
0
  0
POLYLINE
  8
1
 66
1
 10
0.0000
 20
0.0000
 30
0.0000
 40
0.6096
 41
0.6096
 70
0
  0
VERTEX
  8
1
 10
21.3700
 20
20.0000
 30
0.0000
  0
VERTEX
  8
1
 10
21.3700
 20
22.5700
 30
0.0000
  0
SEQEND
  8
0
  0
POLYLINE
  8
1
 66
1
 10
0.0000
 20
0.0000
 30
0.0000
 40
0.3048
 41
0.3048
 70
0
  0
VERTEX
  8
1
 10
21.5224
 20
22.5700
 30
0.0000
 42
1.0000
  0
VERTEX
  8
1
 10
21.2176
 20
22.5700
 30
0.0000
  0
SEQEND
  8
0
  0
POLYLINE
  8
1
 66
1
 10
0.0000
 20
0.0000
 30
0.0000
 40
0.3048
 41
0.3048
 70
0
  0
VERTEX
  8
1
 10
21.2176
 20
20.0000
 30
0.0000
 42
1.0000
  0
VERTEX
  8
1
 10
21.5224
 20
20.0000
 30
0.0000
  0
SEQEND
  8
0
  0
POLYLINE
  8
1
 66
1
 10
0.0000
 20
0.0000
 30
0.0000
 40
0.6096
 41
0.6096
 70
0
  0
VERTEX
  8
1
 10
21.3700
 20
22.5700
 30
0.0000
  0
VERTEX
  8
1
 10
21.4000
 20
22.6000
 30
0.0000
  0
SEQEND
  8
0
  0
POLYLINE
  8
1
 66
1
 10
0.0000
 20
0.0000
 30
0.0000
 40
0.3048
 41
0.3048
 70
0
  0
VERTEX
  8
1
 10
21.5078
 20
22.4922
 30
0.0000
 42
1.0000
  0
VERTEX
  8
1
 10
21.2922
 20
22.7078
 30
0.0000
  0
SEQEND
  8
0
  0
POLYLINE
  8
1
 66
1
 10
0.0000
 20
0.0000
 30
0.0000
 40
0.3048
 41
0.3048
 70
0
  0
VERTEX
  8
1
 10
21.2622
 20
22.6778
 30
0.0000
 42
1.0000
  0
VERTEX
  8
1
 10
21.4778
 20
22.4622
 30
0.0000
  0
SEQEND
  8
0
  0
POLYLINE
  8
1
 66
1
 10
0.0000
 20
0.0000
 30
0.0000
 40
0.6096
 41
0.6096
 70
0
  0
VERTEX
  8
1
 10
20.3700
 20
9.0000
 30
0.0000
  0
VERTEX
  8
1
 10
20.3700
 20
19.0000
 30
0.0000
  0
SEQEND
  8
0
  0
POLYLINE
  8
1
 66
1
 10
0.0000
 20
0.0000
 30
0.0000
 40
0.3048
 41
0.3048
 70
0
  0
VERTEX
  8
1
 10
20.5224
 20
19.0000
 30
0.0000
 42
1.0000
  0
VERTEX
  8
1
 10
20.2176
 20
19.0000
 30
0.0000
  0
SEQEND
  8
0
  0
POLYLINE
  8
1
 66
1
 10
0.0000
 20
0.0000
 30
0.0000
 40
0.3048
 41
0.3048
 70
0
  0
VERTEX
  8
1
 10
20.2176
 20
9.0000
 30
0.0000
 42
1.0000
  0
VERTEX
  8
1
 10
20.5224
 20
9.0000
 30
0.0000
  0
SEQEND
  8
0
  0
POLYLINE
  8
1
 66
1
 10
0.0000
 20
0.0000
 30
0.0000
 40
0.6096
 41
0.6096
 70
0
  0
VERTEX
  8
1
 10
20.3700
 20
19.0000
 30
0.0000
  0
VERTEX
  8
1
 10
21.3700
 20
20.0000
 30
0.0000
  0
SEQEND
  8
0
  0
POLYLINE
  8
1
 66
1
 10
0.0000
 20
0.0000
 30
0.0000
 40
0.3048
 41
0.3048
 70
0
  0
VERTEX
  8
1
 10
21.4778
 20
19.8922
 30
0.0000
 42
1.0000
  0
VERTEX
  8
1
 10
21.2622
 20
20.1078
 30
0.0000
  0
SEQEND
  8
0
  0
POLYLINE
  8
1
 66
1
 10
0.0000
 20
0.0000
 30
0.0000
 40
0.3048
 41
0.3048
 70
0
  0
VERTEX
  8
1
 10
20.2622
 20
19.1078
 30
0.0000
 42
1.0000
  0
VERTEX
  8
1
 10
20.4778
 20
18.8922
 30
0.0000
  0
SEQEND
  8
0
  0
POLYLINE
  8
16
 66
1
 10
0.0000
 20
0.0000
 30
0.0000
 40
2.5400
 41
2.5400
 70
0
  0
VERTEX
  8
16
 10
21.4000
 20
22.6000
 30
0.0000
  0
VERTEX
  8
16
 10
21.4000
 20
20.3000
 30
0.0000
  0
SEQEND
  8
0
  0
POLYLINE
  8
16
 66
1
 10
0.0000
 20
0.0000
 30
0.0000
 40
1.2700
 41
1.2700
 70
0
  0
VERTEX
  8
16
 10
20.7650
 20
20.3000
 30
0.0000
 42
1.0000
  0
VERTEX
  8
16
 10
22.0350
 20
20.3000
 30
0.0000
  0
SEQEND
  8
0
  0
POLYLINE
  8
16
 66
1
 10
0.0000
 20
0.0000
 30
0.0000
 40
1.2700
 41
1.2700
 70
0
  0
VERTEX
  8
16
 10
22.0350
 20
22.6000
 30
0.0000
 42
1.0000
  0
VERTEX
  8
16
 10
20.7650
 20
22.6000
 30
0.0000
  0
SEQEND
  8
0
  0
POLYLINE
  8
16
 66
1
 10
0.0000
 20
0.0000
 30
0.0000
 40
2.5400
 41
2.5400
 70
0
  0
VERTEX
  8
16
 10
19.2000
 20
18.1000
 30
0.0000
  0
VERTEX
  8
16
 10
8.4000
 20
18.1000
 30
0.0000
  0
SEQEND
  8
0
  0
POLYLINE
  8
16
 66
1
 10
0.0000
 20
0.0000
 30
0.0000
 40
1.2700
 41
1.2700
 70
0
  0
VERTEX
  8
16
 10
8.4000
 20
18.7350
 30
0.0000
 42
1.0000
  0
VERTEX
  8
16
 10
8.4000
 20
17.4650
 30
0.0000
  0
SEQEND
  8
0
  0
POLYLINE
  8
16
 66
1
 10
0.0000
 20
0.0000
 30
0.0000
 40
1.2700
 41
1.2700
 70
0
  0
VERTEX
  8
16
 10
19.2000
 20
17.4650
 30
0.0000
 42
1.0000
  0
VERTEX
  8
16
 10
19.2000
 20
18.7350
 30
0.0000
  0
SEQEND
  8
0
  0
POLYLINE
  8
16
 66
1
 10
0.0000
 20
0.0000
 30
0.0000
 40
2.5400
 41
2.5400
 70
0
  0
VERTEX
  8
16
 10
21.4000
 20
20.3000
 30
0.0000
  0
VERTEX
  8
16
 10
19.2000
 20
18.1000
 30
0.0000
  0
SEQEND
  8
0
  0
POLYLINE
  8
16
 66
1
 10
0.0000
 20
0.0000
 30
0.0000
 40
1.2700
 41
1.2700
 70
0
  0
VERTEX
  8
16
 10
18.7510
 20
18.5490
 30
0.0000
 42
1.0000
  0
VERTEX
  8
16
 10
19.6490
 20
17.6510
 30
0.0000
  0
SEQEND
  8
0
  0
POLYLINE
  8
16
 66
1
 10
0.0000
 20
0.0000
 30
0.0000
 40
1.2700
 41
1.2700
 70
0
  0
VERTEX
  8
16
 10
21.8490
 20
19.8510
 30
0.0000
 42
1.0000
  0
VERTEX
  8
16
 10
20.9510
 20
20.7490
 30
0.0000
  0
SEQEND
  8
0
  0
POLYLINE
  8
1
 66
1
 10
0.0000
 20
0.0000
 30
0.0000
 40
0.6096
 41
0.6096
 70
0
  0
VERTEX
  8
1
 10
20.3700
 20
9.0000
 30
0.0000
  0
VERTEX
  8
1
 10
20.3700
 20
6.4270
 30
0.0000
  0
SEQEND
  8
0
  0
POLYLINE
  8
1
 66
1
 10
0.0000
 20
0.0000
 30
0.0000
 40
0.3048
 41
0.3048
 70
0
  0
VERTEX
  8
1
 10
20.2176
 20
6.4270
 30
0.0000
 42
1.0000
  0
VERTEX
  8
1
 10
20.5224
 20
6.4270
 30
0.0000
  0
SEQEND
  8
0
  0
POLYLINE
  8
1
 66
1
 10
0.0000
 20
0.0000
 30
0.0000
 40
0.3048
 41
0.3048
 70
0
  0
VERTEX
  8
1
 10
20.5224
 20
9.0000
 30
0.0000
 42
1.0000
  0
VERTEX
  8
1
 10
20.2176
 20
9.0000
 30
0.0000
  0
SEQEND
  8
0
  0
POLYLINE
  8
1
 66
1
 10
0.0000
 20
0.0000
 30
0.0000
 40
0.6096
 41
0.6096
 70
0
  0
VERTEX
  8
1
 10
21.3700
 20
9.0000
 30
0.0000
  0
VERTEX
  8
1
 10
21.3700
 20
6.4270
 30
0.0000
  0
SEQEND
  8
0
  0
POLYLINE
  8
1
 66
1
 10
0.0000
 20
0.0000
 30
0.0000
 40
0.3048
 41
0.3048
 70
0
  0
VERTEX
  8
1
 10
21.2176
 20
6.4270
 30
0.0000
 42
1.0000
  0
VERTEX
  8
1
 10
21.5224
 20
6.4270
 30
0.0000
  0
SEQEND
  8
0
  0
POLYLINE
  8
1
 66
1
 10
0.0000
 20
0.0000
 30
0.0000
 40
0.3048
 41
0.3048
 70
0
  0
VERTEX
  8
1
 10
21.5224
 20
9.0000
 30
0.0000
 42
1.0000
  0
VERTEX
  8
1
 10
21.2176
 20
9.0000
 30
0.0000
  0
SEQEND
  8
0
  0
INSERT
  8
18
  2
ROUNDV
 10
21.4000
 20
22.6000
 30
0.0000
 41
2.5000
 42
2.5000
 43
1.0000
 50
0.0000
  0
INSERT
  8
18
  2
ROUNDV
 10
21.4000
 20
22.6000
 30
0.0000
 41
2.5000
 42
2.5000
 43
1.0000
 50
0.0000
  0
CIRCLE
  8
44
 10
21.4000
 20
22.6000
 30
0.0000
 40
0.8000
  0
INSERT
  8
18
  2
ROUNDV
 10
8.4000
 20
18.1000
 30
0.0000
 41
2.5000
 42
2.5000
 43
1.0000
 50
0.0000
  0
INSERT
  8
18
  2
ROUNDV
 10
8.4000
 20
18.1000
 30
0.0000
 41
2.5000
 42
2.5000
 43
1.0000
 50
0.0000
  0
CIRCLE
  8
44
 10
8.4000
 20
18.1000
 30
0.0000
 40
0.8000
  0
POLYLINE
  8
1
 66
1
 10
0.0000
 20
0.0000
 30
0.0000
 40
0.6096
 41
0.6096
 70
0
  0
VERTEX
  8
1
 10
18.3700
 20
9.0000
 30
0.0000
  0
VERTEX
  8
1
 10
18.3700
 20
21.6300
 30
0.0000
  0
SEQEND
  8
0
  0
POLYLINE
  8
1
 66
1
 10
0.0000
 20
0.0000
 30
0.0000
 40
0.3048
 41
0.3048
 70
0
  0
VERTEX
  8
1
 10
18.5224
 20
21.6300
 30
0.0000
 42
1.0000
  0
VERTEX
  8
1
 10
18.2176
 20
21.6300
 30
0.0000
  0
SEQEND
  8
0
  0
POLYLINE
  8
1
 66
1
 10
0.0000
 20
0.0000
 30
0.0000
 40
0.3048
 41
0.3048
 70
0
  0
VERTEX
  8
1
 10
18.2176
 20
9.0000
 30
0.0000
 42
1.0000
  0
VERTEX
  8
1
 10
18.5224
 20
9.0000
 30
0.0000
  0
SEQEND
  8
0
  0
POLYLINE
  8
1
 66
1
 10
0.0000
 20
0.0000
 30
0.0000
 40
0.6096
 41
0.6096
 70
0
  0
VERTEX
  8
1
 10
18.3700
 20
21.6300
 30
0.0000
  0
VERTEX
  8
1
 10
17.4000
 20
22.6000
 30
0.0000
  0
SEQEND
  8
0
  0
POLYLINE
  8
1
 66
1
 10
0.0000
 20
0.0000
 30
0.0000
 40
0.3048
 41
0.3048
 70
0
  0
VERTEX
  8
1
 10
17.5078
 20
22.7078
 30
0.0000
 42
1.0000
  0
VERTEX
  8
1
 10
17.2922
 20
22.4922
 30
0.0000
  0
SEQEND
  8
0
  0
POLYLINE
  8
1
 66
1
 10
0.0000
 20
0.0000
 30
0.0000
 40
0.3048
 41
0.3048
 70
0
  0
VERTEX
  8
1
 10
18.2622
 20
21.5222
 30
0.0000
 42
1.0000
  0
VERTEX
  8
1
 10
18.4778
 20
21.7378
 30
0.0000
  0
SEQEND
  8
0
  0
POLYLINE
  8
1
 66
1
 10
0.0000
 20
0.0000
 30
0.0000
 40
0.6096
 41
0.6096
 70
0
  0
VERTEX
  8
1
 10
19.3700
 20
9.0000
 30
0.0000
  0
VERTEX
  8
1
 10
19.3700
 20
20.6300
 30
0.0000
  0
SEQEND
  8
0
  0
POLYLINE
  8
1
 66
1
 10
0.0000
 20
0.0000
 30
0.0000
 40
0.3048
 41
0.3048
 70
0
  0
VERTEX
  8
1
 10
19.5224
 20
20.6300
 30
0.0000
 42
1.0000
  0
VERTEX
  8
1
 10
19.2176
 20
20.6300
 30
0.0000
  0
SEQEND
  8
0
  0
POLYLINE
  8
1
 66
1
 10
0.0000
 20
0.0000
 30
0.0000
 40
0.3048
 41
0.3048
 70
0
  0
VERTEX
  8
1
 10
19.2176
 20
9.0000
 30
0.0000
 42
1.0000
  0
VERTEX
  8
1
 10
19.5224
 20
9.0000
 30
0.0000
  0
SEQEND
  8
0
  0
POLYLINE
  8
1
 66
1
 10
0.0000
 20
0.0000
 30
0.0000
 40
0.6096
 41
0.6096
 70
0
  0
VERTEX
  8
1
 10
19.3700
 20
20.6300
 30
0.0000
  0
VERTEX
  8
1
 10
18.3700
 20
21.6300
 30
0.0000
  0
SEQEND
  8
0
  0
POLYLINE
  8
1
 66
1
 10
0.0000
 20
0.0000
 30
0.0000
 40
0.3048
 41
0.3048
 70
0
  0
VERTEX
  8
1
 10
18.4778
 20
21.7378
 30
0.0000
 42
1.0000
  0
VERTEX
  8
1
 10
18.2622
 20
21.5222
 30
0.0000
  0
SEQEND
  8
0
  0
POLYLINE
  8
1
 66
1
 10
0.0000
 20
0.0000
 30
0.0000
 40
0.3048
 41
0.3048
 70
0
  0
VERTEX
  8
1
 10
19.2622
 20
20.5222
 30
0.0000
 42
1.0000
  0
VERTEX
  8
1
 10
19.4778
 20
20.7378
 30
0.0000
  0
SEQEND
  8
0
  0
POLYLINE
  8
16
 66
1
 10
0.0000
 20
0.0000
 30
0.0000
 40
2.5400
 41
2.5400
 70
0
  0
VERTEX
  8
16
 10
17.4000
 20
22.6000
 30
0.0000
  0
VERTEX
  8
16
 10
16.9000
 20
22.1000
 30
0.0000
  0
SEQEND
  8
0
  0
POLYLINE
  8
16
 66
1
 10
0.0000
 20
0.0000
 30
0.0000
 40
1.2700
 41
1.2700
 70
0
  0
VERTEX
  8
16
 10
16.4510
 20
22.5490
 30
0.0000
 42
1.0000
  0
VERTEX
  8
16
 10
17.3490
 20
21.6510
 30
0.0000
  0
SEQEND
  8
0
  0
POLYLINE
  8
16
 66
1
 10
0.0000
 20
0.0000
 30
0.0000
 40
1.2700
 41
1.2700
 70
0
  0
VERTEX
  8
16
 10
17.8490
 20
22.1510
 30
0.0000
 42
1.0000
  0
VERTEX
  8
16
 10
16.9510
 20
23.0490
 30
0.0000
  0
SEQEND
  8
0
  0
POLYLINE
  8
16
 66
1
 10
0.0000
 20
0.0000
 30
0.0000
 40
2.5400
 41
2.5400
 70
0
  0
VERTEX
  8
16
 10
16.9000
 20
22.1000
 30
0.0000
  0
VERTEX
  8
16
 10
8.4000
 20
22.1000
 30
0.0000
  0
SEQEND
  8
0
  0
POLYLINE
  8
16
 66
1
 10
0.0000
 20
0.0000
 30
0.0000
 40
1.2700
 41
1.2700
 70
0
  0
VERTEX
  8
16
 10
8.4000
 20
22.7350
 30
0.0000
 42
1.0000
  0
VERTEX
  8
16
 10
8.4000
 20
21.4650
 30
0.0000
  0
SEQEND
  8
0
  0
POLYLINE
  8
16
 66
1
 10
0.0000
 20
0.0000
 30
0.0000
 40
1.2700
 41
1.2700
 70
0
  0
VERTEX
  8
16
 10
16.9000
 20
21.4650
 30
0.0000
 42
1.0000
  0
VERTEX
  8
16
 10
16.9000
 20
22.7350
 30
0.0000
  0
SEQEND
  8
0
  0
POLYLINE
  8
1
 66
1
 10
0.0000
 20
0.0000
 30
0.0000
 40
0.6096
 41
0.6096
 70
0
  0
VERTEX
  8
1
 10
18.3700
 20
9.0000
 30
0.0000
  0
VERTEX
  8
1
 10
18.3700
 20
6.4270
 30
0.0000
  0
SEQEND
  8
0
  0
POLYLINE
  8
1
 66
1
 10
0.0000
 20
0.0000
 30
0.0000
 40
0.3048
 41
0.3048
 70
0
  0
VERTEX
  8
1
 10
18.2176
 20
6.4270
 30
0.0000
 42
1.0000
  0
VERTEX
  8
1
 10
18.5224
 20
6.4270
 30
0.0000
  0
SEQEND
  8
0
  0
POLYLINE
  8
1
 66
1
 10
0.0000
 20
0.0000
 30
0.0000
 40
0.3048
 41
0.3048
 70
0
  0
VERTEX
  8
1
 10
18.5224
 20
9.0000
 30
0.0000
 42
1.0000
  0
VERTEX
  8
1
 10
18.2176
 20
9.0000
 30
0.0000
  0
SEQEND
  8
0
  0
POLYLINE
  8
1
 66
1
 10
0.0000
 20
0.0000
 30
0.0000
 40
0.6096
 41
0.6096
 70
0
  0
VERTEX
  8
1
 10
19.3700
 20
9.0000
 30
0.0000
  0
VERTEX
  8
1
 10
19.3700
 20
6.4270
 30
0.0000
  0
SEQEND
  8
0
  0
POLYLINE
  8
1
 66
1
 10
0.0000
 20
0.0000
 30
0.0000
 40
0.3048
 41
0.3048
 70
0
  0
VERTEX
  8
1
 10
19.2176
 20
6.4270
 30
0.0000
 42
1.0000
  0
VERTEX
  8
1
 10
19.5224
 20
6.4270
 30
0.0000
  0
SEQEND
  8
0
  0
POLYLINE
  8
1
 66
1
 10
0.0000
 20
0.0000
 30
0.0000
 40
0.3048
 41
0.3048
 70
0
  0
VERTEX
  8
1
 10
19.5224
 20
9.0000
 30
0.0000
 42
1.0000
  0
VERTEX
  8
1
 10
19.2176
 20
9.0000
 30
0.0000
  0
SEQEND
  8
0
  0
INSERT
  8
18
  2
ROUNDV
 10
17.4000
 20
22.6000
 30
0.0000
 41
2.5000
 42
2.5000
 43
1.0000
 50
0.0000
  0
INSERT
  8
18
  2
ROUNDV
 10
17.4000
 20
22.6000
 30
0.0000
 41
2.5000
 42
2.5000
 43
1.0000
 50
0.0000
  0
CIRCLE
  8
44
 10
17.4000
 20
22.6000
 30
0.0000
 40
0.8000
  0
INSERT
  8
18
  2
ROUNDV
 10
8.4000
 20
22.1000
 30
0.0000
 41
2.5000
 42
2.5000
 43
1.0000
 50
0.0000
  0
INSERT
  8
18
  2
ROUNDV
 10
8.4000
 20
22.1000
 30
0.0000
 41
2.5000
 42
2.5000
 43
1.0000
 50
0.0000
  0
CIRCLE
  8
44
 10
8.4000
 20
22.1000
 30
0.0000
 40
0.8000
  0
POLYLINE
  8
1
 66
1
 10
0.0000
 20
0.0000
 30
0.0000
 40
0.6096
 41
0.6096
 70
0
  0
VERTEX
  8
1
 10
28.3700
 20
9.0000
 30
0.0000
  0
VERTEX
  8
1
 10
28.3700
 20
21.5700
 30
0.0000
  0
SEQEND
  8
0
  0
POLYLINE
  8
1
 66
1
 10
0.0000
 20
0.0000
 30
0.0000
 40
0.3048
 41
0.3048
 70
0
  0
VERTEX
  8
1
 10
28.5224
 20
21.5700
 30
0.0000
 42
1.0000
  0
VERTEX
  8
1
 10
28.2176
 20
21.5700
 30
0.0000
  0
SEQEND
  8
0
  0
POLYLINE
  8
1
 66
1
 10
0.0000
 20
0.0000
 30
0.0000
 40
0.3048
 41
0.3048
 70
0
  0
VERTEX
  8
1
 10
28.2176
 20
9.0000
 30
0.0000
 42
1.0000
  0
VERTEX
  8
1
 10
28.5224
 20
9.0000
 30
0.0000
  0
SEQEND
  8
0
  0
POLYLINE
  8
1
 66
1
 10
0.0000
 20
0.0000
 30
0.0000
 40
0.6096
 41
0.6096
 70
0
  0
VERTEX
  8
1
 10
28.3700
 20
21.5700
 30
0.0000
  0
VERTEX
  8
1
 10
29.4000
 20
22.6000
 30
0.0000
  0
SEQEND
  8
0
  0
POLYLINE
  8
1
 66
1
 10
0.0000
 20
0.0000
 30
0.0000
 40
0.3048
 41
0.3048
 70
0
  0
VERTEX
  8
1
 10
29.5078
 20
22.4922
 30
0.0000
 42
1.0000
  0
VERTEX
  8
1
 10
29.2922
 20
22.7078
 30
0.0000
  0
SEQEND
  8
0
  0
POLYLINE
  8
1
 66
1
 10
0.0000
 20
0.0000
 30
0.0000
 40
0.3048
 41
0.3048
 70
0
  0
VERTEX
  8
1
 10
28.2622
 20
21.6778
 30
0.0000
 42
1.0000
  0
VERTEX
  8
1
 10
28.4778
 20
21.4622
 30
0.0000
  0
SEQEND
  8
0
  0
POLYLINE
  8
16
 66
1
 10
0.0000
 20
0.0000
 30
0.0000
 40
2.5400
 41
2.5400
 70
0
  0
VERTEX
  8
16
 10
8.4000
 20
10.1000
 30
0.0000
  0
VERTEX
  8
16
 10
27.0000
 20
10.1000
 30
0.0000
  0
SEQEND
  8
0
  0
POLYLINE
  8
16
 66
1
 10
0.0000
 20
0.0000
 30
0.0000
 40
1.2700
 41
1.2700
 70
0
  0
VERTEX
  8
16
 10
27.0000
 20
9.4650
 30
0.0000
 42
1.0000
  0
VERTEX
  8
16
 10
27.0000
 20
10.7350
 30
0.0000
  0
SEQEND
  8
0
  0
POLYLINE
  8
16
 66
1
 10
0.0000
 20
0.0000
 30
0.0000
 40
1.2700
 41
1.2700
 70
0
  0
VERTEX
  8
16
 10
8.4000
 20
10.7350
 30
0.0000
 42
1.0000
  0
VERTEX
  8
16
 10
8.4000
 20
9.4650
 30
0.0000
  0
SEQEND
  8
0
  0
POLYLINE
  8
16
 66
1
 10
0.0000
 20
0.0000
 30
0.0000
 40
2.5400
 41
2.5400
 70
0
  0
VERTEX
  8
16
 10
29.4000
 20
12.5000
 30
0.0000
  0
VERTEX
  8
16
 10
29.4000
 20
22.6000
 30
0.0000
  0
SEQEND
  8
0
  0
POLYLINE
  8
16
 66
1
 10
0.0000
 20
0.0000
 30
0.0000
 40
1.2700
 41
1.2700
 70
0
  0
VERTEX
  8
16
 10
30.0350
 20
22.6000
 30
0.0000
 42
1.0000
  0
VERTEX
  8
16
 10
28.7650
 20
22.6000
 30
0.0000
  0
SEQEND
  8
0
  0
POLYLINE
  8
16
 66
1
 10
0.0000
 20
0.0000
 30
0.0000
 40
1.2700
 41
1.2700
 70
0
  0
VERTEX
  8
16
 10
28.7650
 20
12.5000
 30
0.0000
 42
1.0000
  0
VERTEX
  8
16
 10
30.0350
 20
12.5000
 30
0.0000
  0
SEQEND
  8
0
  0
POLYLINE
  8
16
 66
1
 10
0.0000
 20
0.0000
 30
0.0000
 40
2.5400
 41
2.5400
 70
0
  0
VERTEX
  8
16
 10
27.0000
 20
10.1000
 30
0.0000
  0
VERTEX
  8
16
 10
29.4000
 20
12.5000
 30
0.0000
  0
SEQEND
  8
0
  0
POLYLINE
  8
16
 66
1
 10
0.0000
 20
0.0000
 30
0.0000
 40
1.2700
 41
1.2700
 70
0
  0
VERTEX
  8
16
 10
29.8490
 20
12.0510
 30
0.0000
 42
1.0000
  0
VERTEX
  8
16
 10
28.9510
 20
12.9490
 30
0.0000
  0
SEQEND
  8
0
  0
POLYLINE
  8
16
 66
1
 10
0.0000
 20
0.0000
 30
0.0000
 40
1.2700
 41
1.2700
 70
0
  0
VERTEX
  8
16
 10
26.5510
 20
10.5490
 30
0.0000
 42
1.0000
  0
VERTEX
  8
16
 10
27.4490
 20
9.6510
 30
0.0000
  0
SEQEND
  8
0
  0
POLYLINE
  8
1
 66
1
 10
0.0000
 20
0.0000
 30
0.0000
 40
0.6096
 41
0.6096
 70
0
  0
VERTEX
  8
1
 10
28.3700
 20
9.0000
 30
0.0000
  0
VERTEX
  8
1
 10
28.3700
 20
6.4270
 30
0.0000
  0
SEQEND
  8
0
  0
POLYLINE
  8
1
 66
1
 10
0.0000
 20
0.0000
 30
0.0000
 40
0.3048
 41
0.3048
 70
0
  0
VERTEX
  8
1
 10
28.2176
 20
6.4270
 30
0.0000
 42
1.0000
  0
VERTEX
  8
1
 10
28.5224
 20
6.4270
 30
0.0000
  0
SEQEND
  8
0
  0
POLYLINE
  8
1
 66
1
 10
0.0000
 20
0.0000
 30
0.0000
 40
0.3048
 41
0.3048
 70
0
  0
VERTEX
  8
1
 10
28.5224
 20
9.0000
 30
0.0000
 42
1.0000
  0
VERTEX
  8
1
 10
28.2176
 20
9.0000
 30
0.0000
  0
SEQEND
  8
0
  0
INSERT
  8
18
  2
ROUNDV
 10
29.4000
 20
22.6000
 30
0.0000
 41
2.5000
 42
2.5000
 43
1.0000
 50
0.0000
  0
INSERT
  8
18
  2
ROUNDV
 10
29.4000
 20
22.6000
 30
0.0000
 41
2.5000
 42
2.5000
 43
1.0000
 50
0.0000
  0
CIRCLE
  8
44
 10
29.4000
 20
22.6000
 30
0.0000
 40
0.8000
  0
INSERT
  8
18
  2
ROUNDV
 10
8.4000
 20
10.1000
 30
0.0000
 41
2.5000
 42
2.5000
 43
1.0000
 50
0.0000
  0
INSERT
  8
18
  2
ROUNDV
 10
8.4000
 20
10.1000
 30
0.0000
 41
2.5000
 42
2.5000
 43
1.0000
 50
0.0000
  0
CIRCLE
  8
44
 10
8.4000
 20
10.1000
 30
0.0000
 40
0.8000
  0
POLYLINE
  8
1
 66
1
 10
0.0000
 20
0.0000
 30
0.0000
 40
0.6096
 41
0.6096
 70
0
  0
VERTEX
  8
1
 10
27.3700
 20
9.0000
 30
0.0000
  0
VERTEX
  8
1
 10
27.3700
 20
20.6300
 30
0.0000
  0
SEQEND
  8
0
  0
POLYLINE
  8
1
 66
1
 10
0.0000
 20
0.0000
 30
0.0000
 40
0.3048
 41
0.3048
 70
0
  0
VERTEX
  8
1
 10
27.5224
 20
20.6300
 30
0.0000
 42
1.0000
  0
VERTEX
  8
1
 10
27.2176
 20
20.6300
 30
0.0000
  0
SEQEND
  8
0
  0
POLYLINE
  8
1
 66
1
 10
0.0000
 20
0.0000
 30
0.0000
 40
0.3048
 41
0.3048
 70
0
  0
VERTEX
  8
1
 10
27.2176
 20
9.0000
 30
0.0000
 42
1.0000
  0
VERTEX
  8
1
 10
27.5224
 20
9.0000
 30
0.0000
  0
SEQEND
  8
0
  0
POLYLINE
  8
1
 66
1
 10
0.0000
 20
0.0000
 30
0.0000
 40
0.6096
 41
0.6096
 70
0
  0
VERTEX
  8
1
 10
27.3700
 20
20.6300
 30
0.0000
  0
VERTEX
  8
1
 10
25.4000
 20
22.6000
 30
0.0000
  0
SEQEND
  8
0
  0
POLYLINE
  8
1
 66
1
 10
0.0000
 20
0.0000
 30
0.0000
 40
0.3048
 41
0.3048
 70
0
  0
VERTEX
  8
1
 10
25.5078
 20
22.7078
 30
0.0000
 42
1.0000
  0
VERTEX
  8
1
 10
25.2922
 20
22.4922
 30
0.0000
  0
SEQEND
  8
0
  0
POLYLINE
  8
1
 66
1
 10
0.0000
 20
0.0000
 30
0.0000
 40
0.3048
 41
0.3048
 70
0
  0
VERTEX
  8
1
 10
27.2622
 20
20.5222
 30
0.0000
 42
1.0000
  0
VERTEX
  8
1
 10
27.4778
 20
20.7378
 30
0.0000
  0
SEQEND
  8
0
  0
POLYLINE
  8
16
 66
1
 10
0.0000
 20
0.0000
 30
0.0000
 40
2.5400
 41
2.5400
 70
0
  0
VERTEX
  8
16
 10
25.4000
 20
22.6000
 30
0.0000
  0
VERTEX
  8
16
 10
25.4000
 20
16.5000
 30
0.0000
  0
SEQEND
  8
0
  0
POLYLINE
  8
16
 66
1
 10
0.0000
 20
0.0000
 30
0.0000
 40
1.2700
 41
1.2700
 70
0
  0
VERTEX
  8
16
 10
24.7650
 20
16.5000
 30
0.0000
 42
1.0000
  0
VERTEX
  8
16
 10
26.0350
 20
16.5000
 30
0.0000
  0
SEQEND
  8
0
  0
POLYLINE
  8
16
 66
1
 10
0.0000
 20
0.0000
 30
0.0000
 40
1.2700
 41
1.2700
 70
0
  0
VERTEX
  8
16
 10
26.0350
 20
22.6000
 30
0.0000
 42
1.0000
  0
VERTEX
  8
16
 10
24.7650
 20
22.6000
 30
0.0000
  0
SEQEND
  8
0
  0
POLYLINE
  8
16
 66
1
 10
0.0000
 20
0.0000
 30
0.0000
 40
2.5400
 41
2.5400
 70
0
  0
VERTEX
  8
16
 10
23.0000
 20
14.1000
 30
0.0000
  0
VERTEX
  8
16
 10
8.4000
 20
14.1000
 30
0.0000
  0
SEQEND
  8
0
  0
POLYLINE
  8
16
 66
1
 10
0.0000
 20
0.0000
 30
0.0000
 40
1.2700
 41
1.2700
 70
0
  0
VERTEX
  8
16
 10
8.4000
 20
14.7350
 30
0.0000
 42
1.0000
  0
VERTEX
  8
16
 10
8.4000
 20
13.4650
 30
0.0000
  0
SEQEND
  8
0
  0
POLYLINE
  8
16
 66
1
 10
0.0000
 20
0.0000
 30
0.0000
 40
1.2700
 41
1.2700
 70
0
  0
VERTEX
  8
16
 10
23.0000
 20
13.4650
 30
0.0000
 42
1.0000
  0
VERTEX
  8
16
 10
23.0000
 20
14.7350
 30
0.0000
  0
SEQEND
  8
0
  0
POLYLINE
  8
16
 66
1
 10
0.0000
 20
0.0000
 30
0.0000
 40
2.5400
 41
2.5400
 70
0
  0
VERTEX
  8
16
 10
25.4000
 20
16.5000
 30
0.0000
  0
VERTEX
  8
16
 10
23.0000
 20
14.1000
 30
0.0000
  0
SEQEND
  8
0
  0
POLYLINE
  8
16
 66
1
 10
0.0000
 20
0.0000
 30
0.0000
 40
1.2700
 41
1.2700
 70
0
  0
VERTEX
  8
16
 10
22.5510
 20
14.5490
 30
0.0000
 42
1.0000
  0
VERTEX
  8
16
 10
23.4490
 20
13.6510
 30
0.0000
  0
SEQEND
  8
0
  0
POLYLINE
  8
16
 66
1
 10
0.0000
 20
0.0000
 30
0.0000
 40
1.2700
 41
1.2700
 70
0
  0
VERTEX
  8
16
 10
25.8490
 20
16.0510
 30
0.0000
 42
1.0000
  0
VERTEX
  8
16
 10
24.9510
 20
16.9490
 30
0.0000
  0
SEQEND
  8
0
  0
POLYLINE
  8
1
 66
1
 10
0.0000
 20
0.0000
 30
0.0000
 40
0.6096
 41
0.6096
 70
0
  0
VERTEX
  8
1
 10
27.3700
 20
9.0000
 30
0.0000
  0
VERTEX
  8
1
 10
27.3700
 20
6.4270
 30
0.0000
  0
SEQEND
  8
0
  0
POLYLINE
  8
1
 66
1
 10
0.0000
 20
0.0000
 30
0.0000
 40
0.3048
 41
0.3048
 70
0
  0
VERTEX
  8
1
 10
27.2176
 20
6.4270
 30
0.0000
 42
1.0000
  0
VERTEX
  8
1
 10
27.5224
 20
6.4270
 30
0.0000
  0
SEQEND
  8
0
  0
POLYLINE
  8
1
 66
1
 10
0.0000
 20
0.0000
 30
0.0000
 40
0.3048
 41
0.3048
 70
0
  0
VERTEX
  8
1
 10
27.5224
 20
9.0000
 30
0.0000
 42
1.0000
  0
VERTEX
  8
1
 10
27.2176
 20
9.0000
 30
0.0000
  0
SEQEND
  8
0
  0
INSERT
  8
18
  2
ROUNDV
 10
25.4000
 20
22.6000
 30
0.0000
 41
2.5000
 42
2.5000
 43
1.0000
 50
0.0000
  0
INSERT
  8
18
  2
ROUNDV
 10
25.4000
 20
22.6000
 30
0.0000
 41
2.5000
 42
2.5000
 43
1.0000
 50
0.0000
  0
CIRCLE
  8
44
 10
25.4000
 20
22.6000
 30
0.0000
 40
0.8000
  0
INSERT
  8
18
  2
ROUNDV
 10
8.4000
 20
14.1000
 30
0.0000
 41
2.5000
 42
2.5000
 43
1.0000
 50
0.0000
  0
INSERT
  8
18
  2
ROUNDV
 10
8.4000
 20
14.1000
 30
0.0000
 41
2.5000
 42
2.5000
 43
1.0000
 50
0.0000
  0
CIRCLE
  8
44
 10
8.4000
 20
14.1000
 30
0.0000
 40
0.8000
  0
ENDSEC
  0
EOF
