<svg id="Capa_1" data-name="Capa 1" xmlns="http://www.w3.org/2000/svg" viewBox="0 0 1196.94 783.3"><defs><style>.cls-1{fill:#fff;}.cls-1,.cls-2,.cls-5,.cls-7,.cls-8{stroke:#1d1d1b;stroke-miterlimit:10;}.cls-2,.cls-5,.cls-6,.cls-7,.cls-8{fill:none;}.cls-2{stroke-width:0.75px;}.cls-3,.cls-4,.cls-9{fill:#1d1d1b;}.cls-4{font-size:12px;}.cls-4,.cls-9{font-family:MyriadPro-Regular, Myriad Pro;}.cls-7{stroke-width:0.5px;}.cls-8{stroke-width:0.25px;}.cls-9{font-size:9.04px;}</style></defs><rect class="cls-1" x="689.02" y="487.39" width="422.36" height="257.95" rx="25.48"/><polygon class="cls-1" points="592.14 48.37 592.14 25.69 507.1 25.69 507.1 48.37 483.01 48.37 483.01 170.25 500.02 170.25 500.02 243.96 599.23 243.96 599.23 170.25 616.24 170.25 616.24 48.37 592.14 48.37"/><path class="cls-1" d="M463.22,208.07V185.39h-85v22.68h-24.1V330h17a14.17,14.17,0,0,1,14.18,14.17v59.53h70.86V344.13A14.17,14.17,0,0,1,470.3,330h17V208.07Z" transform="translate(479.5 321.84)"/><polygon class="cls-1" points="341.96 350.41 333.46 350.41 333.46 321.84 248.42 321.84 248.42 350.41 239.92 350.41 239.92 361.75 248.42 361.75 248.42 460.74 333.46 460.74 333.46 361.75 341.96 361.75 341.96 350.41"/><polygon class="cls-1" points="803.7 546.91 795.2 546.91 795.2 546.91 710.16 546.91 710.16 546.91 701.66 546.91 701.66 586.83 710.16 586.83 710.16 685.81 795.2 685.81 795.2 586.83 803.7 586.83 803.7 546.91"/><polygon class="cls-1" points="1098.75 546.77 1090.24 546.77 1090.24 546.77 1005.2 546.77 1005.2 546.77 996.7 546.77 996.7 586.68 1005.2 586.68 1005.2 685.67 1090.24 685.67 1090.24 586.68 1098.75 586.68 1098.75 546.77"/><polygon class="cls-1" points="451.53 350.41 443.02 350.41 443.02 321.84 357.99 321.84 357.99 350.41 349.48 350.41 349.48 361.75 357.99 361.75 357.99 460.74 443.02 460.74 443.02 361.75 451.53 361.75 451.53 350.41"/><rect class="cls-1" x="0.5" y="0.5" width="422.36" height="257.95" rx="25.48"/><path class="cls-1" d="M-345.82-278.82V-301.5h-85v22.68H-455v121.89h17a14.17,14.17,0,0,1,14.17,14.17v59.53h70.87v-59.53a14.18,14.18,0,0,1,14.17-14.17h17V-278.82Z" transform="translate(479.5 321.84)"/><polygon class="cls-1" points="284 88.6 275.5 88.6 275.5 60.03 190.46 60.03 190.46 88.6 181.95 88.6 181.95 99.94 190.46 99.94 190.46 198.93 275.5 198.93 275.5 99.94 284 99.94 284 88.6"/><polygon class="cls-1" points="410.23 88.6 401.72 88.6 401.72 60.03 316.68 60.03 316.68 88.6 308.18 88.6 308.18 99.94 316.68 99.94 316.68 198.93 401.72 198.93 401.72 99.94 410.23 99.94 410.23 88.6"/><text x="479.5" y="321.84"/><line class="cls-2" x1="694.66" y1="424" x2="1106.86" y2="424"/><path class="cls-3" d="M210.63,102.16a22.65,22.65,0,0,1,6.41,3.57l-1.29-3.57L217,98.59A22.65,22.65,0,0,1,210.63,102.16Z" transform="translate(479.5 321.84)"/><path class="cls-3" d="M631.88,102.16a22.65,22.65,0,0,0-6.41,3.57l1.29-3.57-1.29-3.57A22.65,22.65,0,0,0,631.88,102.16Z" transform="translate(479.5 321.84)"/><text class="cls-4" transform="translate(894.33 419.57)">149</text><line class="cls-2" x1="862.21" y1="467.83" x2="938.19" y2="467.83"/><path class="cls-3" d="M378.18,146a22.65,22.65,0,0,1,6.41,3.57L383.3,146l1.29-3.56A22.62,22.62,0,0,1,378.18,146Z" transform="translate(479.5 321.84)"/><path class="cls-3" d="M463.22,146a22.65,22.65,0,0,0-6.41,3.57L458.1,146l-1.29-3.56A22.62,22.62,0,0,0,463.22,146Z" transform="translate(479.5 321.84)"/><line class="cls-2" x1="838.11" y1="444.73" x2="962.29" y2="444.73"/><path class="cls-3" d="M354.08,122.89a22.51,22.51,0,0,1,6.41,3.57l-1.29-3.57,1.29-3.56A22.48,22.48,0,0,1,354.08,122.89Z" transform="translate(479.5 321.84)"/><path class="cls-3" d="M487.31,122.89a22.65,22.65,0,0,0-6.41,3.57l1.29-3.57-1.29-3.56A22.62,22.62,0,0,0,487.31,122.89Z" transform="translate(479.5 321.84)"/><line class="cls-2" x1="706.18" y1="444.73" x2="799.18" y2="444.73"/><path class="cls-3" d="M222.15,122.89a22.51,22.51,0,0,1,6.41,3.57l-1.29-3.57,1.29-3.56A22.48,22.48,0,0,1,222.15,122.89Z" transform="translate(479.5 321.84)"/><path class="cls-3" d="M324.2,122.89a22.65,22.65,0,0,0-6.41,3.57l1.29-3.57-1.29-3.56A22.62,22.62,0,0,0,324.2,122.89Z" transform="translate(479.5 321.84)"/><line class="cls-2" x1="714.69" y1="466.06" x2="790.67" y2="466.06"/><path class="cls-3" d="M230.66,144.22a22.65,22.65,0,0,1,6.41,3.57l-1.29-3.57,1.29-3.57A22.65,22.65,0,0,1,230.66,144.22Z" transform="translate(479.5 321.84)"/><path class="cls-3" d="M315.7,144.22a22.51,22.51,0,0,0-6.41,3.57l1.29-3.57-1.29-3.57A22.51,22.51,0,0,0,315.7,144.22Z" transform="translate(479.5 321.84)"/><line class="cls-2" x1="1180.77" y1="491.91" x2="1180.77" y2="740.27"/><path class="cls-3" d="M701.26,165.55A22.87,22.87,0,0,1,697.7,172l3.56-1.29,3.57,1.29A22.65,22.65,0,0,1,701.26,165.55Z" transform="translate(479.5 321.84)"/><path class="cls-3" d="M701.26,423a22.87,22.87,0,0,0-3.56-6.41l3.56,1.29,3.57-1.29A22.65,22.65,0,0,0,701.26,423Z" transform="translate(479.5 321.84)"/><line class="cls-2" x1="1145.81" y1="534.43" x2="1145.81" y2="647.27"/><path class="cls-3" d="M666.31,208.07a22.65,22.65,0,0,1-3.57,6.41l3.57-1.29,3.56,1.29A22.87,22.87,0,0,1,666.31,208.07Z" transform="translate(479.5 321.84)"/><path class="cls-3" d="M666.31,330a22.51,22.51,0,0,0-3.57-6.41l3.57,1.29,3.56-1.29A22.73,22.73,0,0,0,666.31,330Z" transform="translate(479.5 321.84)"/><line class="cls-2" x1="1145.81" y1="511.76" x2="1145.81" y2="525.38"/><path class="cls-3" d="M666.31,185.39a22.65,22.65,0,0,1-3.57,6.41l3.57-1.29,3.56,1.29A22.87,22.87,0,0,1,666.31,185.39Z" transform="translate(479.5 321.84)"/><path class="cls-3" d="M666.31,208.07a22.51,22.51,0,0,0-3.57-6.41l3.57,1.29,3.56-1.29A22.73,22.73,0,0,0,666.31,208.07Z" transform="translate(479.5 321.84)"/><line class="cls-5" x1="666.33" y1="552.95" x2="666.33" y2="580.79"/><path class="cls-3" d="M186.83,225.07a30,30,0,0,1-4.76,8.55l4.76-1.72,4.75,1.72A30.18,30.18,0,0,1,186.83,225.07Z" transform="translate(479.5 321.84)"/><path class="cls-3" d="M186.83,265a30,30,0,0,0-4.76-8.55l4.76,1.72,4.75-1.72A30.18,30.18,0,0,0,186.83,265Z" transform="translate(479.5 321.84)"/><line class="cls-5" x1="666.33" y1="592.86" x2="666.33" y2="679.63"/><path class="cls-3" d="M186.83,265a30.1,30.1,0,0,1-4.76,8.55l4.76-1.72,4.75,1.72A30.31,30.31,0,0,1,186.83,265Z" transform="translate(479.5 321.84)"/><path class="cls-3" d="M186.83,363.83a30,30,0,0,0-4.76-8.55l4.76,1.72,4.75-1.72A30.18,30.18,0,0,0,186.83,363.83Z" transform="translate(479.5 321.84)"/><line class="cls-6" x1="689.02" y1="719.86" x2="741.07" y2="719.86"/><line class="cls-6" x1="715.05" y1="744.79" x2="715.05" y2="702.79"/><line class="cls-2" x1="700.17" y1="735.13" x2="715.05" y2="719.86"/><path class="cls-3" d="M217.51,416.54a22.6,22.6,0,0,1,7-2.11l-3.45-1.56-1.66-3.41A22.67,22.67,0,0,1,217.51,416.54Z" transform="translate(479.5 321.84)"/><line class="cls-7" x1="858.45" y1="658.05" x2="851.38" y2="665.97"/><path class="cls-3" d="M381,334a15,15,0,0,1-4.62,1.6l2.34.95,1.2,2.22A15,15,0,0,1,381,334Z" transform="translate(479.5 321.84)"/><line class="cls-2" x1="869.29" y1="767.75" x2="931.11" y2="767.75"/><path class="cls-3" d="M385.27,445.91a22.65,22.65,0,0,1,6.41,3.57l-1.29-3.57,1.29-3.57A22.65,22.65,0,0,1,385.27,445.91Z" transform="translate(479.5 321.84)"/><path class="cls-3" d="M456.13,445.91a22.65,22.65,0,0,0-6.41,3.57l1.29-3.57-1.29-3.57A22.65,22.65,0,0,0,456.13,445.91Z" transform="translate(479.5 321.84)"/><line class="cls-2" x1="1145.81" y1="656.32" x2="1145.81" y2="720.97"/><path class="cls-3" d="M666.31,330a22.65,22.65,0,0,1-3.57,6.41l3.57-1.29,3.56,1.29A22.87,22.87,0,0,1,666.31,330Z" transform="translate(479.5 321.84)"/><path class="cls-3" d="M666.31,403.66a22.65,22.65,0,0,0-3.57-6.41l3.57,1.29,3.56-1.29A22.87,22.87,0,0,0,666.31,403.66Z" transform="translate(479.5 321.84)"/><line class="cls-8" x1="701.66" y1="546.91" x2="653.55" y2="546.91"/><line class="cls-8" x1="701.66" y1="586.83" x2="653.55" y2="586.83"/><line class="cls-8" x1="710.16" y1="685.81" x2="653.55" y2="685.81"/><line class="cls-8" x1="864.77" y1="725.5" x2="864.77" y2="777.66"/><line class="cls-8" x1="935.63" y1="725.5" x2="935.63" y2="777.66"/><line class="cls-8" x1="937.52" y1="745.34" x2="1196.94" y2="745.34"/><line class="cls-8" x1="966.82" y1="651.8" x2="1165.64" y2="651.8"/><line class="cls-8" x1="966.82" y1="529.91" x2="1165.64" y2="529.91"/><line class="cls-8" x1="944.05" y1="487.68" x2="1196.94" y2="487.68"/><line class="cls-8" x1="701.66" y1="546.77" x2="701.66" y2="431.49"/><line class="cls-8" x1="803.7" y1="546.77" x2="803.7" y2="431.49"/><line class="cls-8" x1="710.16" y1="586.68" x2="710.16" y2="454.97"/><line class="cls-8" x1="795.2" y1="586.68" x2="795.2" y2="454.97"/><line class="cls-8" x1="1111.38" y1="512.87" x2="1111.38" y2="397.32"/><line class="cls-8" x1="689.02" y1="518.88" x2="689.02" y2="399.4"/><line class="cls-8" x1="857.68" y1="507.23" x2="857.68" y2="454.97"/><line class="cls-8" x1="942.72" y1="507.23" x2="942.72" y2="454.97"/><line class="cls-8" x1="966.82" y1="529.91" x2="966.82" y2="431.49"/><line class="cls-8" x1="833.59" y1="529.91" x2="833.59" y2="431.49"/><line class="cls-2" x1="684.49" y1="444.73" x2="666.33" y2="444.73"/><path class="cls-3" d="M209.52,122.89a22.48,22.48,0,0,1-6.41-3.56l1.29,3.56-1.29,3.57A22.51,22.51,0,0,1,209.52,122.89Z" transform="translate(479.5 321.84)"/><line class="cls-2" x1="701.66" y1="444.73" x2="689.02" y2="444.73"/><line class="cls-8" x1="701.66" y1="546.91" x2="701.66" y2="431.49"/><line class="cls-8" x1="710.16" y1="745.34" x2="653.55" y2="745.34"/><line class="cls-2" x1="666.33" y1="690.19" x2="666.33" y2="740.81"/><path class="cls-3" d="M186.83,363.83a22.65,22.65,0,0,1-3.57,6.41l3.57-1.29,3.57,1.29A22.65,22.65,0,0,1,186.83,363.83Z" transform="translate(479.5 321.84)"/><path class="cls-3" d="M186.83,423.5a22.65,22.65,0,0,0-3.57-6.41l3.57,1.29,3.57-1.29A22.65,22.65,0,0,0,186.83,423.5Z" transform="translate(479.5 321.84)"/><line class="cls-5" x1="666.33" y1="540.88" x2="666.33" y2="493.42"/><path class="cls-3" d="M186.83,225.07a30.26,30.26,0,0,1,4.75-8.54l-4.75,1.72-4.76-1.72A30,30,0,0,1,186.83,225.07Z" transform="translate(479.5 321.84)"/><path class="cls-3" d="M186.83,165.55a30.12,30.12,0,0,0,4.75,8.54l-4.75-1.72-4.76,1.72A29.91,29.91,0,0,0,186.83,165.55Z" transform="translate(479.5 321.84)"/><line class="cls-8" x1="722.42" y1="487.39" x2="653.55" y2="487.39"/><line class="cls-8" x1="935.63" y1="725.5" x2="1165.64" y2="725.5"/><line class="cls-2" x1="1145.81" y1="730.02" x2="1145.81" y2="740.81"/><path class="cls-3" d="M666.31,403.66a22.65,22.65,0,0,1-3.57,6.41l3.57-1.29,3.56,1.29A22.87,22.87,0,0,1,666.31,403.66Z" transform="translate(479.5 321.84)"/><path class="cls-3" d="M666.31,423.5a22.65,22.65,0,0,0-3.57-6.41l3.57,1.29,3.56-1.29A22.87,22.87,0,0,0,666.31,423.5Z" transform="translate(479.5 321.84)"/><line class="cls-2" x1="1145.81" y1="502.7" x2="1145.81" y2="492.2"/><path class="cls-3" d="M666.31,185.39a22.87,22.87,0,0,1,3.56-6.41l-3.56,1.29L662.74,179A22.65,22.65,0,0,1,666.31,185.39Z" transform="translate(479.5 321.84)"/><path class="cls-3" d="M666.31,165.84a22.87,22.87,0,0,0,3.56,6.41L666.31,171l-3.57,1.29A22.65,22.65,0,0,0,666.31,165.84Z" transform="translate(479.5 321.84)"/><line class="cls-8" x1="941.88" y1="506.94" x2="1165.64" y2="506.94"/><line class="cls-2" x1="808.23" y1="444.73" x2="829.06" y2="444.73"/><path class="cls-3" d="M324.2,122.89a22.65,22.65,0,0,1,6.41,3.57l-1.29-3.57,1.29-3.56A22.62,22.62,0,0,1,324.2,122.89Z" transform="translate(479.5 321.84)"/><path class="cls-3" d="M354.08,122.89a22.65,22.65,0,0,0-6.41,3.57l1.29-3.57-1.29-3.56A22.62,22.62,0,0,0,354.08,122.89Z" transform="translate(479.5 321.84)"/><text class="cls-4" transform="translate(746.59 439.77)">36</text><text class="cls-4" transform="translate(746.09 462.08)">30</text><text class="cls-4" transform="translate(692.2 440.04)">5</text><text class="cls-4" transform="translate(811.96 439.91)">10</text><text class="cls-4" transform="translate(896.51 462.21)">30</text><text class="cls-4" transform="translate(897.01 440.04)">47</text><text class="cls-4" transform="translate(1142.9 521.91) rotate(-90)">8</text><text class="cls-4" transform="translate(1143.03 499.26) rotate(-90)">7</text><text class="cls-4" transform="translate(1142.77 596.32) rotate(-90)">43</text><text class="cls-4" transform="translate(1142.77 693.56) rotate(-90)">26</text><text class="cls-4" transform="translate(1174.46 628.12) rotate(-90)">90</text><text class="cls-4" transform="translate(894.33 780.3)">25</text><text class="cls-9" transform="translate(851.66 663.88) rotate(-48.23)">5</text><text class="cls-4" transform="translate(705.44 726.79) rotate(-45.76)">9 </text><text class="cls-4" transform="translate(663.1 718.21) rotate(-90)">21</text><text class="cls-4" transform="translate(663.1 639.63) rotate(-90)">35</text><text class="cls-4" transform="translate(663.1 573.82) rotate(-90)">14</text><text class="cls-4" transform="translate(663.1 521.91) rotate(-90)">21</text><text class="cls-4" transform="translate(1142.77 737.54) rotate(-90)">7</text></svg>